%
M48
M72
T01C0.02756
T02C0.03150
T03C0.03200
T04C0.03543
T05C0.04000
T06C0.04331
T07C0.04400
T08C0.05600
T09C0.08661
T10C0.11811
T11C0.12598
%
T01
X287600Y85157
X287600Y104843
T02
X290100Y113750
X272600Y210000
X248850Y212500
X215100Y247500
X182600Y200000
T03
X107600Y245000
X97600Y245000
X67600Y245000
X57600Y245000
T04
X267600Y103000
X267600Y66000
T05
X307600Y35000
X317600Y35000
X297600Y130000
X297600Y140000
X297600Y150000
X297600Y160000
X297600Y170000
X307600Y165000
X307600Y155000
X307600Y145000
X307600Y135000
X307600Y175000
X307600Y185000
X307600Y195000
X307600Y205000
X297600Y190000
X297600Y180000
X267600Y180000
X267600Y190000
X253225Y190000
X243850Y190000
X234475Y190000
X211975Y180000
X202600Y180000
X193225Y180000
X193225Y160000
X202600Y160000
X211975Y160000
X211975Y140000
X202600Y140000
X193225Y140000
X178850Y143125
X178850Y133750
X178850Y124375
X157600Y124375
X157600Y133750
X157600Y143125
X136350Y143125
X136350Y133750
X136350Y124375
X115100Y124375
X115100Y133750
X115100Y143125
X93850Y143125
X93850Y133750
X93850Y124375
X72600Y124375
X72600Y133750
X72600Y143125
X52600Y143125
X52600Y133750
X52600Y124375
X32600Y124375
X32600Y133750
X32600Y143125
X12600Y143125
X12600Y133750
X12600Y124375
X82600Y165000
X92600Y165000
X102600Y165000
X117600Y165000
X127600Y165000
X137600Y165000
X147600Y165000
X157600Y165000
X167600Y165000
X167600Y195000
X167600Y205000
X157600Y205000
X157600Y195000
X147600Y195000
X147600Y205000
X137600Y205000
X137600Y195000
X127600Y195000
X127600Y205000
X117600Y205000
X117600Y195000
X102600Y195000
X92600Y195000
X82600Y195000
X81600Y205000
X71600Y205000
X61600Y205000
X51600Y205000
X41600Y205000
X45100Y215000
X45100Y245000
X85100Y245000
X85100Y215000
X91600Y205000
X101600Y205000
X234475Y170000
X243850Y170000
X253225Y170000
X267600Y170000
X267600Y160000
X267600Y150000
X267600Y140000
X267600Y130000
X253225Y130000
X243850Y130000
X234475Y130000
X234475Y150000
X243850Y150000
X253225Y150000
X107600Y15000
X97600Y15000
X87600Y15000
T06
X277600Y25000
X312600Y60000
X102600Y220000
X77600Y260000
X22600Y220000
T07
X30100Y105000
X55100Y105000
X80100Y105000
X115100Y105000
X140100Y105000
X165100Y105000
X190100Y105000
X215100Y105000
X240100Y105000
X240100Y65000
X215100Y65000
X190100Y65000
X165100Y65000
X140100Y65000
X115100Y65000
X80100Y65000
X55100Y65000
X30100Y65000
X165100Y220000
X190100Y220000
X215100Y220000
X240100Y220000
X265100Y220000
X290100Y220000
X312600Y213750
X312600Y253750
X290100Y260000
X265100Y260000
X240100Y260000
X215100Y260000
X190100Y260000
X165100Y260000
T08
X177600Y265000
X177600Y243300
X152600Y243300
X152600Y265000
X202600Y265000
X202600Y243300
X227600Y243300
X227600Y265000
X252600Y265000
X252600Y243300
X277600Y243300
X277600Y265000
X302600Y265000
X302600Y243300
X252600Y81700
X252600Y60000
X227600Y60000
X227600Y81700
X202600Y81700
X202600Y60000
X177600Y60000
X177600Y81700
X152600Y81700
X152600Y60000
X127600Y60000
X127600Y81700
X67600Y81700
X67600Y60000
X42600Y60000
X42600Y81700
X17600Y81700
X17600Y60000
X22600Y243300
X22600Y265000
T09
X127600Y245000
X127600Y230000
X92600Y75000
X92600Y60000
T10
X17600Y31260
X42600Y31260
X67600Y31260
X127600Y31260
X152600Y31260
X177600Y31260
X202600Y31260
X227600Y31260
X252600Y31260
X252600Y293740
X277600Y293740
X302600Y293740
X227600Y293740
X202600Y293740
X177600Y293740
X152600Y293740
X22600Y293740
T11
X292600Y205000
X317600Y15000
M30
