G75*
%MOIN*%
%OFA0B0*%
%FSLAX25Y25*%
%IPPOS*%
%LPD*%
%AMOC8*
5,1,8,0,0,1.08239X$1,22.5*
%
%ADD10OC8,0.10800*%
%ADD11R,0.10800X0.10800*%
%ADD12C,0.12611*%
%ADD13C,0.08200*%
%ADD14OC8,0.08200*%
%ADD15C,0.13398*%
%ADD16C,0.08400*%
%ADD17OC8,0.07800*%
%ADD18C,0.00500*%
%ADD19OC8,0.07400*%
%ADD20C,0.07300*%
%ADD21C,0.08300*%
%ADD22C,0.07296*%
%ADD23R,0.13461X0.13461*%
%ADD24C,0.05550*%
%ADD25R,0.05550X0.05550*%
D10*
X0017600Y0081700D03*
X0042600Y0081700D03*
X0067600Y0081700D03*
X0127600Y0081700D03*
X0152600Y0081700D03*
X0177600Y0081700D03*
X0202600Y0081700D03*
X0227600Y0081700D03*
X0252600Y0081700D03*
X0252600Y0243300D03*
X0277600Y0243300D03*
X0302600Y0243300D03*
X0227600Y0243300D03*
X0202600Y0243300D03*
X0177600Y0243300D03*
X0152600Y0243300D03*
X0022600Y0243300D03*
D11*
X0022600Y0265000D03*
X0152600Y0265000D03*
X0177600Y0265000D03*
X0202600Y0265000D03*
X0227600Y0265000D03*
X0252600Y0265000D03*
X0277600Y0265000D03*
X0302600Y0265000D03*
X0252600Y0060000D03*
X0227600Y0060000D03*
X0202600Y0060000D03*
X0177600Y0060000D03*
X0152600Y0060000D03*
X0127600Y0060000D03*
X0067600Y0060000D03*
X0042600Y0060000D03*
X0017600Y0060000D03*
D12*
X0017600Y0031260D03*
X0042600Y0031260D03*
X0067600Y0031260D03*
X0127600Y0031260D03*
X0152600Y0031260D03*
X0177600Y0031260D03*
X0202600Y0031260D03*
X0227600Y0031260D03*
X0252600Y0031260D03*
X0252600Y0293740D03*
X0277600Y0293740D03*
X0302600Y0293740D03*
X0227600Y0293740D03*
X0202600Y0293740D03*
X0177600Y0293740D03*
X0152600Y0293740D03*
X0022600Y0293740D03*
D13*
X0041600Y0205000D03*
X0051600Y0205000D03*
X0061600Y0205000D03*
X0071600Y0205000D03*
X0081600Y0205000D03*
X0091600Y0205000D03*
X0101600Y0205000D03*
X0117600Y0205000D03*
X0127600Y0205000D03*
X0137600Y0205000D03*
X0147600Y0205000D03*
X0157600Y0205000D03*
X0167600Y0205000D03*
X0307600Y0205000D03*
X0307600Y0035000D03*
X0317600Y0035000D03*
X0107600Y0015000D03*
X0097600Y0015000D03*
X0087600Y0015000D03*
D14*
X0307600Y0135000D03*
X0307600Y0145000D03*
X0307600Y0155000D03*
X0307600Y0165000D03*
X0307600Y0175000D03*
X0307600Y0185000D03*
X0307600Y0195000D03*
D15*
X0292600Y0205000D03*
X0317600Y0015000D03*
D16*
X0240100Y0065000D03*
X0215100Y0065000D03*
X0190100Y0065000D03*
X0165100Y0065000D03*
X0140100Y0065000D03*
X0115100Y0065000D03*
X0080100Y0065000D03*
X0055100Y0065000D03*
X0030100Y0065000D03*
X0030100Y0105000D03*
X0055100Y0105000D03*
X0080100Y0105000D03*
X0115100Y0105000D03*
X0140100Y0105000D03*
X0165100Y0105000D03*
X0190100Y0105000D03*
X0215100Y0105000D03*
X0240100Y0105000D03*
X0312600Y0213750D03*
X0290100Y0220000D03*
X0265100Y0220000D03*
X0240100Y0220000D03*
X0215100Y0220000D03*
X0190100Y0220000D03*
X0165100Y0220000D03*
X0165100Y0260000D03*
X0190100Y0260000D03*
X0215100Y0260000D03*
X0240100Y0260000D03*
X0265100Y0260000D03*
X0290100Y0260000D03*
X0312600Y0253750D03*
D17*
X0253225Y0190000D03*
X0243850Y0190000D03*
X0234475Y0190000D03*
X0211975Y0180000D03*
X0202600Y0180000D03*
X0193225Y0180000D03*
X0193225Y0160000D03*
X0202600Y0160000D03*
X0211975Y0160000D03*
X0211975Y0140000D03*
X0202600Y0140000D03*
X0193225Y0140000D03*
X0178850Y0143125D03*
X0178850Y0133750D03*
X0178850Y0124375D03*
X0157600Y0124375D03*
X0157600Y0133750D03*
X0157600Y0143125D03*
X0136350Y0143125D03*
X0136350Y0133750D03*
X0136350Y0124375D03*
X0115100Y0124375D03*
X0115100Y0133750D03*
X0115100Y0143125D03*
X0093850Y0143125D03*
X0093850Y0133750D03*
X0093850Y0124375D03*
X0072600Y0124375D03*
X0072600Y0133750D03*
X0072600Y0143125D03*
X0052600Y0143125D03*
X0052600Y0133750D03*
X0052600Y0124375D03*
X0032600Y0124375D03*
X0032600Y0133750D03*
X0032600Y0143125D03*
X0012600Y0143125D03*
X0012600Y0133750D03*
X0012600Y0124375D03*
X0234475Y0130000D03*
X0243850Y0130000D03*
X0253225Y0130000D03*
X0253225Y0150000D03*
X0243850Y0150000D03*
X0234475Y0150000D03*
X0234475Y0170000D03*
X0243850Y0170000D03*
X0253225Y0170000D03*
D18*
X0265830Y0170010D02*
X0265877Y0170393D01*
X0266007Y0170757D01*
X0266216Y0171082D01*
X0266491Y0171353D01*
X0266820Y0171556D01*
X0267186Y0171680D01*
X0267570Y0171720D01*
X0267952Y0171686D01*
X0268316Y0171568D01*
X0268645Y0171372D01*
X0268922Y0171108D01*
X0269133Y0170788D01*
X0269268Y0170430D01*
X0269320Y0170050D01*
X0269285Y0169649D01*
X0269162Y0169267D01*
X0268956Y0168921D01*
X0268679Y0168630D01*
X0268344Y0168407D01*
X0267968Y0168265D01*
X0267570Y0168210D01*
X0267177Y0168261D01*
X0266805Y0168398D01*
X0266473Y0168615D01*
X0266198Y0168900D01*
X0265993Y0169239D01*
X0265868Y0169615D01*
X0265830Y0170010D01*
X0265831Y0170007D02*
X0269316Y0170007D01*
X0269240Y0169509D02*
X0265903Y0169509D01*
X0266131Y0169010D02*
X0269009Y0169010D01*
X0268501Y0168512D02*
X0266632Y0168512D01*
X0265917Y0170506D02*
X0269240Y0170506D01*
X0268990Y0171004D02*
X0266166Y0171004D01*
X0266734Y0171503D02*
X0268426Y0171503D01*
X0267570Y0178210D02*
X0267177Y0178261D01*
X0266805Y0178398D01*
X0266473Y0178615D01*
X0266198Y0178900D01*
X0265993Y0179239D01*
X0265868Y0179615D01*
X0265830Y0180010D01*
X0265877Y0180393D01*
X0266007Y0180757D01*
X0266216Y0181082D01*
X0266491Y0181353D01*
X0266820Y0181556D01*
X0267186Y0181680D01*
X0267570Y0181720D01*
X0267952Y0181686D01*
X0268316Y0181568D01*
X0268645Y0181372D01*
X0268922Y0181108D01*
X0269133Y0180788D01*
X0269268Y0180430D01*
X0269320Y0180050D01*
X0269285Y0179649D01*
X0269162Y0179267D01*
X0268956Y0178921D01*
X0268679Y0178630D01*
X0268344Y0178407D01*
X0267968Y0178265D01*
X0267570Y0178210D01*
X0268457Y0178482D02*
X0266677Y0178482D01*
X0266149Y0178980D02*
X0268992Y0178980D01*
X0269230Y0179479D02*
X0265913Y0179479D01*
X0265833Y0179977D02*
X0269314Y0179977D01*
X0269251Y0180476D02*
X0265907Y0180476D01*
X0266147Y0180974D02*
X0269010Y0180974D01*
X0268476Y0181473D02*
X0266686Y0181473D01*
X0267570Y0188210D02*
X0267177Y0188261D01*
X0266805Y0188398D01*
X0266473Y0188615D01*
X0266198Y0188900D01*
X0265993Y0189239D01*
X0265868Y0189615D01*
X0265830Y0190010D01*
X0265877Y0190393D01*
X0266007Y0190757D01*
X0266216Y0191082D01*
X0266491Y0191353D01*
X0266820Y0191556D01*
X0267186Y0191680D01*
X0267570Y0191720D01*
X0267952Y0191686D01*
X0268316Y0191568D01*
X0268645Y0191372D01*
X0268922Y0191108D01*
X0269133Y0190788D01*
X0269268Y0190430D01*
X0269320Y0190050D01*
X0269285Y0189649D01*
X0269162Y0189267D01*
X0268956Y0188921D01*
X0268679Y0188630D01*
X0268344Y0188407D01*
X0267968Y0188265D01*
X0267570Y0188210D01*
X0268412Y0188452D02*
X0266723Y0188452D01*
X0266167Y0188951D02*
X0268974Y0188951D01*
X0269221Y0189449D02*
X0265923Y0189449D01*
X0265836Y0189948D02*
X0269311Y0189948D01*
X0269262Y0190446D02*
X0265896Y0190446D01*
X0266128Y0190945D02*
X0269030Y0190945D01*
X0268526Y0191443D02*
X0266638Y0191443D01*
X0295860Y0190040D02*
X0295907Y0190423D01*
X0296037Y0190787D01*
X0296246Y0191112D01*
X0296521Y0191383D01*
X0296850Y0191586D01*
X0297216Y0191710D01*
X0297600Y0191750D01*
X0297982Y0191716D01*
X0298346Y0191598D01*
X0298675Y0191402D01*
X0298952Y0191137D01*
X0299163Y0190818D01*
X0299298Y0190459D01*
X0299350Y0190080D01*
X0299315Y0189679D01*
X0299192Y0189297D01*
X0298986Y0188951D01*
X0296215Y0188951D01*
X0296228Y0188930D02*
X0296023Y0189269D01*
X0295898Y0189645D01*
X0295860Y0190040D01*
X0295869Y0189948D02*
X0299338Y0189948D01*
X0299300Y0190446D02*
X0295915Y0190446D01*
X0296139Y0190945D02*
X0299080Y0190945D01*
X0298606Y0191443D02*
X0296619Y0191443D01*
X0295963Y0189449D02*
X0299241Y0189449D01*
X0298986Y0188951D02*
X0298709Y0188660D01*
X0298374Y0188437D01*
X0297998Y0188295D01*
X0297600Y0188240D01*
X0297207Y0188291D01*
X0296835Y0188428D01*
X0296503Y0188645D01*
X0296228Y0188930D01*
X0296799Y0188452D02*
X0298397Y0188452D01*
X0297982Y0181716D02*
X0298346Y0181598D01*
X0298675Y0181402D01*
X0298952Y0181137D01*
X0299163Y0180818D01*
X0299298Y0180459D01*
X0299350Y0180080D01*
X0299315Y0179679D01*
X0299192Y0179297D01*
X0298986Y0178951D01*
X0298709Y0178660D01*
X0298374Y0178437D01*
X0297998Y0178295D01*
X0297600Y0178240D01*
X0297207Y0178291D01*
X0296835Y0178428D01*
X0296503Y0178645D01*
X0296228Y0178930D01*
X0296023Y0179269D01*
X0295898Y0179645D01*
X0295860Y0180040D01*
X0295907Y0180423D01*
X0296037Y0180787D01*
X0296246Y0181112D01*
X0296521Y0181383D01*
X0296850Y0181586D01*
X0297216Y0181710D01*
X0297600Y0181750D01*
X0297982Y0181716D01*
X0298556Y0181473D02*
X0296667Y0181473D01*
X0296158Y0180974D02*
X0299060Y0180974D01*
X0299292Y0180476D02*
X0295926Y0180476D01*
X0295866Y0179977D02*
X0299341Y0179977D01*
X0299250Y0179479D02*
X0295953Y0179479D01*
X0296197Y0178980D02*
X0299004Y0178980D01*
X0298441Y0178482D02*
X0296753Y0178482D01*
X0297600Y0171750D02*
X0297216Y0171710D01*
X0296850Y0171586D01*
X0296521Y0171383D01*
X0296246Y0171112D01*
X0296037Y0170787D01*
X0295907Y0170423D01*
X0295860Y0170040D01*
X0295898Y0169645D01*
X0296023Y0169269D01*
X0296228Y0168930D01*
X0296503Y0168645D01*
X0296835Y0168428D01*
X0297207Y0168291D01*
X0297600Y0168240D01*
X0297998Y0168295D01*
X0298374Y0168437D01*
X0298709Y0168660D01*
X0298986Y0168951D01*
X0299192Y0169297D01*
X0299315Y0169679D01*
X0299350Y0170080D01*
X0299298Y0170459D01*
X0299163Y0170818D01*
X0298952Y0171137D01*
X0298675Y0171402D01*
X0298346Y0171598D01*
X0297982Y0171716D01*
X0297600Y0171750D01*
X0296716Y0171503D02*
X0298506Y0171503D01*
X0299040Y0171004D02*
X0296177Y0171004D01*
X0295936Y0170506D02*
X0299281Y0170506D01*
X0299344Y0170007D02*
X0295863Y0170007D01*
X0295943Y0169509D02*
X0299260Y0169509D01*
X0299022Y0169010D02*
X0296179Y0169010D01*
X0296707Y0168512D02*
X0298486Y0168512D01*
X0297982Y0161716D02*
X0298346Y0161598D01*
X0298675Y0161402D01*
X0298952Y0161137D01*
X0299163Y0160818D01*
X0299298Y0160459D01*
X0299350Y0160080D01*
X0299315Y0159679D01*
X0299192Y0159297D01*
X0298986Y0158951D01*
X0298709Y0158660D01*
X0298374Y0158437D01*
X0297998Y0158295D01*
X0297600Y0158240D01*
X0297207Y0158291D01*
X0296835Y0158428D01*
X0296503Y0158645D01*
X0296228Y0158930D01*
X0296023Y0159269D01*
X0295898Y0159645D01*
X0295860Y0160040D01*
X0295907Y0160423D01*
X0296037Y0160787D01*
X0296246Y0161112D01*
X0296521Y0161383D01*
X0296850Y0161586D01*
X0297216Y0161710D01*
X0297600Y0161750D01*
X0297982Y0161716D01*
X0298456Y0161533D02*
X0296764Y0161533D01*
X0296196Y0161034D02*
X0299020Y0161034D01*
X0299270Y0160536D02*
X0295947Y0160536D01*
X0295861Y0160037D02*
X0299346Y0160037D01*
X0299270Y0159539D02*
X0295933Y0159539D01*
X0296161Y0159040D02*
X0299039Y0159040D01*
X0298531Y0158541D02*
X0296662Y0158541D01*
X0297216Y0151710D02*
X0297600Y0151750D01*
X0297982Y0151716D01*
X0298346Y0151598D01*
X0298675Y0151402D01*
X0298952Y0151137D01*
X0299163Y0150818D01*
X0299298Y0150459D01*
X0299350Y0150080D01*
X0299315Y0149679D01*
X0299192Y0149297D01*
X0298986Y0148951D01*
X0298709Y0148660D01*
X0298374Y0148437D01*
X0297998Y0148295D01*
X0297600Y0148240D01*
X0297207Y0148291D01*
X0296835Y0148428D01*
X0296503Y0148645D01*
X0296228Y0148930D01*
X0296023Y0149269D01*
X0295898Y0149645D01*
X0295860Y0150040D01*
X0295907Y0150423D01*
X0296037Y0150787D01*
X0296246Y0151112D01*
X0296521Y0151383D01*
X0296850Y0151586D01*
X0297216Y0151710D01*
X0296812Y0151562D02*
X0298406Y0151562D01*
X0299001Y0151064D02*
X0296215Y0151064D01*
X0295958Y0150565D02*
X0299258Y0150565D01*
X0299349Y0150067D02*
X0295864Y0150067D01*
X0295923Y0149568D02*
X0299279Y0149568D01*
X0299057Y0149070D02*
X0296143Y0149070D01*
X0296616Y0148571D02*
X0298576Y0148571D01*
X0297982Y0141716D02*
X0298346Y0141598D01*
X0298675Y0141402D01*
X0298952Y0141137D01*
X0299163Y0140818D01*
X0299298Y0140459D01*
X0299350Y0140080D01*
X0299315Y0139679D01*
X0299192Y0139297D01*
X0298986Y0138951D01*
X0298709Y0138660D01*
X0298374Y0138437D01*
X0297998Y0138295D01*
X0297600Y0138240D01*
X0297207Y0138291D01*
X0296835Y0138428D01*
X0296503Y0138645D01*
X0296228Y0138930D01*
X0296023Y0139269D01*
X0295898Y0139645D01*
X0295860Y0140040D01*
X0295907Y0140423D01*
X0296037Y0140787D01*
X0296246Y0141112D01*
X0296521Y0141383D01*
X0296850Y0141586D01*
X0297216Y0141710D01*
X0297600Y0141750D01*
X0297982Y0141716D01*
X0298356Y0141592D02*
X0296869Y0141592D01*
X0296234Y0141094D02*
X0298981Y0141094D01*
X0299247Y0140595D02*
X0295968Y0140595D01*
X0295867Y0140097D02*
X0299348Y0140097D01*
X0299289Y0139598D02*
X0295914Y0139598D01*
X0296125Y0139100D02*
X0299075Y0139100D01*
X0298621Y0138601D02*
X0296570Y0138601D01*
X0297216Y0131710D02*
X0297600Y0131750D01*
X0297982Y0131716D01*
X0298346Y0131598D01*
X0298675Y0131402D01*
X0298952Y0131137D01*
X0299163Y0130818D01*
X0299298Y0130459D01*
X0299350Y0130080D01*
X0299315Y0129679D01*
X0299192Y0129297D01*
X0298986Y0128951D01*
X0298709Y0128660D01*
X0298374Y0128437D01*
X0297998Y0128295D01*
X0297600Y0128240D01*
X0297207Y0128291D01*
X0296835Y0128428D01*
X0296503Y0128645D01*
X0296228Y0128930D01*
X0296023Y0129269D01*
X0295898Y0129645D01*
X0295860Y0130040D01*
X0295907Y0130423D01*
X0296037Y0130787D01*
X0296246Y0131112D01*
X0296521Y0131383D01*
X0296850Y0131586D01*
X0297216Y0131710D01*
X0296957Y0131622D02*
X0298272Y0131622D01*
X0298961Y0131123D02*
X0296257Y0131123D01*
X0295979Y0130625D02*
X0299236Y0130625D01*
X0299344Y0130126D02*
X0295871Y0130126D01*
X0295904Y0129628D02*
X0299298Y0129628D01*
X0299092Y0129129D02*
X0296107Y0129129D01*
X0296525Y0128631D02*
X0298666Y0128631D01*
X0269320Y0130050D02*
X0269285Y0129649D01*
X0269162Y0129267D01*
X0268956Y0128921D01*
X0268679Y0128630D01*
X0268344Y0128407D01*
X0267968Y0128265D01*
X0267570Y0128210D01*
X0267177Y0128261D01*
X0266805Y0128398D01*
X0266473Y0128615D01*
X0266198Y0128900D01*
X0265993Y0129239D01*
X0265868Y0129615D01*
X0265830Y0130010D01*
X0265877Y0130393D01*
X0266007Y0130757D01*
X0266216Y0131082D01*
X0266491Y0131353D01*
X0266820Y0131556D01*
X0267186Y0131680D01*
X0267570Y0131720D01*
X0267952Y0131686D01*
X0268316Y0131568D01*
X0268645Y0131372D01*
X0268922Y0131108D01*
X0269133Y0130788D01*
X0269268Y0130430D01*
X0269320Y0130050D01*
X0269310Y0130126D02*
X0265844Y0130126D01*
X0265867Y0129628D02*
X0269278Y0129628D01*
X0269080Y0129129D02*
X0266059Y0129129D01*
X0266458Y0128631D02*
X0268680Y0128631D01*
X0269195Y0130625D02*
X0265960Y0130625D01*
X0266258Y0131123D02*
X0268906Y0131123D01*
X0268150Y0131622D02*
X0267015Y0131622D01*
X0267570Y0138210D02*
X0267177Y0138261D01*
X0266805Y0138398D01*
X0266473Y0138615D01*
X0266198Y0138900D01*
X0265993Y0139239D01*
X0265868Y0139615D01*
X0265830Y0140010D01*
X0265877Y0140393D01*
X0266007Y0140757D01*
X0266216Y0141082D01*
X0266491Y0141353D01*
X0266820Y0141556D01*
X0267186Y0141680D01*
X0267570Y0141720D01*
X0267952Y0141686D01*
X0268316Y0141568D01*
X0268645Y0141372D01*
X0268922Y0141108D01*
X0269133Y0140788D01*
X0269268Y0140430D01*
X0269320Y0140050D01*
X0269285Y0139649D01*
X0269162Y0139267D01*
X0268956Y0138921D01*
X0268679Y0138630D01*
X0268344Y0138407D01*
X0267968Y0138265D01*
X0267570Y0138210D01*
X0268636Y0138601D02*
X0266495Y0138601D01*
X0266077Y0139100D02*
X0269062Y0139100D01*
X0269269Y0139598D02*
X0265874Y0139598D01*
X0265841Y0140097D02*
X0269314Y0140097D01*
X0269206Y0140595D02*
X0265949Y0140595D01*
X0266227Y0141094D02*
X0268931Y0141094D01*
X0268242Y0141592D02*
X0266927Y0141592D01*
X0267570Y0148210D02*
X0267177Y0148261D01*
X0266805Y0148398D01*
X0266473Y0148615D01*
X0266198Y0148900D01*
X0265993Y0149239D01*
X0265868Y0149615D01*
X0265830Y0150010D01*
X0265877Y0150393D01*
X0266007Y0150757D01*
X0266216Y0151082D01*
X0266491Y0151353D01*
X0266820Y0151556D01*
X0267186Y0151680D01*
X0267570Y0151720D01*
X0267952Y0151686D01*
X0268316Y0151568D01*
X0268645Y0151372D01*
X0268922Y0151108D01*
X0269133Y0150788D01*
X0269268Y0150430D01*
X0269320Y0150050D01*
X0269285Y0149649D01*
X0269162Y0149267D01*
X0268956Y0148921D01*
X0268679Y0148630D01*
X0268344Y0148407D01*
X0267968Y0148265D01*
X0267570Y0148210D01*
X0268591Y0148571D02*
X0266540Y0148571D01*
X0266095Y0149070D02*
X0269045Y0149070D01*
X0269259Y0149568D02*
X0265884Y0149568D01*
X0265837Y0150067D02*
X0269318Y0150067D01*
X0269217Y0150565D02*
X0265939Y0150565D01*
X0266204Y0151064D02*
X0268951Y0151064D01*
X0268326Y0151562D02*
X0266840Y0151562D01*
X0267570Y0158210D02*
X0267177Y0158261D01*
X0266805Y0158398D01*
X0266473Y0158615D01*
X0266198Y0158900D01*
X0265993Y0159239D01*
X0265868Y0159615D01*
X0265830Y0160010D01*
X0265877Y0160393D01*
X0266007Y0160757D01*
X0266216Y0161082D01*
X0266491Y0161353D01*
X0266820Y0161556D01*
X0267186Y0161680D01*
X0267570Y0161720D01*
X0267952Y0161686D01*
X0268316Y0161568D01*
X0268645Y0161372D01*
X0268922Y0161108D01*
X0269133Y0160788D01*
X0269268Y0160430D01*
X0269320Y0160050D01*
X0269285Y0159649D01*
X0269162Y0159267D01*
X0268956Y0158921D01*
X0268679Y0158630D01*
X0268344Y0158407D01*
X0267968Y0158265D01*
X0267570Y0158210D01*
X0268546Y0158541D02*
X0266586Y0158541D01*
X0266113Y0159040D02*
X0269027Y0159040D01*
X0269249Y0159539D02*
X0265893Y0159539D01*
X0265834Y0160037D02*
X0269319Y0160037D01*
X0269228Y0160536D02*
X0265928Y0160536D01*
X0266185Y0161034D02*
X0268971Y0161034D01*
X0268376Y0161533D02*
X0266783Y0161533D01*
X0169390Y0164970D02*
X0169339Y0164577D01*
X0169202Y0164205D01*
X0168985Y0163873D01*
X0168700Y0163598D01*
X0168361Y0163393D01*
X0167985Y0163268D01*
X0167590Y0163230D01*
X0167207Y0163277D01*
X0166843Y0163407D01*
X0166518Y0163616D01*
X0166247Y0163891D01*
X0166044Y0164220D01*
X0165920Y0164586D01*
X0165880Y0164970D01*
X0165914Y0165352D01*
X0166032Y0165716D01*
X0166228Y0166045D01*
X0166492Y0166322D01*
X0166812Y0166533D01*
X0167170Y0166668D01*
X0167550Y0166720D01*
X0167951Y0166685D01*
X0168333Y0166562D01*
X0168679Y0166356D01*
X0168970Y0166079D01*
X0169193Y0165744D01*
X0169335Y0165368D01*
X0169390Y0164970D01*
X0169383Y0165022D02*
X0165885Y0165022D01*
X0165941Y0164524D02*
X0169319Y0164524D01*
X0169084Y0164025D02*
X0166165Y0164025D01*
X0166657Y0163527D02*
X0168582Y0163527D01*
X0169277Y0165521D02*
X0165969Y0165521D01*
X0166213Y0166019D02*
X0169010Y0166019D01*
X0168408Y0166518D02*
X0166788Y0166518D01*
X0159335Y0165368D02*
X0159390Y0164970D01*
X0159339Y0164577D01*
X0159202Y0164205D01*
X0158985Y0163873D01*
X0158700Y0163598D01*
X0158361Y0163393D01*
X0157985Y0163268D01*
X0157590Y0163230D01*
X0157207Y0163277D01*
X0156843Y0163407D01*
X0156518Y0163616D01*
X0156247Y0163891D01*
X0156044Y0164220D01*
X0155920Y0164586D01*
X0155880Y0164970D01*
X0155914Y0165352D01*
X0156032Y0165716D01*
X0156228Y0166045D01*
X0156492Y0166322D01*
X0156812Y0166533D01*
X0157170Y0166668D01*
X0157550Y0166720D01*
X0157951Y0166685D01*
X0158333Y0166562D01*
X0158679Y0166356D01*
X0158970Y0166079D01*
X0159193Y0165744D01*
X0159335Y0165368D01*
X0159277Y0165521D02*
X0155969Y0165521D01*
X0155885Y0165022D02*
X0159383Y0165022D01*
X0159319Y0164524D02*
X0155941Y0164524D01*
X0156165Y0164025D02*
X0159084Y0164025D01*
X0158582Y0163527D02*
X0156657Y0163527D01*
X0156213Y0166019D02*
X0159010Y0166019D01*
X0158408Y0166518D02*
X0156788Y0166518D01*
X0149335Y0165368D02*
X0149390Y0164970D01*
X0149339Y0164577D01*
X0149202Y0164205D01*
X0148985Y0163873D01*
X0148700Y0163598D01*
X0148361Y0163393D01*
X0147985Y0163268D01*
X0147590Y0163230D01*
X0147207Y0163277D01*
X0146843Y0163407D01*
X0146518Y0163616D01*
X0146247Y0163891D01*
X0146044Y0164220D01*
X0145920Y0164586D01*
X0145880Y0164970D01*
X0145914Y0165352D01*
X0146032Y0165716D01*
X0146228Y0166045D01*
X0146492Y0166322D01*
X0146812Y0166533D01*
X0147170Y0166668D01*
X0147550Y0166720D01*
X0147951Y0166685D01*
X0148333Y0166562D01*
X0148679Y0166356D01*
X0148970Y0166079D01*
X0149193Y0165744D01*
X0149335Y0165368D01*
X0149277Y0165521D02*
X0145969Y0165521D01*
X0145885Y0165022D02*
X0149383Y0165022D01*
X0149319Y0164524D02*
X0145941Y0164524D01*
X0146165Y0164025D02*
X0149084Y0164025D01*
X0148582Y0163527D02*
X0146657Y0163527D01*
X0146213Y0166019D02*
X0149010Y0166019D01*
X0148408Y0166518D02*
X0146788Y0166518D01*
X0139335Y0165368D02*
X0139390Y0164970D01*
X0139339Y0164577D01*
X0139202Y0164205D01*
X0138985Y0163873D01*
X0138700Y0163598D01*
X0138361Y0163393D01*
X0137985Y0163268D01*
X0137590Y0163230D01*
X0137207Y0163277D01*
X0136843Y0163407D01*
X0136518Y0163616D01*
X0136247Y0163891D01*
X0136044Y0164220D01*
X0135920Y0164586D01*
X0135880Y0164970D01*
X0135914Y0165352D01*
X0136032Y0165716D01*
X0136228Y0166045D01*
X0136492Y0166322D01*
X0136812Y0166533D01*
X0137170Y0166668D01*
X0137550Y0166720D01*
X0137951Y0166685D01*
X0138333Y0166562D01*
X0138679Y0166356D01*
X0138970Y0166079D01*
X0139193Y0165744D01*
X0139335Y0165368D01*
X0139277Y0165521D02*
X0135969Y0165521D01*
X0135885Y0165022D02*
X0139383Y0165022D01*
X0139319Y0164524D02*
X0135941Y0164524D01*
X0136165Y0164025D02*
X0139084Y0164025D01*
X0138582Y0163527D02*
X0136657Y0163527D01*
X0136213Y0166019D02*
X0139010Y0166019D01*
X0138408Y0166518D02*
X0136788Y0166518D01*
X0129335Y0165368D02*
X0129390Y0164970D01*
X0129339Y0164577D01*
X0129202Y0164205D01*
X0128985Y0163873D01*
X0128700Y0163598D01*
X0128361Y0163393D01*
X0127985Y0163268D01*
X0127590Y0163230D01*
X0127207Y0163277D01*
X0126843Y0163407D01*
X0126518Y0163616D01*
X0126247Y0163891D01*
X0126044Y0164220D01*
X0125920Y0164586D01*
X0125880Y0164970D01*
X0125914Y0165352D01*
X0126032Y0165716D01*
X0126228Y0166045D01*
X0126492Y0166322D01*
X0126812Y0166533D01*
X0127170Y0166668D01*
X0127550Y0166720D01*
X0127951Y0166685D01*
X0128333Y0166562D01*
X0128679Y0166356D01*
X0128970Y0166079D01*
X0129193Y0165744D01*
X0129335Y0165368D01*
X0129277Y0165521D02*
X0125969Y0165521D01*
X0125885Y0165022D02*
X0129383Y0165022D01*
X0129319Y0164524D02*
X0125941Y0164524D01*
X0126165Y0164025D02*
X0129084Y0164025D01*
X0128582Y0163527D02*
X0126657Y0163527D01*
X0126213Y0166019D02*
X0129010Y0166019D01*
X0128408Y0166518D02*
X0126788Y0166518D01*
X0119335Y0165368D02*
X0119390Y0164970D01*
X0119339Y0164577D01*
X0119202Y0164205D01*
X0118985Y0163873D01*
X0118700Y0163598D01*
X0118361Y0163393D01*
X0117985Y0163268D01*
X0117590Y0163230D01*
X0117207Y0163277D01*
X0116843Y0163407D01*
X0116518Y0163616D01*
X0116247Y0163891D01*
X0116044Y0164220D01*
X0115920Y0164586D01*
X0115880Y0164970D01*
X0115914Y0165352D01*
X0116032Y0165716D01*
X0116228Y0166045D01*
X0116492Y0166322D01*
X0116812Y0166533D01*
X0117170Y0166668D01*
X0117550Y0166720D01*
X0117951Y0166685D01*
X0118333Y0166562D01*
X0118679Y0166356D01*
X0118970Y0166079D01*
X0119193Y0165744D01*
X0119335Y0165368D01*
X0119277Y0165521D02*
X0115969Y0165521D01*
X0115885Y0165022D02*
X0119383Y0165022D01*
X0119319Y0164524D02*
X0115941Y0164524D01*
X0116165Y0164025D02*
X0119084Y0164025D01*
X0118582Y0163527D02*
X0116657Y0163527D01*
X0116213Y0166019D02*
X0119010Y0166019D01*
X0118408Y0166518D02*
X0116788Y0166518D01*
X0104390Y0164970D02*
X0104339Y0164577D01*
X0104202Y0164205D01*
X0103985Y0163873D01*
X0103700Y0163598D01*
X0103361Y0163393D01*
X0102985Y0163268D01*
X0102590Y0163230D01*
X0102207Y0163277D01*
X0101843Y0163407D01*
X0101518Y0163616D01*
X0101247Y0163891D01*
X0101044Y0164220D01*
X0100920Y0164586D01*
X0100880Y0164970D01*
X0100914Y0165352D01*
X0101032Y0165716D01*
X0101228Y0166045D01*
X0101492Y0166322D01*
X0101812Y0166533D01*
X0102170Y0166668D01*
X0102550Y0166720D01*
X0102951Y0166685D01*
X0103333Y0166562D01*
X0103679Y0166356D01*
X0103970Y0166079D01*
X0104193Y0165744D01*
X0104335Y0165368D01*
X0104390Y0164970D01*
X0104383Y0165022D02*
X0100885Y0165022D01*
X0100941Y0164524D02*
X0104319Y0164524D01*
X0104084Y0164025D02*
X0101165Y0164025D01*
X0101657Y0163527D02*
X0103582Y0163527D01*
X0104277Y0165521D02*
X0100969Y0165521D01*
X0101213Y0166019D02*
X0104010Y0166019D01*
X0103408Y0166518D02*
X0101788Y0166518D01*
X0094335Y0165368D02*
X0094390Y0164970D01*
X0094339Y0164577D01*
X0094202Y0164205D01*
X0093985Y0163873D01*
X0093700Y0163598D01*
X0093361Y0163393D01*
X0092985Y0163268D01*
X0092590Y0163230D01*
X0092207Y0163277D01*
X0091843Y0163407D01*
X0091518Y0163616D01*
X0091247Y0163891D01*
X0091044Y0164220D01*
X0090920Y0164586D01*
X0090880Y0164970D01*
X0090914Y0165352D01*
X0091032Y0165716D01*
X0091228Y0166045D01*
X0091492Y0166322D01*
X0091812Y0166533D01*
X0092170Y0166668D01*
X0092550Y0166720D01*
X0092951Y0166685D01*
X0093333Y0166562D01*
X0093679Y0166356D01*
X0093970Y0166079D01*
X0094193Y0165744D01*
X0094335Y0165368D01*
X0094277Y0165521D02*
X0090969Y0165521D01*
X0090885Y0165022D02*
X0094383Y0165022D01*
X0094319Y0164524D02*
X0090941Y0164524D01*
X0091165Y0164025D02*
X0094084Y0164025D01*
X0093582Y0163527D02*
X0091657Y0163527D01*
X0091213Y0166019D02*
X0094010Y0166019D01*
X0093408Y0166518D02*
X0091788Y0166518D01*
X0084335Y0165368D02*
X0084390Y0164970D01*
X0084339Y0164577D01*
X0084202Y0164205D01*
X0083985Y0163873D01*
X0083700Y0163598D01*
X0083361Y0163393D01*
X0082985Y0163268D01*
X0082590Y0163230D01*
X0082207Y0163277D01*
X0081843Y0163407D01*
X0081518Y0163616D01*
X0081247Y0163891D01*
X0081044Y0164220D01*
X0080920Y0164586D01*
X0080880Y0164970D01*
X0080914Y0165352D01*
X0081032Y0165716D01*
X0081228Y0166045D01*
X0081492Y0166322D01*
X0081812Y0166533D01*
X0082170Y0166668D01*
X0082550Y0166720D01*
X0082951Y0166685D01*
X0083333Y0166562D01*
X0083679Y0166356D01*
X0083970Y0166079D01*
X0084193Y0165744D01*
X0084335Y0165368D01*
X0084277Y0165521D02*
X0080969Y0165521D01*
X0080885Y0165022D02*
X0084383Y0165022D01*
X0084319Y0164524D02*
X0080941Y0164524D01*
X0081165Y0164025D02*
X0084084Y0164025D01*
X0083582Y0163527D02*
X0081657Y0163527D01*
X0081213Y0166019D02*
X0084010Y0166019D01*
X0083408Y0166518D02*
X0081788Y0166518D01*
X0082560Y0193260D02*
X0082177Y0193307D01*
X0081813Y0193437D01*
X0081488Y0193646D01*
X0081217Y0193921D01*
X0081014Y0194250D01*
X0080890Y0194616D01*
X0080850Y0195000D01*
X0080884Y0195382D01*
X0081002Y0195746D01*
X0081198Y0196075D01*
X0081463Y0196352D01*
X0081782Y0196563D01*
X0082141Y0196698D01*
X0082520Y0196750D01*
X0082921Y0196715D01*
X0083303Y0196592D01*
X0083649Y0196386D01*
X0083940Y0196109D01*
X0084163Y0195774D01*
X0084305Y0195398D01*
X0084360Y0195000D01*
X0084309Y0194607D01*
X0084172Y0194235D01*
X0083955Y0193903D01*
X0083670Y0193628D01*
X0083331Y0193423D01*
X0082955Y0193298D01*
X0082560Y0193260D01*
X0081814Y0193437D02*
X0083355Y0193437D01*
X0083976Y0193936D02*
X0081208Y0193936D01*
X0080952Y0194434D02*
X0084245Y0194434D01*
X0084351Y0194933D02*
X0080857Y0194933D01*
X0080900Y0195431D02*
X0084292Y0195431D01*
X0084059Y0195930D02*
X0081112Y0195930D01*
X0081578Y0196428D02*
X0083578Y0196428D01*
X0090884Y0195382D02*
X0091002Y0195746D01*
X0091198Y0196075D01*
X0091463Y0196352D01*
X0091782Y0196563D01*
X0092141Y0196698D01*
X0092520Y0196750D01*
X0092921Y0196715D01*
X0093303Y0196592D01*
X0093649Y0196386D01*
X0093940Y0196109D01*
X0094163Y0195774D01*
X0094305Y0195398D01*
X0094360Y0195000D01*
X0094309Y0194607D01*
X0094172Y0194235D01*
X0093955Y0193903D01*
X0093670Y0193628D01*
X0093331Y0193423D01*
X0092955Y0193298D01*
X0092560Y0193260D01*
X0092177Y0193307D01*
X0091813Y0193437D01*
X0091488Y0193646D01*
X0091217Y0193921D01*
X0091014Y0194250D01*
X0090890Y0194616D01*
X0090850Y0195000D01*
X0090884Y0195382D01*
X0090900Y0195431D02*
X0094292Y0195431D01*
X0094351Y0194933D02*
X0090857Y0194933D01*
X0090952Y0194434D02*
X0094245Y0194434D01*
X0093976Y0193936D02*
X0091208Y0193936D01*
X0091814Y0193437D02*
X0093355Y0193437D01*
X0094059Y0195930D02*
X0091112Y0195930D01*
X0091578Y0196428D02*
X0093578Y0196428D01*
X0100884Y0195382D02*
X0101002Y0195746D01*
X0101198Y0196075D01*
X0101463Y0196352D01*
X0101782Y0196563D01*
X0102141Y0196698D01*
X0102520Y0196750D01*
X0102921Y0196715D01*
X0103303Y0196592D01*
X0103649Y0196386D01*
X0103940Y0196109D01*
X0104163Y0195774D01*
X0104305Y0195398D01*
X0104360Y0195000D01*
X0104309Y0194607D01*
X0104172Y0194235D01*
X0103955Y0193903D01*
X0103670Y0193628D01*
X0103331Y0193423D01*
X0102955Y0193298D01*
X0102560Y0193260D01*
X0102177Y0193307D01*
X0101813Y0193437D01*
X0101488Y0193646D01*
X0101217Y0193921D01*
X0101014Y0194250D01*
X0100890Y0194616D01*
X0100850Y0195000D01*
X0100884Y0195382D01*
X0100900Y0195431D02*
X0104292Y0195431D01*
X0104351Y0194933D02*
X0100857Y0194933D01*
X0100952Y0194434D02*
X0104245Y0194434D01*
X0103976Y0193936D02*
X0101208Y0193936D01*
X0101814Y0193437D02*
X0103355Y0193437D01*
X0104059Y0195930D02*
X0101112Y0195930D01*
X0101578Y0196428D02*
X0103578Y0196428D01*
X0115884Y0195382D02*
X0116002Y0195746D01*
X0116198Y0196075D01*
X0116463Y0196352D01*
X0116782Y0196563D01*
X0117141Y0196698D01*
X0117520Y0196750D01*
X0117921Y0196715D01*
X0118303Y0196592D01*
X0118649Y0196386D01*
X0118940Y0196109D01*
X0119163Y0195774D01*
X0119305Y0195398D01*
X0119360Y0195000D01*
X0119309Y0194607D01*
X0119172Y0194235D01*
X0118955Y0193903D01*
X0118670Y0193628D01*
X0118331Y0193423D01*
X0117955Y0193298D01*
X0117560Y0193260D01*
X0117177Y0193307D01*
X0116813Y0193437D01*
X0116488Y0193646D01*
X0116217Y0193921D01*
X0116014Y0194250D01*
X0115890Y0194616D01*
X0115850Y0195000D01*
X0115884Y0195382D01*
X0115900Y0195431D02*
X0119292Y0195431D01*
X0119351Y0194933D02*
X0115857Y0194933D01*
X0115952Y0194434D02*
X0119245Y0194434D01*
X0118976Y0193936D02*
X0116208Y0193936D01*
X0116814Y0193437D02*
X0118355Y0193437D01*
X0119059Y0195930D02*
X0116112Y0195930D01*
X0116578Y0196428D02*
X0118578Y0196428D01*
X0125884Y0195382D02*
X0126002Y0195746D01*
X0126198Y0196075D01*
X0126463Y0196352D01*
X0126782Y0196563D01*
X0127141Y0196698D01*
X0127520Y0196750D01*
X0127921Y0196715D01*
X0128303Y0196592D01*
X0128649Y0196386D01*
X0128940Y0196109D01*
X0129163Y0195774D01*
X0129305Y0195398D01*
X0129360Y0195000D01*
X0129309Y0194607D01*
X0129172Y0194235D01*
X0128955Y0193903D01*
X0128670Y0193628D01*
X0128331Y0193423D01*
X0127955Y0193298D01*
X0127560Y0193260D01*
X0127177Y0193307D01*
X0126813Y0193437D01*
X0126488Y0193646D01*
X0126217Y0193921D01*
X0126014Y0194250D01*
X0125890Y0194616D01*
X0125850Y0195000D01*
X0125884Y0195382D01*
X0125900Y0195431D02*
X0129292Y0195431D01*
X0129351Y0194933D02*
X0125857Y0194933D01*
X0125952Y0194434D02*
X0129245Y0194434D01*
X0128976Y0193936D02*
X0126208Y0193936D01*
X0126814Y0193437D02*
X0128355Y0193437D01*
X0129059Y0195930D02*
X0126112Y0195930D01*
X0126578Y0196428D02*
X0128578Y0196428D01*
X0135884Y0195382D02*
X0136002Y0195746D01*
X0136198Y0196075D01*
X0136463Y0196352D01*
X0136782Y0196563D01*
X0137141Y0196698D01*
X0137520Y0196750D01*
X0137921Y0196715D01*
X0138303Y0196592D01*
X0138649Y0196386D01*
X0138940Y0196109D01*
X0139163Y0195774D01*
X0139305Y0195398D01*
X0139360Y0195000D01*
X0139309Y0194607D01*
X0139172Y0194235D01*
X0138955Y0193903D01*
X0138670Y0193628D01*
X0138331Y0193423D01*
X0137955Y0193298D01*
X0137560Y0193260D01*
X0137177Y0193307D01*
X0136813Y0193437D01*
X0136488Y0193646D01*
X0136217Y0193921D01*
X0136014Y0194250D01*
X0135890Y0194616D01*
X0135850Y0195000D01*
X0135884Y0195382D01*
X0135900Y0195431D02*
X0139292Y0195431D01*
X0139351Y0194933D02*
X0135857Y0194933D01*
X0135952Y0194434D02*
X0139245Y0194434D01*
X0138976Y0193936D02*
X0136208Y0193936D01*
X0136814Y0193437D02*
X0138355Y0193437D01*
X0139059Y0195930D02*
X0136112Y0195930D01*
X0136578Y0196428D02*
X0138578Y0196428D01*
X0145884Y0195382D02*
X0146002Y0195746D01*
X0146198Y0196075D01*
X0146463Y0196352D01*
X0146782Y0196563D01*
X0147141Y0196698D01*
X0147520Y0196750D01*
X0147921Y0196715D01*
X0148303Y0196592D01*
X0148649Y0196386D01*
X0148940Y0196109D01*
X0149163Y0195774D01*
X0149305Y0195398D01*
X0149360Y0195000D01*
X0149309Y0194607D01*
X0149172Y0194235D01*
X0148955Y0193903D01*
X0148670Y0193628D01*
X0148331Y0193423D01*
X0147955Y0193298D01*
X0147560Y0193260D01*
X0147177Y0193307D01*
X0146813Y0193437D01*
X0146488Y0193646D01*
X0146217Y0193921D01*
X0146014Y0194250D01*
X0145890Y0194616D01*
X0145850Y0195000D01*
X0145884Y0195382D01*
X0145900Y0195431D02*
X0149292Y0195431D01*
X0149351Y0194933D02*
X0145857Y0194933D01*
X0145952Y0194434D02*
X0149245Y0194434D01*
X0148976Y0193936D02*
X0146208Y0193936D01*
X0146814Y0193437D02*
X0148355Y0193437D01*
X0149059Y0195930D02*
X0146112Y0195930D01*
X0146578Y0196428D02*
X0148578Y0196428D01*
X0155884Y0195382D02*
X0156002Y0195746D01*
X0156198Y0196075D01*
X0156463Y0196352D01*
X0156782Y0196563D01*
X0157141Y0196698D01*
X0157520Y0196750D01*
X0157921Y0196715D01*
X0158303Y0196592D01*
X0158649Y0196386D01*
X0158940Y0196109D01*
X0159163Y0195774D01*
X0159305Y0195398D01*
X0159360Y0195000D01*
X0159309Y0194607D01*
X0159172Y0194235D01*
X0158955Y0193903D01*
X0158670Y0193628D01*
X0158331Y0193423D01*
X0157955Y0193298D01*
X0157560Y0193260D01*
X0157177Y0193307D01*
X0156813Y0193437D01*
X0156488Y0193646D01*
X0156217Y0193921D01*
X0156014Y0194250D01*
X0155890Y0194616D01*
X0155850Y0195000D01*
X0155884Y0195382D01*
X0155900Y0195431D02*
X0159292Y0195431D01*
X0159351Y0194933D02*
X0155857Y0194933D01*
X0155952Y0194434D02*
X0159245Y0194434D01*
X0158976Y0193936D02*
X0156208Y0193936D01*
X0156814Y0193437D02*
X0158355Y0193437D01*
X0159059Y0195930D02*
X0156112Y0195930D01*
X0156578Y0196428D02*
X0158578Y0196428D01*
X0165884Y0195382D02*
X0166002Y0195746D01*
X0166198Y0196075D01*
X0166463Y0196352D01*
X0166782Y0196563D01*
X0167141Y0196698D01*
X0167520Y0196750D01*
X0167921Y0196715D01*
X0168303Y0196592D01*
X0168649Y0196386D01*
X0168940Y0196109D01*
X0169163Y0195774D01*
X0169305Y0195398D01*
X0169360Y0195000D01*
X0169309Y0194607D01*
X0169172Y0194235D01*
X0168955Y0193903D01*
X0168670Y0193628D01*
X0168331Y0193423D01*
X0167955Y0193298D01*
X0167560Y0193260D01*
X0167177Y0193307D01*
X0166813Y0193437D01*
X0166488Y0193646D01*
X0166217Y0193921D01*
X0166014Y0194250D01*
X0165890Y0194616D01*
X0165850Y0195000D01*
X0165884Y0195382D01*
X0165900Y0195431D02*
X0169292Y0195431D01*
X0169351Y0194933D02*
X0165857Y0194933D01*
X0165952Y0194434D02*
X0169245Y0194434D01*
X0168976Y0193936D02*
X0166208Y0193936D01*
X0166814Y0193437D02*
X0168355Y0193437D01*
X0169059Y0195930D02*
X0166112Y0195930D01*
X0166578Y0196428D02*
X0168578Y0196428D01*
X0086839Y0214577D02*
X0086702Y0214205D01*
X0086485Y0213873D01*
X0086200Y0213598D01*
X0085861Y0213393D01*
X0085485Y0213268D01*
X0085090Y0213230D01*
X0084707Y0213277D01*
X0084343Y0213407D01*
X0084018Y0213616D01*
X0083747Y0213891D01*
X0083544Y0214220D01*
X0083420Y0214586D01*
X0083380Y0214970D01*
X0083414Y0215352D01*
X0083532Y0215716D01*
X0083728Y0216045D01*
X0083992Y0216322D01*
X0084312Y0216533D01*
X0084670Y0216668D01*
X0085050Y0216720D01*
X0085451Y0216685D01*
X0085833Y0216562D01*
X0086179Y0216356D01*
X0086470Y0216079D01*
X0086693Y0215744D01*
X0086835Y0215368D01*
X0086890Y0214970D01*
X0086839Y0214577D01*
X0086764Y0214375D02*
X0083492Y0214375D01*
X0083390Y0214873D02*
X0086877Y0214873D01*
X0086833Y0215372D02*
X0083420Y0215372D01*
X0083624Y0215870D02*
X0086609Y0215870D01*
X0086158Y0216369D02*
X0084063Y0216369D01*
X0083762Y0213876D02*
X0086487Y0213876D01*
X0085816Y0213378D02*
X0084426Y0213378D01*
X0085060Y0243260D02*
X0084677Y0243307D01*
X0084313Y0243437D01*
X0083988Y0243646D01*
X0083717Y0243921D01*
X0083514Y0244250D01*
X0083390Y0244616D01*
X0083350Y0245000D01*
X0083384Y0245382D01*
X0083502Y0245746D01*
X0083698Y0246075D01*
X0083963Y0246352D01*
X0084282Y0246563D01*
X0084641Y0246698D01*
X0085020Y0246750D01*
X0085421Y0246715D01*
X0085803Y0246592D01*
X0086149Y0246386D01*
X0086440Y0246109D01*
X0086663Y0245774D01*
X0086805Y0245398D01*
X0086860Y0245000D01*
X0086809Y0244607D01*
X0086672Y0244235D01*
X0086455Y0243903D01*
X0086170Y0243628D01*
X0085831Y0243423D01*
X0085455Y0243298D01*
X0085060Y0243260D01*
X0084828Y0243288D02*
X0085355Y0243288D01*
X0086335Y0243787D02*
X0083849Y0243787D01*
X0083502Y0244285D02*
X0086690Y0244285D01*
X0086832Y0244784D02*
X0083372Y0244784D01*
X0083375Y0245282D02*
X0086821Y0245282D01*
X0086658Y0245781D02*
X0083523Y0245781D01*
X0083893Y0246279D02*
X0086261Y0246279D01*
X0046860Y0245000D02*
X0046809Y0244607D01*
X0046672Y0244235D01*
X0046455Y0243903D01*
X0046170Y0243628D01*
X0045831Y0243423D01*
X0045455Y0243298D01*
X0045060Y0243260D01*
X0044677Y0243307D01*
X0044313Y0243437D01*
X0043988Y0243646D01*
X0043717Y0243921D01*
X0043514Y0244250D01*
X0043390Y0244616D01*
X0043350Y0245000D01*
X0043384Y0245382D01*
X0043502Y0245746D01*
X0043698Y0246075D01*
X0043963Y0246352D01*
X0044282Y0246563D01*
X0044641Y0246698D01*
X0045020Y0246750D01*
X0045421Y0246715D01*
X0045803Y0246592D01*
X0046149Y0246386D01*
X0046440Y0246109D01*
X0046663Y0245774D01*
X0046805Y0245398D01*
X0046860Y0245000D01*
X0046832Y0244784D02*
X0043372Y0244784D01*
X0043375Y0245282D02*
X0046821Y0245282D01*
X0046658Y0245781D02*
X0043523Y0245781D01*
X0043893Y0246279D02*
X0046261Y0246279D01*
X0046690Y0244285D02*
X0043502Y0244285D01*
X0043849Y0243787D02*
X0046335Y0243787D01*
X0045355Y0243288D02*
X0044828Y0243288D01*
X0045050Y0216720D02*
X0045451Y0216685D01*
X0045833Y0216562D01*
X0046179Y0216356D01*
X0046470Y0216079D01*
X0046693Y0215744D01*
X0046835Y0215368D01*
X0046890Y0214970D01*
X0046839Y0214577D01*
X0046702Y0214205D01*
X0046485Y0213873D01*
X0046200Y0213598D01*
X0045861Y0213393D01*
X0045485Y0213268D01*
X0045090Y0213230D01*
X0044707Y0213277D01*
X0044343Y0213407D01*
X0044018Y0213616D01*
X0043747Y0213891D01*
X0043544Y0214220D01*
X0043420Y0214586D01*
X0043380Y0214970D01*
X0043414Y0215352D01*
X0043532Y0215716D01*
X0043728Y0216045D01*
X0043992Y0216322D01*
X0044312Y0216533D01*
X0044670Y0216668D01*
X0045050Y0216720D01*
X0044063Y0216369D02*
X0046158Y0216369D01*
X0046609Y0215870D02*
X0043624Y0215870D01*
X0043420Y0215372D02*
X0046833Y0215372D01*
X0046877Y0214873D02*
X0043390Y0214873D01*
X0043492Y0214375D02*
X0046764Y0214375D01*
X0046487Y0213876D02*
X0043762Y0213876D01*
X0044426Y0213378D02*
X0045816Y0213378D01*
D19*
X0057600Y0245000D03*
X0067600Y0245000D03*
X0097600Y0245000D03*
X0107600Y0245000D03*
D20*
X0287600Y0104843D03*
X0287600Y0085157D03*
D21*
X0267600Y0103000D03*
X0267600Y0066000D03*
D22*
X0277600Y0025000D03*
X0312600Y0060000D03*
X0102600Y0220000D03*
X0077600Y0260000D03*
X0022600Y0220000D03*
D23*
X0127600Y0230000D03*
X0127600Y0245000D03*
X0092600Y0075000D03*
X0092600Y0060000D03*
D24*
X0182600Y0200000D03*
X0215100Y0247500D03*
X0248850Y0212500D03*
X0272600Y0210000D03*
D25*
X0290100Y0113750D03*
M02*
