G75*
%MOIN*%
%OFA0B0*%
%FSLAX25Y25*%
%IPPOS*%
%LPD*%
%AMOC8*
5,1,8,0,0,1.08239X$1,22.5*
%
%ADD10OC8,0.10800*%
%ADD11R,0.10800X0.10800*%
%ADD12C,0.12611*%
%ADD13C,0.08200*%
%ADD14OC8,0.08200*%
%ADD15C,0.13398*%
%ADD16C,0.08400*%
%ADD17OC8,0.07800*%
%ADD18C,0.00500*%
%ADD19OC8,0.07400*%
%ADD20C,0.07300*%
%ADD21C,0.08300*%
%ADD22C,0.07296*%
%ADD23R,0.13461X0.13461*%
%ADD24C,0.05550*%
%ADD25R,0.05550X0.05550*%
D10*
X0017600Y0081700D03*
X0042600Y0081700D03*
X0067600Y0081700D03*
X0127600Y0081700D03*
X0152600Y0081700D03*
X0177600Y0081700D03*
X0202600Y0081700D03*
X0227600Y0081700D03*
X0252600Y0081700D03*
X0252600Y0243300D03*
X0277600Y0243300D03*
X0302600Y0243300D03*
X0227600Y0243300D03*
X0202600Y0243300D03*
X0177600Y0243300D03*
X0152600Y0243300D03*
X0022600Y0243300D03*
D11*
X0022600Y0265000D03*
X0152600Y0265000D03*
X0177600Y0265000D03*
X0202600Y0265000D03*
X0227600Y0265000D03*
X0252600Y0265000D03*
X0277600Y0265000D03*
X0302600Y0265000D03*
X0252600Y0060000D03*
X0227600Y0060000D03*
X0202600Y0060000D03*
X0177600Y0060000D03*
X0152600Y0060000D03*
X0127600Y0060000D03*
X0067600Y0060000D03*
X0042600Y0060000D03*
X0017600Y0060000D03*
D12*
X0017600Y0031260D03*
X0042600Y0031260D03*
X0067600Y0031260D03*
X0127600Y0031260D03*
X0152600Y0031260D03*
X0177600Y0031260D03*
X0202600Y0031260D03*
X0227600Y0031260D03*
X0252600Y0031260D03*
X0252600Y0293740D03*
X0277600Y0293740D03*
X0302600Y0293740D03*
X0227600Y0293740D03*
X0202600Y0293740D03*
X0177600Y0293740D03*
X0152600Y0293740D03*
X0022600Y0293740D03*
D13*
X0041600Y0205000D03*
X0051600Y0205000D03*
X0061600Y0205000D03*
X0071600Y0205000D03*
X0081600Y0205000D03*
X0091600Y0205000D03*
X0101600Y0205000D03*
X0117600Y0205000D03*
X0127600Y0205000D03*
X0137600Y0205000D03*
X0147600Y0205000D03*
X0157600Y0205000D03*
X0167600Y0205000D03*
X0307600Y0205000D03*
X0307600Y0035000D03*
X0317600Y0035000D03*
X0107600Y0015000D03*
X0097600Y0015000D03*
X0087600Y0015000D03*
D14*
X0307600Y0135000D03*
X0307600Y0145000D03*
X0307600Y0155000D03*
X0307600Y0165000D03*
X0307600Y0175000D03*
X0307600Y0185000D03*
X0307600Y0195000D03*
D15*
X0292600Y0205000D03*
X0317600Y0015000D03*
D16*
X0240100Y0065000D03*
X0215100Y0065000D03*
X0190100Y0065000D03*
X0165100Y0065000D03*
X0140100Y0065000D03*
X0115100Y0065000D03*
X0080100Y0065000D03*
X0055100Y0065000D03*
X0030100Y0065000D03*
X0030100Y0105000D03*
X0055100Y0105000D03*
X0080100Y0105000D03*
X0115100Y0105000D03*
X0140100Y0105000D03*
X0165100Y0105000D03*
X0190100Y0105000D03*
X0215100Y0105000D03*
X0240100Y0105000D03*
X0312600Y0213750D03*
X0290100Y0220000D03*
X0265100Y0220000D03*
X0240100Y0220000D03*
X0215100Y0220000D03*
X0190100Y0220000D03*
X0165100Y0220000D03*
X0165100Y0260000D03*
X0190100Y0260000D03*
X0215100Y0260000D03*
X0240100Y0260000D03*
X0265100Y0260000D03*
X0290100Y0260000D03*
X0312600Y0253750D03*
D17*
X0253225Y0190000D03*
X0243850Y0190000D03*
X0234475Y0190000D03*
X0211975Y0180000D03*
X0202600Y0180000D03*
X0193225Y0180000D03*
X0193225Y0160000D03*
X0202600Y0160000D03*
X0211975Y0160000D03*
X0211975Y0140000D03*
X0202600Y0140000D03*
X0193225Y0140000D03*
X0178850Y0143125D03*
X0178850Y0133750D03*
X0178850Y0124375D03*
X0157600Y0124375D03*
X0157600Y0133750D03*
X0157600Y0143125D03*
X0136350Y0143125D03*
X0136350Y0133750D03*
X0136350Y0124375D03*
X0115100Y0124375D03*
X0115100Y0133750D03*
X0115100Y0143125D03*
X0093850Y0143125D03*
X0093850Y0133750D03*
X0093850Y0124375D03*
X0072600Y0124375D03*
X0072600Y0133750D03*
X0072600Y0143125D03*
X0052600Y0143125D03*
X0052600Y0133750D03*
X0052600Y0124375D03*
X0032600Y0124375D03*
X0032600Y0133750D03*
X0032600Y0143125D03*
X0012600Y0143125D03*
X0012600Y0133750D03*
X0012600Y0124375D03*
X0234475Y0130000D03*
X0243850Y0130000D03*
X0253225Y0130000D03*
X0253225Y0150000D03*
X0243850Y0150000D03*
X0234475Y0150000D03*
X0234475Y0170000D03*
X0243850Y0170000D03*
X0253225Y0170000D03*
D18*
X0263830Y0170070D02*
X0263909Y0170789D01*
X0264126Y0171479D01*
X0264474Y0172114D01*
X0264939Y0172668D01*
X0265503Y0173121D01*
X0266145Y0173455D01*
X0266839Y0173657D01*
X0267560Y0173720D01*
X0268285Y0173658D01*
X0268984Y0173457D01*
X0269630Y0173122D01*
X0270198Y0172669D01*
X0270667Y0172113D01*
X0271018Y0171476D01*
X0271239Y0170783D01*
X0271320Y0170060D01*
X0271270Y0169400D01*
X0271106Y0168759D01*
X0270834Y0168156D01*
X0270461Y0167610D01*
X0269999Y0167137D01*
X0269462Y0166751D01*
X0268865Y0166464D01*
X0268228Y0166285D01*
X0267570Y0166220D01*
X0266912Y0166287D01*
X0266275Y0166467D01*
X0265680Y0166756D01*
X0265143Y0167143D01*
X0264682Y0167618D01*
X0264311Y0168165D01*
X0264040Y0168769D01*
X0263878Y0169410D01*
X0263830Y0170070D01*
X0263835Y0170007D02*
X0271316Y0170007D01*
X0271278Y0169509D02*
X0263871Y0169509D01*
X0263979Y0169010D02*
X0271170Y0169010D01*
X0270995Y0168512D02*
X0264155Y0168512D01*
X0264414Y0168013D02*
X0270736Y0168013D01*
X0270368Y0167515D02*
X0264782Y0167515D01*
X0265319Y0167016D02*
X0269831Y0167016D01*
X0268977Y0166518D02*
X0266172Y0166518D01*
X0266839Y0163657D02*
X0267560Y0163720D01*
X0268285Y0163658D01*
X0268984Y0163457D01*
X0269630Y0163122D01*
X0270198Y0162669D01*
X0270667Y0162113D01*
X0271018Y0161476D01*
X0271239Y0160783D01*
X0271320Y0160060D01*
X0271270Y0159400D01*
X0271106Y0158759D01*
X0270834Y0158156D01*
X0270461Y0157610D01*
X0269999Y0157137D01*
X0269462Y0156751D01*
X0268865Y0156464D01*
X0268228Y0156285D01*
X0267570Y0156220D01*
X0266912Y0156287D01*
X0266275Y0156467D01*
X0265680Y0156756D01*
X0265143Y0157143D01*
X0264682Y0157618D01*
X0264311Y0158165D01*
X0264040Y0158769D01*
X0263878Y0159410D01*
X0263830Y0160070D01*
X0263909Y0160789D01*
X0264126Y0161479D01*
X0264474Y0162114D01*
X0264939Y0162668D01*
X0265503Y0163121D01*
X0266145Y0163455D01*
X0266839Y0163657D01*
X0266391Y0163527D02*
X0268742Y0163527D01*
X0269748Y0163028D02*
X0265388Y0163028D01*
X0264823Y0162530D02*
X0270315Y0162530D01*
X0270712Y0162031D02*
X0264429Y0162031D01*
X0264155Y0161533D02*
X0270987Y0161533D01*
X0271159Y0161034D02*
X0263986Y0161034D01*
X0263881Y0160536D02*
X0271266Y0160536D01*
X0271318Y0160037D02*
X0263832Y0160037D01*
X0263869Y0159539D02*
X0271280Y0159539D01*
X0271178Y0159040D02*
X0263971Y0159040D01*
X0264142Y0158541D02*
X0271008Y0158541D01*
X0270757Y0158043D02*
X0264394Y0158043D01*
X0264753Y0157544D02*
X0270397Y0157544D01*
X0269873Y0157046D02*
X0265278Y0157046D01*
X0266110Y0156547D02*
X0269039Y0156547D01*
X0268285Y0153658D02*
X0267560Y0153720D01*
X0266839Y0153657D01*
X0266145Y0153455D01*
X0265503Y0153121D01*
X0264939Y0152668D01*
X0264474Y0152114D01*
X0264126Y0151479D01*
X0263909Y0150789D01*
X0263830Y0150070D01*
X0263878Y0149410D01*
X0264040Y0148769D01*
X0264311Y0148165D01*
X0264682Y0147618D01*
X0265143Y0147143D01*
X0265680Y0146756D01*
X0266275Y0146467D01*
X0266912Y0146287D01*
X0267570Y0146220D01*
X0268228Y0146285D01*
X0268865Y0146464D01*
X0269462Y0146751D01*
X0269999Y0147137D01*
X0270461Y0147610D01*
X0270834Y0148156D01*
X0271106Y0148759D01*
X0271270Y0149400D01*
X0271320Y0150060D01*
X0271239Y0150783D01*
X0271018Y0151476D01*
X0270667Y0152113D01*
X0270198Y0152669D01*
X0269630Y0153122D01*
X0268984Y0153457D01*
X0268285Y0153658D01*
X0268638Y0153556D02*
X0266494Y0153556D01*
X0265425Y0153058D02*
X0269711Y0153058D01*
X0270290Y0152559D02*
X0264848Y0152559D01*
X0264445Y0152061D02*
X0270695Y0152061D01*
X0270971Y0151562D02*
X0264172Y0151562D01*
X0263995Y0151064D02*
X0271149Y0151064D01*
X0271263Y0150565D02*
X0263884Y0150565D01*
X0263830Y0150067D02*
X0271319Y0150067D01*
X0271283Y0149568D02*
X0263866Y0149568D01*
X0263964Y0149070D02*
X0271186Y0149070D01*
X0271022Y0148571D02*
X0264129Y0148571D01*
X0264373Y0148073D02*
X0270777Y0148073D01*
X0270426Y0147574D02*
X0264725Y0147574D01*
X0265237Y0147076D02*
X0269914Y0147076D01*
X0269101Y0146577D02*
X0266049Y0146577D01*
X0266839Y0143657D02*
X0267560Y0143720D01*
X0268285Y0143658D01*
X0268984Y0143457D01*
X0269630Y0143122D01*
X0270198Y0142669D01*
X0270667Y0142113D01*
X0271018Y0141476D01*
X0271239Y0140783D01*
X0271320Y0140060D01*
X0271270Y0139400D01*
X0271106Y0138759D01*
X0270834Y0138156D01*
X0270461Y0137610D01*
X0269999Y0137137D01*
X0269462Y0136751D01*
X0268865Y0136464D01*
X0268228Y0136285D01*
X0267570Y0136220D01*
X0266912Y0136287D01*
X0266275Y0136467D01*
X0265680Y0136756D01*
X0265143Y0137143D01*
X0264682Y0137618D01*
X0264311Y0138165D01*
X0264040Y0138769D01*
X0263878Y0139410D01*
X0263830Y0140070D01*
X0263909Y0140789D01*
X0264126Y0141479D01*
X0264474Y0142114D01*
X0264939Y0142668D01*
X0265503Y0143121D01*
X0266145Y0143455D01*
X0266839Y0143657D01*
X0266596Y0143586D02*
X0268535Y0143586D01*
X0269673Y0143088D02*
X0265462Y0143088D01*
X0264873Y0142589D02*
X0270265Y0142589D01*
X0270679Y0142091D02*
X0264461Y0142091D01*
X0264188Y0141592D02*
X0270954Y0141592D01*
X0271140Y0141094D02*
X0264004Y0141094D01*
X0263887Y0140595D02*
X0271260Y0140595D01*
X0271316Y0140097D02*
X0263833Y0140097D01*
X0263864Y0139598D02*
X0271285Y0139598D01*
X0271193Y0139100D02*
X0263956Y0139100D01*
X0264115Y0138601D02*
X0271035Y0138601D01*
X0270797Y0138103D02*
X0264353Y0138103D01*
X0264696Y0137604D02*
X0270455Y0137604D01*
X0269956Y0137105D02*
X0265195Y0137105D01*
X0265987Y0136607D02*
X0269163Y0136607D01*
X0268285Y0133658D02*
X0267560Y0133720D01*
X0266839Y0133657D01*
X0266145Y0133455D01*
X0265503Y0133121D01*
X0264939Y0132668D01*
X0264474Y0132114D01*
X0264126Y0131479D01*
X0263909Y0130789D01*
X0263830Y0130070D01*
X0263878Y0129410D01*
X0264040Y0128769D01*
X0264311Y0128165D01*
X0264682Y0127618D01*
X0265143Y0127143D01*
X0265680Y0126756D01*
X0266275Y0126467D01*
X0266912Y0126287D01*
X0267570Y0126220D01*
X0268228Y0126285D01*
X0268865Y0126464D01*
X0269462Y0126751D01*
X0269999Y0127137D01*
X0270461Y0127610D01*
X0270834Y0128156D01*
X0271106Y0128759D01*
X0271270Y0129400D01*
X0271320Y0130060D01*
X0271239Y0130783D01*
X0271018Y0131476D01*
X0270667Y0132113D01*
X0270198Y0132669D01*
X0269630Y0133122D01*
X0268984Y0133457D01*
X0268285Y0133658D01*
X0268432Y0133616D02*
X0266698Y0133616D01*
X0265499Y0133117D02*
X0269636Y0133117D01*
X0270240Y0132619D02*
X0264898Y0132619D01*
X0264480Y0132120D02*
X0270660Y0132120D01*
X0270938Y0131622D02*
X0264204Y0131622D01*
X0264014Y0131123D02*
X0271130Y0131123D01*
X0271256Y0130625D02*
X0263891Y0130625D01*
X0263836Y0130126D02*
X0271312Y0130126D01*
X0271287Y0129628D02*
X0263862Y0129628D01*
X0263949Y0129129D02*
X0271201Y0129129D01*
X0271048Y0128631D02*
X0264102Y0128631D01*
X0264333Y0128132D02*
X0270818Y0128132D01*
X0270477Y0127634D02*
X0264671Y0127634D01*
X0265154Y0127135D02*
X0269997Y0127135D01*
X0269225Y0126637D02*
X0265926Y0126637D01*
X0293908Y0129440D02*
X0293860Y0130100D01*
X0293938Y0130819D01*
X0294156Y0131509D01*
X0294504Y0132144D01*
X0294969Y0132698D01*
X0295533Y0133151D01*
X0296175Y0133485D01*
X0296869Y0133687D01*
X0297590Y0133750D01*
X0298315Y0133688D01*
X0299014Y0133487D01*
X0299660Y0133152D01*
X0300228Y0132698D01*
X0300697Y0132142D01*
X0301048Y0131506D01*
X0301269Y0130813D01*
X0301350Y0130090D01*
X0301300Y0129430D01*
X0301136Y0128789D01*
X0300864Y0128186D01*
X0300491Y0127640D01*
X0300029Y0127166D01*
X0299491Y0126781D01*
X0298895Y0126494D01*
X0298258Y0126315D01*
X0297600Y0126250D01*
X0296942Y0126317D01*
X0296305Y0126497D01*
X0295710Y0126786D01*
X0295173Y0127173D01*
X0294712Y0127648D01*
X0294341Y0128195D01*
X0294070Y0128799D01*
X0293908Y0129440D01*
X0293894Y0129628D02*
X0301315Y0129628D01*
X0301345Y0130126D02*
X0293863Y0130126D01*
X0293917Y0130625D02*
X0301290Y0130625D01*
X0301170Y0131123D02*
X0294034Y0131123D01*
X0294218Y0131622D02*
X0300984Y0131622D01*
X0300709Y0132120D02*
X0294491Y0132120D01*
X0294903Y0132619D02*
X0300295Y0132619D01*
X0299703Y0133117D02*
X0295492Y0133117D01*
X0296625Y0133616D02*
X0298566Y0133616D01*
X0298258Y0136315D02*
X0297600Y0136250D01*
X0296942Y0136317D01*
X0296305Y0136497D01*
X0295710Y0136786D01*
X0295173Y0137173D01*
X0294712Y0137648D01*
X0294341Y0138195D01*
X0294070Y0138799D01*
X0293908Y0139440D01*
X0293860Y0140100D01*
X0293938Y0140819D01*
X0294156Y0141509D01*
X0294504Y0142144D01*
X0294969Y0142698D01*
X0295533Y0143151D01*
X0296175Y0143485D01*
X0296869Y0143687D01*
X0297590Y0143750D01*
X0298315Y0143688D01*
X0299014Y0143487D01*
X0299660Y0143152D01*
X0300228Y0142698D01*
X0300697Y0142142D01*
X0301048Y0141506D01*
X0301269Y0140813D01*
X0301350Y0140090D01*
X0301300Y0139430D01*
X0301136Y0138789D01*
X0300864Y0138186D01*
X0300491Y0137640D01*
X0300029Y0137166D01*
X0299491Y0136781D01*
X0298895Y0136494D01*
X0298258Y0136315D01*
X0299131Y0136607D02*
X0296079Y0136607D01*
X0295267Y0137105D02*
X0299944Y0137105D01*
X0300456Y0137604D02*
X0294755Y0137604D01*
X0294404Y0138103D02*
X0300807Y0138103D01*
X0301051Y0138601D02*
X0294159Y0138601D01*
X0293994Y0139100D02*
X0301216Y0139100D01*
X0301313Y0139598D02*
X0293896Y0139598D01*
X0293860Y0140097D02*
X0301349Y0140097D01*
X0301293Y0140595D02*
X0293914Y0140595D01*
X0294025Y0141094D02*
X0301179Y0141094D01*
X0301001Y0141592D02*
X0294201Y0141592D01*
X0294475Y0142091D02*
X0300725Y0142091D01*
X0300320Y0142589D02*
X0294878Y0142589D01*
X0295455Y0143088D02*
X0299741Y0143088D01*
X0298669Y0143586D02*
X0296523Y0143586D01*
X0296942Y0146317D02*
X0296305Y0146497D01*
X0295710Y0146786D01*
X0295173Y0147173D01*
X0294712Y0147648D01*
X0294341Y0148195D01*
X0294070Y0148799D01*
X0293908Y0149440D01*
X0293860Y0150100D01*
X0293938Y0150819D01*
X0294156Y0151509D01*
X0294504Y0152144D01*
X0294969Y0152698D01*
X0295533Y0153151D01*
X0296175Y0153485D01*
X0296869Y0153687D01*
X0297590Y0153750D01*
X0298315Y0153688D01*
X0299014Y0153487D01*
X0299660Y0153152D01*
X0300228Y0152698D01*
X0300697Y0152142D01*
X0301048Y0151506D01*
X0301269Y0150813D01*
X0301350Y0150090D01*
X0301300Y0149430D01*
X0301136Y0148789D01*
X0300864Y0148186D01*
X0300491Y0147640D01*
X0300029Y0147166D01*
X0299491Y0146781D01*
X0298895Y0146494D01*
X0298258Y0146315D01*
X0297600Y0146250D01*
X0296942Y0146317D01*
X0296140Y0146577D02*
X0299069Y0146577D01*
X0299903Y0147076D02*
X0295308Y0147076D01*
X0294784Y0147574D02*
X0300427Y0147574D01*
X0300787Y0148073D02*
X0294424Y0148073D01*
X0294172Y0148571D02*
X0301038Y0148571D01*
X0301208Y0149070D02*
X0294001Y0149070D01*
X0293899Y0149568D02*
X0301310Y0149568D01*
X0301348Y0150067D02*
X0293862Y0150067D01*
X0293911Y0150565D02*
X0301296Y0150565D01*
X0301189Y0151064D02*
X0294016Y0151064D01*
X0294185Y0151562D02*
X0301017Y0151562D01*
X0300742Y0152061D02*
X0294458Y0152061D01*
X0294853Y0152559D02*
X0300345Y0152559D01*
X0299778Y0153058D02*
X0295417Y0153058D01*
X0296421Y0153556D02*
X0298772Y0153556D01*
X0298258Y0156315D02*
X0297600Y0156250D01*
X0296942Y0156317D01*
X0296305Y0156497D01*
X0295710Y0156786D01*
X0295173Y0157173D01*
X0294712Y0157648D01*
X0294341Y0158195D01*
X0294070Y0158799D01*
X0293908Y0159440D01*
X0293860Y0160100D01*
X0293938Y0160819D01*
X0294156Y0161509D01*
X0294504Y0162144D01*
X0294969Y0162698D01*
X0295533Y0163151D01*
X0296175Y0163485D01*
X0296869Y0163687D01*
X0297590Y0163750D01*
X0298315Y0163688D01*
X0299014Y0163487D01*
X0299660Y0163152D01*
X0300228Y0162698D01*
X0300697Y0162142D01*
X0301048Y0161506D01*
X0301269Y0160813D01*
X0301350Y0160090D01*
X0301300Y0159430D01*
X0301136Y0158789D01*
X0300864Y0158186D01*
X0300491Y0157640D01*
X0300029Y0157166D01*
X0299491Y0156781D01*
X0298895Y0156494D01*
X0298258Y0156315D01*
X0299007Y0156547D02*
X0296202Y0156547D01*
X0295349Y0157046D02*
X0299861Y0157046D01*
X0300398Y0157544D02*
X0294812Y0157544D01*
X0294444Y0158043D02*
X0300766Y0158043D01*
X0301024Y0158541D02*
X0294185Y0158541D01*
X0294009Y0159040D02*
X0301200Y0159040D01*
X0301308Y0159539D02*
X0293901Y0159539D01*
X0293864Y0160037D02*
X0301346Y0160037D01*
X0301300Y0160536D02*
X0293907Y0160536D01*
X0294006Y0161034D02*
X0301198Y0161034D01*
X0301033Y0161533D02*
X0294169Y0161533D01*
X0294442Y0162031D02*
X0300758Y0162031D01*
X0300370Y0162530D02*
X0294828Y0162530D01*
X0295380Y0163028D02*
X0299815Y0163028D01*
X0298875Y0163527D02*
X0296319Y0163527D01*
X0296942Y0166317D02*
X0296305Y0166497D01*
X0295710Y0166786D01*
X0295173Y0167173D01*
X0294712Y0167648D01*
X0294341Y0168195D01*
X0294070Y0168799D01*
X0293908Y0169440D01*
X0293860Y0170100D01*
X0293938Y0170819D01*
X0294156Y0171509D01*
X0294504Y0172144D01*
X0294969Y0172698D01*
X0295533Y0173151D01*
X0296175Y0173485D01*
X0296869Y0173687D01*
X0297590Y0173750D01*
X0298315Y0173688D01*
X0299014Y0173487D01*
X0299660Y0173152D01*
X0300228Y0172698D01*
X0300697Y0172142D01*
X0301048Y0171506D01*
X0301269Y0170813D01*
X0301350Y0170090D01*
X0301300Y0169430D01*
X0301136Y0168789D01*
X0300864Y0168186D01*
X0300491Y0167640D01*
X0300029Y0167166D01*
X0299491Y0166781D01*
X0298895Y0166494D01*
X0298258Y0166315D01*
X0297600Y0166250D01*
X0296942Y0166317D01*
X0296263Y0166518D02*
X0298945Y0166518D01*
X0299820Y0167016D02*
X0295390Y0167016D01*
X0294841Y0167515D02*
X0300369Y0167515D01*
X0300746Y0168013D02*
X0294464Y0168013D01*
X0294199Y0168512D02*
X0301011Y0168512D01*
X0301193Y0169010D02*
X0294016Y0169010D01*
X0293903Y0169509D02*
X0301306Y0169509D01*
X0301343Y0170007D02*
X0293867Y0170007D01*
X0293904Y0170506D02*
X0301303Y0170506D01*
X0301208Y0171004D02*
X0293997Y0171004D01*
X0294154Y0171503D02*
X0301049Y0171503D01*
X0300775Y0172001D02*
X0294426Y0172001D01*
X0294803Y0172500D02*
X0300395Y0172500D01*
X0299852Y0172998D02*
X0295343Y0172998D01*
X0296216Y0173497D02*
X0298978Y0173497D01*
X0298258Y0176315D02*
X0298895Y0176494D01*
X0299491Y0176781D01*
X0300029Y0177166D01*
X0300491Y0177640D01*
X0300864Y0178186D01*
X0301136Y0178789D01*
X0301300Y0179430D01*
X0301350Y0180090D01*
X0301269Y0180813D01*
X0301048Y0181506D01*
X0300697Y0182142D01*
X0300228Y0182698D01*
X0299660Y0183152D01*
X0299014Y0183487D01*
X0298315Y0183688D01*
X0297590Y0183750D01*
X0296869Y0183687D01*
X0296175Y0183485D01*
X0295533Y0183151D01*
X0294969Y0182698D01*
X0294504Y0182144D01*
X0294156Y0181509D01*
X0293938Y0180819D01*
X0293860Y0180100D01*
X0293908Y0179440D01*
X0294070Y0178799D01*
X0294341Y0178195D01*
X0294712Y0177648D01*
X0295173Y0177173D01*
X0295710Y0176786D01*
X0296305Y0176497D01*
X0296942Y0176317D01*
X0297600Y0176250D01*
X0298258Y0176315D01*
X0298874Y0176488D02*
X0296339Y0176488D01*
X0295432Y0176986D02*
X0299778Y0176986D01*
X0300340Y0177485D02*
X0294870Y0177485D01*
X0294484Y0177983D02*
X0300726Y0177983D01*
X0300998Y0178482D02*
X0294212Y0178482D01*
X0294024Y0178980D02*
X0301185Y0178980D01*
X0301304Y0179479D02*
X0293905Y0179479D01*
X0293869Y0179977D02*
X0301341Y0179977D01*
X0301306Y0180476D02*
X0293901Y0180476D01*
X0293987Y0180974D02*
X0301217Y0180974D01*
X0301059Y0181473D02*
X0294144Y0181473D01*
X0294409Y0181972D02*
X0300791Y0181972D01*
X0300421Y0182470D02*
X0294778Y0182470D01*
X0295306Y0182969D02*
X0299890Y0182969D01*
X0299051Y0183467D02*
X0296141Y0183467D01*
X0296942Y0186317D02*
X0296305Y0186497D01*
X0295710Y0186786D01*
X0295173Y0187173D01*
X0294712Y0187648D01*
X0294341Y0188195D01*
X0294070Y0188799D01*
X0293908Y0189440D01*
X0293860Y0190100D01*
X0293938Y0190819D01*
X0294156Y0191509D01*
X0294504Y0192144D01*
X0294969Y0192698D01*
X0295533Y0193151D01*
X0296175Y0193485D01*
X0296869Y0193687D01*
X0297590Y0193750D01*
X0298315Y0193688D01*
X0299014Y0193487D01*
X0299660Y0193152D01*
X0300228Y0192698D01*
X0300697Y0192142D01*
X0301048Y0191506D01*
X0301269Y0190813D01*
X0301350Y0190090D01*
X0301300Y0189430D01*
X0301136Y0188789D01*
X0300864Y0188186D01*
X0300491Y0187640D01*
X0300029Y0187166D01*
X0299491Y0186781D01*
X0298895Y0186494D01*
X0298258Y0186315D01*
X0297600Y0186250D01*
X0296942Y0186317D01*
X0296444Y0186458D02*
X0298768Y0186458D01*
X0299737Y0186957D02*
X0295473Y0186957D01*
X0294899Y0187455D02*
X0300311Y0187455D01*
X0300705Y0187954D02*
X0294505Y0187954D01*
X0294225Y0188452D02*
X0300984Y0188452D01*
X0301178Y0188951D02*
X0294031Y0188951D01*
X0293907Y0189449D02*
X0301301Y0189449D01*
X0301339Y0189948D02*
X0293871Y0189948D01*
X0293898Y0190446D02*
X0301310Y0190446D01*
X0301227Y0190945D02*
X0293978Y0190945D01*
X0294135Y0191443D02*
X0301068Y0191443D01*
X0300808Y0191942D02*
X0294393Y0191942D01*
X0294753Y0192440D02*
X0300446Y0192440D01*
X0299927Y0192939D02*
X0295269Y0192939D01*
X0296084Y0193437D02*
X0299109Y0193437D01*
X0271276Y0190446D02*
X0263871Y0190446D01*
X0263909Y0190789D02*
X0264126Y0191479D01*
X0264474Y0192114D01*
X0264939Y0192668D01*
X0265503Y0193121D01*
X0266145Y0193455D01*
X0266839Y0193657D01*
X0267560Y0193720D01*
X0268285Y0193658D01*
X0268984Y0193457D01*
X0269630Y0193122D01*
X0270198Y0192669D01*
X0270667Y0192113D01*
X0271018Y0191476D01*
X0271239Y0190783D01*
X0271320Y0190060D01*
X0271270Y0189400D01*
X0271106Y0188759D01*
X0270834Y0188156D01*
X0270461Y0187610D01*
X0269999Y0187137D01*
X0269462Y0186751D01*
X0268865Y0186464D01*
X0268228Y0186285D01*
X0267570Y0186220D01*
X0266912Y0186287D01*
X0266275Y0186467D01*
X0265680Y0186756D01*
X0265143Y0187143D01*
X0264682Y0187618D01*
X0264311Y0188165D01*
X0264040Y0188769D01*
X0263878Y0189410D01*
X0263830Y0190070D01*
X0263909Y0190789D01*
X0263958Y0190945D02*
X0271187Y0190945D01*
X0271029Y0191443D02*
X0264115Y0191443D01*
X0264380Y0191942D02*
X0270761Y0191942D01*
X0270391Y0192440D02*
X0264748Y0192440D01*
X0265276Y0192939D02*
X0269860Y0192939D01*
X0269021Y0193437D02*
X0266111Y0193437D01*
X0263839Y0189948D02*
X0271311Y0189948D01*
X0271274Y0189449D02*
X0263875Y0189449D01*
X0263994Y0188951D02*
X0271155Y0188951D01*
X0270968Y0188452D02*
X0264182Y0188452D01*
X0264454Y0187954D02*
X0270696Y0187954D01*
X0270310Y0187455D02*
X0264840Y0187455D01*
X0265402Y0186957D02*
X0269748Y0186957D01*
X0268845Y0186458D02*
X0266308Y0186458D01*
X0266839Y0183657D02*
X0267560Y0183720D01*
X0268285Y0183658D01*
X0268984Y0183457D01*
X0269630Y0183122D01*
X0270198Y0182669D01*
X0270667Y0182113D01*
X0271018Y0181476D01*
X0271239Y0180783D01*
X0271320Y0180060D01*
X0271270Y0179400D01*
X0271106Y0178759D01*
X0270834Y0178156D01*
X0270461Y0177610D01*
X0269999Y0177137D01*
X0269462Y0176751D01*
X0268865Y0176464D01*
X0268228Y0176285D01*
X0267570Y0176220D01*
X0266912Y0176287D01*
X0266275Y0176467D01*
X0265680Y0176756D01*
X0265143Y0177143D01*
X0264682Y0177618D01*
X0264311Y0178165D01*
X0264040Y0178769D01*
X0263878Y0179410D01*
X0263830Y0180070D01*
X0263909Y0180789D01*
X0264126Y0181479D01*
X0264474Y0182114D01*
X0264939Y0182668D01*
X0265503Y0183121D01*
X0266145Y0183455D01*
X0266839Y0183657D01*
X0266187Y0183467D02*
X0268948Y0183467D01*
X0269822Y0182969D02*
X0265314Y0182969D01*
X0264773Y0182470D02*
X0270365Y0182470D01*
X0270745Y0181972D02*
X0264396Y0181972D01*
X0264124Y0181473D02*
X0271019Y0181473D01*
X0271178Y0180974D02*
X0263967Y0180974D01*
X0263874Y0180476D02*
X0271273Y0180476D01*
X0271313Y0179977D02*
X0263837Y0179977D01*
X0263873Y0179479D02*
X0271276Y0179479D01*
X0271163Y0178980D02*
X0263987Y0178980D01*
X0264169Y0178482D02*
X0270981Y0178482D01*
X0270716Y0177983D02*
X0264434Y0177983D01*
X0264811Y0177485D02*
X0270339Y0177485D01*
X0269790Y0176986D02*
X0265360Y0176986D01*
X0266233Y0176488D02*
X0268915Y0176488D01*
X0268845Y0173497D02*
X0266289Y0173497D01*
X0265351Y0172998D02*
X0269785Y0172998D01*
X0270340Y0172500D02*
X0264798Y0172500D01*
X0264412Y0172001D02*
X0270728Y0172001D01*
X0271003Y0171503D02*
X0264139Y0171503D01*
X0263976Y0171004D02*
X0271168Y0171004D01*
X0271270Y0170506D02*
X0263878Y0170506D01*
X0293986Y0129129D02*
X0301223Y0129129D01*
X0301065Y0128631D02*
X0294145Y0128631D01*
X0294383Y0128132D02*
X0300827Y0128132D01*
X0300485Y0127634D02*
X0294726Y0127634D01*
X0295226Y0127135D02*
X0299985Y0127135D01*
X0299192Y0126637D02*
X0296017Y0126637D01*
X0171133Y0163675D02*
X0170844Y0163080D01*
X0170457Y0162543D01*
X0169982Y0162082D01*
X0169435Y0161711D01*
X0168831Y0161440D01*
X0168190Y0161278D01*
X0167530Y0161230D01*
X0166811Y0161309D01*
X0166121Y0161526D01*
X0165486Y0161874D01*
X0164932Y0162339D01*
X0164479Y0162903D01*
X0164145Y0163545D01*
X0163943Y0164239D01*
X0163880Y0164960D01*
X0163942Y0165685D01*
X0164143Y0166384D01*
X0164478Y0167030D01*
X0164931Y0167598D01*
X0165487Y0168067D01*
X0166124Y0168418D01*
X0166817Y0168639D01*
X0167540Y0168720D01*
X0168200Y0168670D01*
X0168841Y0168506D01*
X0169444Y0168234D01*
X0169990Y0167861D01*
X0170463Y0167399D01*
X0170849Y0166862D01*
X0171136Y0166265D01*
X0171315Y0165628D01*
X0171380Y0164970D01*
X0171313Y0164312D01*
X0171133Y0163675D01*
X0171061Y0163527D02*
X0164155Y0163527D01*
X0164005Y0164025D02*
X0171232Y0164025D01*
X0171335Y0164524D02*
X0163918Y0164524D01*
X0163885Y0165022D02*
X0171375Y0165022D01*
X0171326Y0165521D02*
X0163928Y0165521D01*
X0164038Y0166019D02*
X0171205Y0166019D01*
X0171015Y0166518D02*
X0164213Y0166518D01*
X0164471Y0167016D02*
X0170738Y0167016D01*
X0170345Y0167515D02*
X0164865Y0167515D01*
X0165424Y0168013D02*
X0169767Y0168013D01*
X0168820Y0168512D02*
X0166418Y0168512D01*
X0161136Y0166265D02*
X0161315Y0165628D01*
X0161380Y0164970D01*
X0161313Y0164312D01*
X0161133Y0163675D01*
X0160844Y0163080D01*
X0160457Y0162543D01*
X0159982Y0162082D01*
X0159435Y0161711D01*
X0158831Y0161440D01*
X0158190Y0161278D01*
X0157530Y0161230D01*
X0156811Y0161309D01*
X0156121Y0161526D01*
X0155486Y0161874D01*
X0154932Y0162339D01*
X0154479Y0162903D01*
X0154145Y0163545D01*
X0153943Y0164239D01*
X0153880Y0164960D01*
X0153942Y0165685D01*
X0154143Y0166384D01*
X0154478Y0167030D01*
X0154931Y0167598D01*
X0155487Y0168067D01*
X0156124Y0168418D01*
X0156817Y0168639D01*
X0157540Y0168720D01*
X0158200Y0168670D01*
X0158841Y0168506D01*
X0159444Y0168234D01*
X0159990Y0167861D01*
X0160463Y0167399D01*
X0160849Y0166862D01*
X0161136Y0166265D01*
X0161205Y0166019D02*
X0154038Y0166019D01*
X0153928Y0165521D02*
X0161326Y0165521D01*
X0161375Y0165022D02*
X0153885Y0165022D01*
X0153918Y0164524D02*
X0161335Y0164524D01*
X0161232Y0164025D02*
X0154005Y0164025D01*
X0154155Y0163527D02*
X0161061Y0163527D01*
X0160807Y0163028D02*
X0154414Y0163028D01*
X0154779Y0162530D02*
X0160443Y0162530D01*
X0159907Y0162031D02*
X0155299Y0162031D01*
X0156109Y0161533D02*
X0159038Y0161533D01*
X0161015Y0166518D02*
X0154213Y0166518D01*
X0154471Y0167016D02*
X0160738Y0167016D01*
X0160345Y0167515D02*
X0154865Y0167515D01*
X0155424Y0168013D02*
X0159767Y0168013D01*
X0158820Y0168512D02*
X0156418Y0168512D01*
X0151136Y0166265D02*
X0151315Y0165628D01*
X0151380Y0164970D01*
X0151313Y0164312D01*
X0151133Y0163675D01*
X0150844Y0163080D01*
X0150457Y0162543D01*
X0149982Y0162082D01*
X0149435Y0161711D01*
X0148831Y0161440D01*
X0148190Y0161278D01*
X0147530Y0161230D01*
X0146811Y0161309D01*
X0146121Y0161526D01*
X0145486Y0161874D01*
X0144932Y0162339D01*
X0144479Y0162903D01*
X0144145Y0163545D01*
X0143943Y0164239D01*
X0143880Y0164960D01*
X0143942Y0165685D01*
X0144143Y0166384D01*
X0144478Y0167030D01*
X0144931Y0167598D01*
X0145487Y0168067D01*
X0146124Y0168418D01*
X0146817Y0168639D01*
X0147540Y0168720D01*
X0148200Y0168670D01*
X0148841Y0168506D01*
X0149444Y0168234D01*
X0149990Y0167861D01*
X0150463Y0167399D01*
X0150849Y0166862D01*
X0151136Y0166265D01*
X0151205Y0166019D02*
X0144038Y0166019D01*
X0143928Y0165521D02*
X0151326Y0165521D01*
X0151375Y0165022D02*
X0143885Y0165022D01*
X0143918Y0164524D02*
X0151335Y0164524D01*
X0151232Y0164025D02*
X0144005Y0164025D01*
X0144155Y0163527D02*
X0151061Y0163527D01*
X0150807Y0163028D02*
X0144414Y0163028D01*
X0144779Y0162530D02*
X0150443Y0162530D01*
X0149907Y0162031D02*
X0145299Y0162031D01*
X0146109Y0161533D02*
X0149038Y0161533D01*
X0151015Y0166518D02*
X0144213Y0166518D01*
X0144471Y0167016D02*
X0150738Y0167016D01*
X0150345Y0167515D02*
X0144865Y0167515D01*
X0145424Y0168013D02*
X0149767Y0168013D01*
X0148820Y0168512D02*
X0146418Y0168512D01*
X0141136Y0166265D02*
X0141315Y0165628D01*
X0141380Y0164970D01*
X0141313Y0164312D01*
X0141133Y0163675D01*
X0140844Y0163080D01*
X0140457Y0162543D01*
X0139982Y0162082D01*
X0139435Y0161711D01*
X0138831Y0161440D01*
X0138190Y0161278D01*
X0137530Y0161230D01*
X0136811Y0161309D01*
X0136121Y0161526D01*
X0135486Y0161874D01*
X0134932Y0162339D01*
X0134479Y0162903D01*
X0134145Y0163545D01*
X0133943Y0164239D01*
X0133880Y0164960D01*
X0133942Y0165685D01*
X0134143Y0166384D01*
X0134478Y0167030D01*
X0134931Y0167598D01*
X0135487Y0168067D01*
X0136124Y0168418D01*
X0136817Y0168639D01*
X0137540Y0168720D01*
X0138200Y0168670D01*
X0138841Y0168506D01*
X0139444Y0168234D01*
X0139990Y0167861D01*
X0140463Y0167399D01*
X0140849Y0166862D01*
X0141136Y0166265D01*
X0141205Y0166019D02*
X0134038Y0166019D01*
X0133928Y0165521D02*
X0141326Y0165521D01*
X0141375Y0165022D02*
X0133885Y0165022D01*
X0133918Y0164524D02*
X0141335Y0164524D01*
X0141232Y0164025D02*
X0134005Y0164025D01*
X0134155Y0163527D02*
X0141061Y0163527D01*
X0140807Y0163028D02*
X0134414Y0163028D01*
X0134779Y0162530D02*
X0140443Y0162530D01*
X0139907Y0162031D02*
X0135299Y0162031D01*
X0136109Y0161533D02*
X0139038Y0161533D01*
X0141015Y0166518D02*
X0134213Y0166518D01*
X0134471Y0167016D02*
X0140738Y0167016D01*
X0140345Y0167515D02*
X0134865Y0167515D01*
X0135424Y0168013D02*
X0139767Y0168013D01*
X0138820Y0168512D02*
X0136418Y0168512D01*
X0131136Y0166265D02*
X0131315Y0165628D01*
X0131380Y0164970D01*
X0131313Y0164312D01*
X0131133Y0163675D01*
X0130844Y0163080D01*
X0130457Y0162543D01*
X0129982Y0162082D01*
X0129435Y0161711D01*
X0128831Y0161440D01*
X0128190Y0161278D01*
X0127530Y0161230D01*
X0126811Y0161309D01*
X0126121Y0161526D01*
X0125486Y0161874D01*
X0124932Y0162339D01*
X0124479Y0162903D01*
X0124145Y0163545D01*
X0123943Y0164239D01*
X0123880Y0164960D01*
X0123942Y0165685D01*
X0124143Y0166384D01*
X0124478Y0167030D01*
X0124931Y0167598D01*
X0125487Y0168067D01*
X0126124Y0168418D01*
X0126817Y0168639D01*
X0127540Y0168720D01*
X0128200Y0168670D01*
X0128841Y0168506D01*
X0129444Y0168234D01*
X0129990Y0167861D01*
X0130463Y0167399D01*
X0130849Y0166862D01*
X0131136Y0166265D01*
X0131205Y0166019D02*
X0124038Y0166019D01*
X0123928Y0165521D02*
X0131326Y0165521D01*
X0131375Y0165022D02*
X0123885Y0165022D01*
X0123918Y0164524D02*
X0131335Y0164524D01*
X0131232Y0164025D02*
X0124005Y0164025D01*
X0124155Y0163527D02*
X0131061Y0163527D01*
X0130807Y0163028D02*
X0124414Y0163028D01*
X0124779Y0162530D02*
X0130443Y0162530D01*
X0129907Y0162031D02*
X0125299Y0162031D01*
X0126109Y0161533D02*
X0129038Y0161533D01*
X0131015Y0166518D02*
X0124213Y0166518D01*
X0124471Y0167016D02*
X0130738Y0167016D01*
X0130345Y0167515D02*
X0124865Y0167515D01*
X0125424Y0168013D02*
X0129767Y0168013D01*
X0128820Y0168512D02*
X0126418Y0168512D01*
X0121136Y0166265D02*
X0121315Y0165628D01*
X0121380Y0164970D01*
X0121313Y0164312D01*
X0121133Y0163675D01*
X0120844Y0163080D01*
X0120457Y0162543D01*
X0119982Y0162082D01*
X0119435Y0161711D01*
X0118831Y0161440D01*
X0118190Y0161278D01*
X0117530Y0161230D01*
X0116811Y0161309D01*
X0116121Y0161526D01*
X0115486Y0161874D01*
X0114932Y0162339D01*
X0114479Y0162903D01*
X0114145Y0163545D01*
X0113943Y0164239D01*
X0113880Y0164960D01*
X0113942Y0165685D01*
X0114143Y0166384D01*
X0114478Y0167030D01*
X0114931Y0167598D01*
X0115487Y0168067D01*
X0116124Y0168418D01*
X0116817Y0168639D01*
X0117540Y0168720D01*
X0118200Y0168670D01*
X0118841Y0168506D01*
X0119444Y0168234D01*
X0119990Y0167861D01*
X0120463Y0167399D01*
X0120849Y0166862D01*
X0121136Y0166265D01*
X0121205Y0166019D02*
X0114038Y0166019D01*
X0113928Y0165521D02*
X0121326Y0165521D01*
X0121375Y0165022D02*
X0113885Y0165022D01*
X0113918Y0164524D02*
X0121335Y0164524D01*
X0121232Y0164025D02*
X0114005Y0164025D01*
X0114155Y0163527D02*
X0121061Y0163527D01*
X0120807Y0163028D02*
X0114414Y0163028D01*
X0114779Y0162530D02*
X0120443Y0162530D01*
X0119907Y0162031D02*
X0115299Y0162031D01*
X0116109Y0161533D02*
X0119038Y0161533D01*
X0121015Y0166518D02*
X0114213Y0166518D01*
X0114471Y0167016D02*
X0120738Y0167016D01*
X0120345Y0167515D02*
X0114865Y0167515D01*
X0115424Y0168013D02*
X0119767Y0168013D01*
X0118820Y0168512D02*
X0116418Y0168512D01*
X0106315Y0165628D02*
X0106380Y0164970D01*
X0106313Y0164312D01*
X0106133Y0163675D01*
X0105844Y0163080D01*
X0105457Y0162543D01*
X0104982Y0162082D01*
X0104435Y0161711D01*
X0103831Y0161440D01*
X0103190Y0161278D01*
X0102530Y0161230D01*
X0101811Y0161309D01*
X0101121Y0161526D01*
X0100486Y0161874D01*
X0099932Y0162339D01*
X0099479Y0162903D01*
X0099145Y0163545D01*
X0098943Y0164239D01*
X0098880Y0164960D01*
X0098942Y0165685D01*
X0099143Y0166384D01*
X0099478Y0167030D01*
X0099931Y0167598D01*
X0100487Y0168067D01*
X0101124Y0168418D01*
X0101817Y0168639D01*
X0102540Y0168720D01*
X0103200Y0168670D01*
X0103841Y0168506D01*
X0104444Y0168234D01*
X0104990Y0167861D01*
X0105463Y0167399D01*
X0105849Y0166862D01*
X0106136Y0166265D01*
X0106315Y0165628D01*
X0106326Y0165521D02*
X0098928Y0165521D01*
X0098885Y0165022D02*
X0106375Y0165022D01*
X0106335Y0164524D02*
X0098918Y0164524D01*
X0099005Y0164025D02*
X0106232Y0164025D01*
X0106061Y0163527D02*
X0099155Y0163527D01*
X0099414Y0163028D02*
X0105807Y0163028D01*
X0105443Y0162530D02*
X0099779Y0162530D01*
X0100299Y0162031D02*
X0104907Y0162031D01*
X0104038Y0161533D02*
X0101109Y0161533D01*
X0099038Y0166019D02*
X0106205Y0166019D01*
X0106015Y0166518D02*
X0099213Y0166518D01*
X0099471Y0167016D02*
X0105738Y0167016D01*
X0105345Y0167515D02*
X0099865Y0167515D01*
X0100424Y0168013D02*
X0104767Y0168013D01*
X0103820Y0168512D02*
X0101418Y0168512D01*
X0096136Y0166265D02*
X0096315Y0165628D01*
X0096380Y0164970D01*
X0096313Y0164312D01*
X0096133Y0163675D01*
X0095844Y0163080D01*
X0095457Y0162543D01*
X0094982Y0162082D01*
X0094435Y0161711D01*
X0093831Y0161440D01*
X0093190Y0161278D01*
X0092530Y0161230D01*
X0091811Y0161309D01*
X0091121Y0161526D01*
X0090486Y0161874D01*
X0089932Y0162339D01*
X0089479Y0162903D01*
X0089145Y0163545D01*
X0088943Y0164239D01*
X0088880Y0164960D01*
X0088942Y0165685D01*
X0089143Y0166384D01*
X0089478Y0167030D01*
X0089931Y0167598D01*
X0090487Y0168067D01*
X0091124Y0168418D01*
X0091817Y0168639D01*
X0092540Y0168720D01*
X0093200Y0168670D01*
X0093841Y0168506D01*
X0094444Y0168234D01*
X0094990Y0167861D01*
X0095463Y0167399D01*
X0095849Y0166862D01*
X0096136Y0166265D01*
X0096205Y0166019D02*
X0089038Y0166019D01*
X0088928Y0165521D02*
X0096326Y0165521D01*
X0096375Y0165022D02*
X0088885Y0165022D01*
X0088918Y0164524D02*
X0096335Y0164524D01*
X0096232Y0164025D02*
X0089005Y0164025D01*
X0089155Y0163527D02*
X0096061Y0163527D01*
X0095807Y0163028D02*
X0089414Y0163028D01*
X0089779Y0162530D02*
X0095443Y0162530D01*
X0094907Y0162031D02*
X0090299Y0162031D01*
X0091109Y0161533D02*
X0094038Y0161533D01*
X0096015Y0166518D02*
X0089213Y0166518D01*
X0089471Y0167016D02*
X0095738Y0167016D01*
X0095345Y0167515D02*
X0089865Y0167515D01*
X0090424Y0168013D02*
X0094767Y0168013D01*
X0093820Y0168512D02*
X0091418Y0168512D01*
X0086136Y0166265D02*
X0086315Y0165628D01*
X0086380Y0164970D01*
X0086313Y0164312D01*
X0086133Y0163675D01*
X0085844Y0163080D01*
X0085457Y0162543D01*
X0084982Y0162082D01*
X0084435Y0161711D01*
X0083831Y0161440D01*
X0083190Y0161278D01*
X0082530Y0161230D01*
X0081811Y0161309D01*
X0081121Y0161526D01*
X0080486Y0161874D01*
X0079932Y0162339D01*
X0079479Y0162903D01*
X0079145Y0163545D01*
X0078943Y0164239D01*
X0078880Y0164960D01*
X0078942Y0165685D01*
X0079143Y0166384D01*
X0079478Y0167030D01*
X0079931Y0167598D01*
X0080487Y0168067D01*
X0081124Y0168418D01*
X0081817Y0168639D01*
X0082540Y0168720D01*
X0083200Y0168670D01*
X0083841Y0168506D01*
X0084444Y0168234D01*
X0084990Y0167861D01*
X0085463Y0167399D01*
X0085849Y0166862D01*
X0086136Y0166265D01*
X0086205Y0166019D02*
X0079038Y0166019D01*
X0078928Y0165521D02*
X0086326Y0165521D01*
X0086375Y0165022D02*
X0078885Y0165022D01*
X0078918Y0164524D02*
X0086335Y0164524D01*
X0086232Y0164025D02*
X0079005Y0164025D01*
X0079155Y0163527D02*
X0086061Y0163527D01*
X0085807Y0163028D02*
X0079414Y0163028D01*
X0079779Y0162530D02*
X0085443Y0162530D01*
X0084907Y0162031D02*
X0080299Y0162031D01*
X0081109Y0161533D02*
X0084038Y0161533D01*
X0086015Y0166518D02*
X0079213Y0166518D01*
X0079471Y0167016D02*
X0085738Y0167016D01*
X0085345Y0167515D02*
X0079865Y0167515D01*
X0080424Y0168013D02*
X0084767Y0168013D01*
X0083820Y0168512D02*
X0081418Y0168512D01*
X0082500Y0191260D02*
X0081781Y0191338D01*
X0081091Y0191556D01*
X0080456Y0191904D01*
X0079902Y0192369D01*
X0079449Y0192933D01*
X0079115Y0193575D01*
X0078913Y0194269D01*
X0078850Y0194990D01*
X0078912Y0195715D01*
X0079113Y0196414D01*
X0079448Y0197060D01*
X0079902Y0197628D01*
X0080458Y0198097D01*
X0081094Y0198448D01*
X0081787Y0198669D01*
X0082510Y0198750D01*
X0083170Y0198700D01*
X0083811Y0198536D01*
X0084414Y0198264D01*
X0084960Y0197891D01*
X0085434Y0197429D01*
X0085819Y0196891D01*
X0086106Y0196295D01*
X0086285Y0195658D01*
X0086350Y0195000D01*
X0086283Y0194342D01*
X0086103Y0193705D01*
X0085814Y0193110D01*
X0085427Y0192573D01*
X0084952Y0192112D01*
X0084405Y0191741D01*
X0083801Y0191470D01*
X0083160Y0191308D01*
X0082500Y0191260D01*
X0081448Y0191443D02*
X0083696Y0191443D01*
X0084701Y0191942D02*
X0080411Y0191942D01*
X0079845Y0192440D02*
X0085290Y0192440D01*
X0085691Y0192939D02*
X0079446Y0192939D01*
X0079187Y0193437D02*
X0085973Y0193437D01*
X0086168Y0193936D02*
X0079010Y0193936D01*
X0078899Y0194434D02*
X0086293Y0194434D01*
X0086344Y0194933D02*
X0078855Y0194933D01*
X0078888Y0195431D02*
X0086308Y0195431D01*
X0086209Y0195930D02*
X0078974Y0195930D01*
X0079121Y0196428D02*
X0086042Y0196428D01*
X0085794Y0196927D02*
X0079379Y0196927D01*
X0079740Y0197425D02*
X0085436Y0197425D01*
X0084912Y0197924D02*
X0080252Y0197924D01*
X0081047Y0198422D02*
X0084063Y0198422D01*
X0089113Y0196414D02*
X0088912Y0195715D01*
X0088850Y0194990D01*
X0088913Y0194269D01*
X0089115Y0193575D01*
X0089449Y0192933D01*
X0089902Y0192369D01*
X0090456Y0191904D01*
X0091091Y0191556D01*
X0091781Y0191338D01*
X0092500Y0191260D01*
X0093160Y0191308D01*
X0093801Y0191470D01*
X0094405Y0191741D01*
X0094952Y0192112D01*
X0095427Y0192573D01*
X0095814Y0193110D01*
X0096103Y0193705D01*
X0096283Y0194342D01*
X0096350Y0195000D01*
X0096285Y0195658D01*
X0096106Y0196295D01*
X0095819Y0196891D01*
X0095434Y0197429D01*
X0094960Y0197891D01*
X0094414Y0198264D01*
X0093811Y0198536D01*
X0093170Y0198700D01*
X0092510Y0198750D01*
X0091787Y0198669D01*
X0091094Y0198448D01*
X0090458Y0198097D01*
X0089902Y0197628D01*
X0089448Y0197060D01*
X0089113Y0196414D01*
X0089121Y0196428D02*
X0096042Y0196428D01*
X0096209Y0195930D02*
X0088974Y0195930D01*
X0088887Y0195431D02*
X0096308Y0195431D01*
X0096344Y0194933D02*
X0088855Y0194933D01*
X0088899Y0194434D02*
X0096293Y0194434D01*
X0096168Y0193936D02*
X0089010Y0193936D01*
X0089187Y0193437D02*
X0095973Y0193437D01*
X0095691Y0192939D02*
X0089446Y0192939D01*
X0089845Y0192440D02*
X0095290Y0192440D01*
X0094701Y0191942D02*
X0090411Y0191942D01*
X0091448Y0191443D02*
X0093696Y0191443D01*
X0099115Y0193575D02*
X0098913Y0194269D01*
X0098850Y0194990D01*
X0098912Y0195715D01*
X0099113Y0196414D01*
X0099448Y0197060D01*
X0099902Y0197628D01*
X0100458Y0198097D01*
X0101094Y0198448D01*
X0101787Y0198669D01*
X0102510Y0198750D01*
X0103170Y0198700D01*
X0103811Y0198536D01*
X0104414Y0198264D01*
X0104960Y0197891D01*
X0105434Y0197429D01*
X0105819Y0196891D01*
X0106106Y0196295D01*
X0106285Y0195658D01*
X0106350Y0195000D01*
X0106283Y0194342D01*
X0106103Y0193705D01*
X0105814Y0193110D01*
X0105427Y0192573D01*
X0104952Y0192112D01*
X0104405Y0191741D01*
X0103801Y0191470D01*
X0103160Y0191308D01*
X0102500Y0191260D01*
X0101781Y0191338D01*
X0101091Y0191556D01*
X0100456Y0191904D01*
X0099902Y0192369D01*
X0099449Y0192933D01*
X0099115Y0193575D01*
X0099187Y0193437D02*
X0105973Y0193437D01*
X0106168Y0193936D02*
X0099010Y0193936D01*
X0098899Y0194434D02*
X0106293Y0194434D01*
X0106344Y0194933D02*
X0098855Y0194933D01*
X0098887Y0195431D02*
X0106308Y0195431D01*
X0106209Y0195930D02*
X0098974Y0195930D01*
X0099121Y0196428D02*
X0106042Y0196428D01*
X0105794Y0196927D02*
X0099379Y0196927D01*
X0099740Y0197425D02*
X0105436Y0197425D01*
X0104912Y0197924D02*
X0100252Y0197924D01*
X0101047Y0198422D02*
X0104063Y0198422D01*
X0105691Y0192939D02*
X0099446Y0192939D01*
X0099845Y0192440D02*
X0105290Y0192440D01*
X0104701Y0191942D02*
X0100411Y0191942D01*
X0101448Y0191443D02*
X0103696Y0191443D01*
X0095794Y0196927D02*
X0089379Y0196927D01*
X0089740Y0197425D02*
X0095436Y0197425D01*
X0094912Y0197924D02*
X0090252Y0197924D01*
X0091047Y0198422D02*
X0094063Y0198422D01*
X0086935Y0211711D02*
X0086331Y0211440D01*
X0085690Y0211278D01*
X0085030Y0211230D01*
X0084311Y0211309D01*
X0083621Y0211526D01*
X0082986Y0211874D01*
X0082432Y0212339D01*
X0081979Y0212903D01*
X0081645Y0213545D01*
X0081443Y0214239D01*
X0081380Y0214960D01*
X0081442Y0215685D01*
X0081643Y0216384D01*
X0081978Y0217030D01*
X0082431Y0217598D01*
X0082987Y0218067D01*
X0083624Y0218418D01*
X0084317Y0218639D01*
X0085040Y0218720D01*
X0085700Y0218670D01*
X0086341Y0218506D01*
X0086944Y0218234D01*
X0087490Y0217861D01*
X0087963Y0217399D01*
X0088349Y0216862D01*
X0088636Y0216265D01*
X0088815Y0215628D01*
X0088880Y0214970D01*
X0088813Y0214312D01*
X0088633Y0213675D01*
X0088344Y0213080D01*
X0087957Y0212543D01*
X0087482Y0212082D01*
X0086935Y0211711D01*
X0087187Y0211882D02*
X0082976Y0211882D01*
X0082399Y0212381D02*
X0087789Y0212381D01*
X0088199Y0212879D02*
X0081998Y0212879D01*
X0081732Y0213378D02*
X0088489Y0213378D01*
X0088690Y0213876D02*
X0081549Y0213876D01*
X0081431Y0214375D02*
X0088820Y0214375D01*
X0088870Y0214873D02*
X0081388Y0214873D01*
X0081415Y0215372D02*
X0088840Y0215372D01*
X0088747Y0215870D02*
X0081495Y0215870D01*
X0081639Y0216369D02*
X0088586Y0216369D01*
X0088345Y0216867D02*
X0081894Y0216867D01*
X0082246Y0217366D02*
X0087987Y0217366D01*
X0087485Y0217864D02*
X0082747Y0217864D01*
X0083524Y0218363D02*
X0086659Y0218363D01*
X0086108Y0211384D02*
X0084072Y0211384D01*
X0114113Y0196414D02*
X0113912Y0195715D01*
X0113850Y0194990D01*
X0113913Y0194269D01*
X0114115Y0193575D01*
X0114449Y0192933D01*
X0114902Y0192369D01*
X0115456Y0191904D01*
X0116091Y0191556D01*
X0116781Y0191338D01*
X0117500Y0191260D01*
X0118160Y0191308D01*
X0118801Y0191470D01*
X0119405Y0191741D01*
X0119952Y0192112D01*
X0120427Y0192573D01*
X0120814Y0193110D01*
X0121103Y0193705D01*
X0121283Y0194342D01*
X0121350Y0195000D01*
X0121285Y0195658D01*
X0121106Y0196295D01*
X0120819Y0196891D01*
X0120434Y0197429D01*
X0119960Y0197891D01*
X0119414Y0198264D01*
X0118811Y0198536D01*
X0118170Y0198700D01*
X0117510Y0198750D01*
X0116787Y0198669D01*
X0116094Y0198448D01*
X0115458Y0198097D01*
X0114902Y0197628D01*
X0114448Y0197060D01*
X0114113Y0196414D01*
X0114121Y0196428D02*
X0121042Y0196428D01*
X0121209Y0195930D02*
X0113974Y0195930D01*
X0113887Y0195431D02*
X0121308Y0195431D01*
X0121344Y0194933D02*
X0113855Y0194933D01*
X0113899Y0194434D02*
X0121293Y0194434D01*
X0121168Y0193936D02*
X0114010Y0193936D01*
X0114187Y0193437D02*
X0120973Y0193437D01*
X0120691Y0192939D02*
X0114446Y0192939D01*
X0114845Y0192440D02*
X0120290Y0192440D01*
X0119701Y0191942D02*
X0115411Y0191942D01*
X0116448Y0191443D02*
X0118696Y0191443D01*
X0124115Y0193575D02*
X0123913Y0194269D01*
X0123850Y0194990D01*
X0123912Y0195715D01*
X0124113Y0196414D01*
X0124448Y0197060D01*
X0124902Y0197628D01*
X0125458Y0198097D01*
X0126094Y0198448D01*
X0126787Y0198669D01*
X0127510Y0198750D01*
X0128170Y0198700D01*
X0128811Y0198536D01*
X0129414Y0198264D01*
X0129960Y0197891D01*
X0130434Y0197429D01*
X0130819Y0196891D01*
X0131106Y0196295D01*
X0131285Y0195658D01*
X0131350Y0195000D01*
X0131283Y0194342D01*
X0131103Y0193705D01*
X0130814Y0193110D01*
X0130427Y0192573D01*
X0129952Y0192112D01*
X0129405Y0191741D01*
X0128801Y0191470D01*
X0128160Y0191308D01*
X0127500Y0191260D01*
X0126781Y0191338D01*
X0126091Y0191556D01*
X0125456Y0191904D01*
X0124902Y0192369D01*
X0124449Y0192933D01*
X0124115Y0193575D01*
X0124187Y0193437D02*
X0130973Y0193437D01*
X0131168Y0193936D02*
X0124010Y0193936D01*
X0123899Y0194434D02*
X0131293Y0194434D01*
X0131344Y0194933D02*
X0123855Y0194933D01*
X0123887Y0195431D02*
X0131308Y0195431D01*
X0131209Y0195930D02*
X0123974Y0195930D01*
X0124121Y0196428D02*
X0131042Y0196428D01*
X0130794Y0196927D02*
X0124379Y0196927D01*
X0124740Y0197425D02*
X0130436Y0197425D01*
X0129912Y0197924D02*
X0125252Y0197924D01*
X0126047Y0198422D02*
X0129063Y0198422D01*
X0134113Y0196414D02*
X0133912Y0195715D01*
X0133850Y0194990D01*
X0133913Y0194269D01*
X0134115Y0193575D01*
X0134449Y0192933D01*
X0134902Y0192369D01*
X0135456Y0191904D01*
X0136091Y0191556D01*
X0136781Y0191338D01*
X0137500Y0191260D01*
X0138160Y0191308D01*
X0138801Y0191470D01*
X0139405Y0191741D01*
X0139952Y0192112D01*
X0140427Y0192573D01*
X0140814Y0193110D01*
X0141103Y0193705D01*
X0141283Y0194342D01*
X0141350Y0195000D01*
X0141285Y0195658D01*
X0141106Y0196295D01*
X0140819Y0196891D01*
X0140434Y0197429D01*
X0139960Y0197891D01*
X0139414Y0198264D01*
X0138811Y0198536D01*
X0138170Y0198700D01*
X0137510Y0198750D01*
X0136787Y0198669D01*
X0136094Y0198448D01*
X0135458Y0198097D01*
X0134902Y0197628D01*
X0134448Y0197060D01*
X0134113Y0196414D01*
X0134121Y0196428D02*
X0141042Y0196428D01*
X0141209Y0195930D02*
X0133974Y0195930D01*
X0133888Y0195431D02*
X0141308Y0195431D01*
X0141344Y0194933D02*
X0133855Y0194933D01*
X0133899Y0194434D02*
X0141293Y0194434D01*
X0141168Y0193936D02*
X0134010Y0193936D01*
X0134187Y0193437D02*
X0140973Y0193437D01*
X0140691Y0192939D02*
X0134446Y0192939D01*
X0134845Y0192440D02*
X0140290Y0192440D01*
X0139701Y0191942D02*
X0135411Y0191942D01*
X0136448Y0191443D02*
X0138696Y0191443D01*
X0144115Y0193575D02*
X0143913Y0194269D01*
X0143850Y0194990D01*
X0143912Y0195715D01*
X0144113Y0196414D01*
X0144448Y0197060D01*
X0144902Y0197628D01*
X0145458Y0198097D01*
X0146094Y0198448D01*
X0146787Y0198669D01*
X0147510Y0198750D01*
X0148170Y0198700D01*
X0148811Y0198536D01*
X0149414Y0198264D01*
X0149960Y0197891D01*
X0150434Y0197429D01*
X0150819Y0196891D01*
X0151106Y0196295D01*
X0151285Y0195658D01*
X0151350Y0195000D01*
X0151283Y0194342D01*
X0151103Y0193705D01*
X0150814Y0193110D01*
X0150427Y0192573D01*
X0149952Y0192112D01*
X0149405Y0191741D01*
X0148801Y0191470D01*
X0148160Y0191308D01*
X0147500Y0191260D01*
X0146781Y0191338D01*
X0146091Y0191556D01*
X0145456Y0191904D01*
X0144902Y0192369D01*
X0144449Y0192933D01*
X0144115Y0193575D01*
X0144187Y0193437D02*
X0150973Y0193437D01*
X0151168Y0193936D02*
X0144010Y0193936D01*
X0143899Y0194434D02*
X0151293Y0194434D01*
X0151344Y0194933D02*
X0143855Y0194933D01*
X0143888Y0195431D02*
X0151308Y0195431D01*
X0151209Y0195930D02*
X0143974Y0195930D01*
X0144121Y0196428D02*
X0151042Y0196428D01*
X0150794Y0196927D02*
X0144379Y0196927D01*
X0144740Y0197425D02*
X0150436Y0197425D01*
X0149912Y0197924D02*
X0145252Y0197924D01*
X0146047Y0198422D02*
X0149063Y0198422D01*
X0154113Y0196414D02*
X0153912Y0195715D01*
X0153850Y0194990D01*
X0153913Y0194269D01*
X0154115Y0193575D01*
X0154449Y0192933D01*
X0154902Y0192369D01*
X0155456Y0191904D01*
X0156091Y0191556D01*
X0156781Y0191338D01*
X0157500Y0191260D01*
X0158160Y0191308D01*
X0158801Y0191470D01*
X0159405Y0191741D01*
X0159952Y0192112D01*
X0160427Y0192573D01*
X0160814Y0193110D01*
X0161103Y0193705D01*
X0161283Y0194342D01*
X0161350Y0195000D01*
X0161285Y0195658D01*
X0161106Y0196295D01*
X0160819Y0196891D01*
X0160434Y0197429D01*
X0159960Y0197891D01*
X0159414Y0198264D01*
X0158811Y0198536D01*
X0158170Y0198700D01*
X0157510Y0198750D01*
X0156787Y0198669D01*
X0156094Y0198448D01*
X0155458Y0198097D01*
X0154902Y0197628D01*
X0154448Y0197060D01*
X0154113Y0196414D01*
X0154121Y0196428D02*
X0161042Y0196428D01*
X0161209Y0195930D02*
X0153974Y0195930D01*
X0153888Y0195431D02*
X0161308Y0195431D01*
X0161344Y0194933D02*
X0153855Y0194933D01*
X0153899Y0194434D02*
X0161293Y0194434D01*
X0161168Y0193936D02*
X0154010Y0193936D01*
X0154187Y0193437D02*
X0160973Y0193437D01*
X0160691Y0192939D02*
X0154446Y0192939D01*
X0154845Y0192440D02*
X0160290Y0192440D01*
X0159701Y0191942D02*
X0155411Y0191942D01*
X0156448Y0191443D02*
X0158696Y0191443D01*
X0164115Y0193575D02*
X0163913Y0194269D01*
X0163850Y0194990D01*
X0163912Y0195715D01*
X0164113Y0196414D01*
X0164448Y0197060D01*
X0164902Y0197628D01*
X0165458Y0198097D01*
X0166094Y0198448D01*
X0166787Y0198669D01*
X0167510Y0198750D01*
X0168170Y0198700D01*
X0168811Y0198536D01*
X0169414Y0198264D01*
X0169960Y0197891D01*
X0170434Y0197429D01*
X0170819Y0196891D01*
X0171106Y0196295D01*
X0171285Y0195658D01*
X0171350Y0195000D01*
X0171283Y0194342D01*
X0171103Y0193705D01*
X0170814Y0193110D01*
X0170427Y0192573D01*
X0169952Y0192112D01*
X0169405Y0191741D01*
X0168801Y0191470D01*
X0168160Y0191308D01*
X0167500Y0191260D01*
X0166781Y0191338D01*
X0166091Y0191556D01*
X0165456Y0191904D01*
X0164902Y0192369D01*
X0164449Y0192933D01*
X0164115Y0193575D01*
X0164187Y0193437D02*
X0170973Y0193437D01*
X0171168Y0193936D02*
X0164010Y0193936D01*
X0163899Y0194434D02*
X0171293Y0194434D01*
X0171344Y0194933D02*
X0163855Y0194933D01*
X0163888Y0195431D02*
X0171308Y0195431D01*
X0171209Y0195930D02*
X0163974Y0195930D01*
X0164121Y0196428D02*
X0171042Y0196428D01*
X0170794Y0196927D02*
X0164379Y0196927D01*
X0164740Y0197425D02*
X0170436Y0197425D01*
X0169912Y0197924D02*
X0165252Y0197924D01*
X0166047Y0198422D02*
X0169063Y0198422D01*
X0170691Y0192939D02*
X0164446Y0192939D01*
X0164845Y0192440D02*
X0170290Y0192440D01*
X0169701Y0191942D02*
X0165411Y0191942D01*
X0166448Y0191443D02*
X0168696Y0191443D01*
X0160794Y0196927D02*
X0154379Y0196927D01*
X0154740Y0197425D02*
X0160436Y0197425D01*
X0159912Y0197924D02*
X0155252Y0197924D01*
X0156047Y0198422D02*
X0159063Y0198422D01*
X0150691Y0192939D02*
X0144446Y0192939D01*
X0144845Y0192440D02*
X0150290Y0192440D01*
X0149701Y0191942D02*
X0145411Y0191942D01*
X0146448Y0191443D02*
X0148696Y0191443D01*
X0140794Y0196927D02*
X0134379Y0196927D01*
X0134740Y0197425D02*
X0140436Y0197425D01*
X0139912Y0197924D02*
X0135252Y0197924D01*
X0136047Y0198422D02*
X0139063Y0198422D01*
X0130691Y0192939D02*
X0124446Y0192939D01*
X0124845Y0192440D02*
X0130290Y0192440D01*
X0129701Y0191942D02*
X0125411Y0191942D01*
X0126448Y0191443D02*
X0128696Y0191443D01*
X0120794Y0196927D02*
X0114379Y0196927D01*
X0114740Y0197425D02*
X0120436Y0197425D01*
X0119912Y0197924D02*
X0115252Y0197924D01*
X0116047Y0198422D02*
X0119063Y0198422D01*
X0087452Y0242112D02*
X0086905Y0241741D01*
X0086301Y0241470D01*
X0085660Y0241308D01*
X0085000Y0241260D01*
X0084281Y0241338D01*
X0083591Y0241556D01*
X0082956Y0241904D01*
X0082402Y0242369D01*
X0081949Y0242933D01*
X0081615Y0243575D01*
X0081413Y0244269D01*
X0081350Y0244990D01*
X0081412Y0245715D01*
X0081613Y0246414D01*
X0081948Y0247060D01*
X0082402Y0247628D01*
X0082958Y0248097D01*
X0083594Y0248448D01*
X0084287Y0248669D01*
X0085010Y0248750D01*
X0085670Y0248700D01*
X0086311Y0248536D01*
X0086914Y0248264D01*
X0087460Y0247891D01*
X0087934Y0247429D01*
X0088319Y0246891D01*
X0088606Y0246295D01*
X0088785Y0245658D01*
X0088850Y0245000D01*
X0088783Y0244342D01*
X0088603Y0243705D01*
X0088314Y0243110D01*
X0087927Y0242573D01*
X0087452Y0242112D01*
X0087637Y0242291D02*
X0082495Y0242291D01*
X0082064Y0242790D02*
X0088083Y0242790D01*
X0088401Y0243288D02*
X0081764Y0243288D01*
X0081554Y0243787D02*
X0088626Y0243787D01*
X0088767Y0244285D02*
X0081412Y0244285D01*
X0081368Y0244784D02*
X0088828Y0244784D01*
X0088822Y0245282D02*
X0081375Y0245282D01*
X0081431Y0245781D02*
X0088751Y0245781D01*
X0088611Y0246279D02*
X0081575Y0246279D01*
X0081802Y0246778D02*
X0088374Y0246778D01*
X0088043Y0247277D02*
X0082121Y0247277D01*
X0082576Y0247775D02*
X0087579Y0247775D01*
X0086893Y0248274D02*
X0083278Y0248274D01*
X0083159Y0241793D02*
X0086982Y0241793D01*
X0085474Y0241294D02*
X0084684Y0241294D01*
X0048850Y0245000D02*
X0048783Y0244342D01*
X0048603Y0243705D01*
X0048314Y0243110D01*
X0047927Y0242573D01*
X0047452Y0242112D01*
X0046905Y0241741D01*
X0046301Y0241470D01*
X0045660Y0241308D01*
X0045000Y0241260D01*
X0044281Y0241338D01*
X0043591Y0241556D01*
X0042956Y0241904D01*
X0042402Y0242369D01*
X0041949Y0242933D01*
X0041615Y0243575D01*
X0041413Y0244269D01*
X0041350Y0244990D01*
X0041412Y0245715D01*
X0041613Y0246414D01*
X0041948Y0247060D01*
X0042402Y0247628D01*
X0042958Y0248097D01*
X0043594Y0248448D01*
X0044287Y0248669D01*
X0045010Y0248750D01*
X0045670Y0248700D01*
X0046311Y0248536D01*
X0046914Y0248264D01*
X0047460Y0247891D01*
X0047934Y0247429D01*
X0048319Y0246891D01*
X0048606Y0246295D01*
X0048785Y0245658D01*
X0048850Y0245000D01*
X0048828Y0244784D02*
X0041368Y0244784D01*
X0041375Y0245282D02*
X0048822Y0245282D01*
X0048751Y0245781D02*
X0041431Y0245781D01*
X0041575Y0246279D02*
X0048611Y0246279D01*
X0048374Y0246778D02*
X0041802Y0246778D01*
X0042121Y0247277D02*
X0048043Y0247277D01*
X0047579Y0247775D02*
X0042576Y0247775D01*
X0043278Y0248274D02*
X0046893Y0248274D01*
X0048767Y0244285D02*
X0041412Y0244285D01*
X0041554Y0243787D02*
X0048626Y0243787D01*
X0048401Y0243288D02*
X0041764Y0243288D01*
X0042064Y0242790D02*
X0048083Y0242790D01*
X0047637Y0242291D02*
X0042495Y0242291D01*
X0043159Y0241793D02*
X0046982Y0241793D01*
X0045474Y0241294D02*
X0044684Y0241294D01*
X0045040Y0218720D02*
X0045700Y0218670D01*
X0046341Y0218506D01*
X0046944Y0218234D01*
X0047490Y0217861D01*
X0047963Y0217399D01*
X0048349Y0216862D01*
X0048636Y0216265D01*
X0048815Y0215628D01*
X0048880Y0214970D01*
X0048813Y0214312D01*
X0048633Y0213675D01*
X0048344Y0213080D01*
X0047957Y0212543D01*
X0047482Y0212082D01*
X0046935Y0211711D01*
X0046331Y0211440D01*
X0045690Y0211278D01*
X0045030Y0211230D01*
X0044311Y0211309D01*
X0043621Y0211526D01*
X0042986Y0211874D01*
X0042432Y0212339D01*
X0041979Y0212903D01*
X0041645Y0213545D01*
X0041443Y0214239D01*
X0041380Y0214960D01*
X0041442Y0215685D01*
X0041643Y0216384D01*
X0041978Y0217030D01*
X0042431Y0217598D01*
X0042987Y0218067D01*
X0043624Y0218418D01*
X0044317Y0218639D01*
X0045040Y0218720D01*
X0043524Y0218363D02*
X0046659Y0218363D01*
X0047485Y0217864D02*
X0042747Y0217864D01*
X0042246Y0217366D02*
X0047987Y0217366D01*
X0048345Y0216867D02*
X0041894Y0216867D01*
X0041639Y0216369D02*
X0048586Y0216369D01*
X0048747Y0215870D02*
X0041495Y0215870D01*
X0041415Y0215372D02*
X0048840Y0215372D01*
X0048870Y0214873D02*
X0041388Y0214873D01*
X0041431Y0214375D02*
X0048820Y0214375D01*
X0048690Y0213876D02*
X0041549Y0213876D01*
X0041732Y0213378D02*
X0048489Y0213378D01*
X0048199Y0212879D02*
X0041998Y0212879D01*
X0042399Y0212381D02*
X0047789Y0212381D01*
X0047187Y0211882D02*
X0042976Y0211882D01*
X0044072Y0211384D02*
X0046108Y0211384D01*
X0164414Y0163028D02*
X0170807Y0163028D01*
X0170443Y0162530D02*
X0164779Y0162530D01*
X0165299Y0162031D02*
X0169907Y0162031D01*
X0169038Y0161533D02*
X0166109Y0161533D01*
D19*
X0107600Y0245000D03*
X0097600Y0245000D03*
X0067600Y0245000D03*
X0057600Y0245000D03*
D20*
X0287600Y0104843D03*
X0287600Y0085157D03*
D21*
X0267600Y0103000D03*
X0267600Y0066000D03*
D22*
X0277600Y0025000D03*
X0312600Y0060000D03*
X0102600Y0220000D03*
X0077600Y0260000D03*
X0022600Y0220000D03*
D23*
X0127600Y0230000D03*
X0127600Y0245000D03*
X0092600Y0075000D03*
X0092600Y0060000D03*
D24*
X0182600Y0200000D03*
X0215100Y0247500D03*
X0248850Y0212500D03*
X0272600Y0210000D03*
D25*
X0290100Y0113750D03*
M02*
