G75*
%MOIN*%
%OFA0B0*%
%FSLAX25Y25*%
%IPPOS*%
%LPD*%
%AMOC8*
5,1,8,0,0,1.08239X$1,22.5*
%
%ADD10OC8,0.10000*%
%ADD11R,0.10000X0.10000*%
%ADD12C,0.07400*%
%ADD13OC8,0.07400*%
%ADD14C,0.07600*%
%ADD15OC8,0.07000*%
%ADD16C,0.08000*%
%ADD17OC8,0.06600*%
%ADD18C,0.06500*%
%ADD19C,0.07500*%
%ADD20C,0.04000*%
%ADD21C,0.05000*%
%ADD22C,0.03200*%
%ADD23C,0.06496*%
%ADD24C,0.07000*%
%ADD25R,0.12661X0.12661*%
%ADD26C,0.08600*%
%ADD27C,0.04750*%
%ADD28R,0.04750X0.04750*%
D10*
X0017600Y0081700D03*
X0042600Y0081700D03*
X0067600Y0081700D03*
X0127600Y0081700D03*
X0152600Y0081700D03*
X0177600Y0081700D03*
X0202600Y0081700D03*
X0227600Y0081700D03*
X0252600Y0081700D03*
X0252600Y0243300D03*
X0277600Y0243300D03*
X0302600Y0243300D03*
X0227600Y0243300D03*
X0202600Y0243300D03*
X0177600Y0243300D03*
X0152600Y0243300D03*
X0022600Y0243300D03*
D11*
X0022600Y0265000D03*
X0152600Y0265000D03*
X0177600Y0265000D03*
X0202600Y0265000D03*
X0227600Y0265000D03*
X0252600Y0265000D03*
X0277600Y0265000D03*
X0302600Y0265000D03*
X0252600Y0060000D03*
X0227600Y0060000D03*
X0202600Y0060000D03*
X0177600Y0060000D03*
X0152600Y0060000D03*
X0127600Y0060000D03*
X0067600Y0060000D03*
X0042600Y0060000D03*
X0017600Y0060000D03*
D12*
X0087600Y0015000D03*
X0097600Y0015000D03*
X0107600Y0015000D03*
X0101600Y0205000D03*
X0091600Y0205000D03*
X0081600Y0205000D03*
X0071600Y0205000D03*
X0061600Y0205000D03*
X0051600Y0205000D03*
X0041600Y0205000D03*
X0117600Y0205000D03*
X0127600Y0205000D03*
X0137600Y0205000D03*
X0147600Y0205000D03*
X0157600Y0205000D03*
X0167600Y0205000D03*
X0307600Y0205000D03*
X0307600Y0035000D03*
X0317600Y0035000D03*
D13*
X0307600Y0135000D03*
X0307600Y0145000D03*
X0307600Y0155000D03*
X0307600Y0165000D03*
X0307600Y0175000D03*
X0307600Y0185000D03*
X0307600Y0195000D03*
D14*
X0312600Y0213750D03*
X0290100Y0220000D03*
X0265100Y0220000D03*
X0240100Y0220000D03*
X0215100Y0220000D03*
X0190100Y0220000D03*
X0165100Y0220000D03*
X0165100Y0260000D03*
X0190100Y0260000D03*
X0215100Y0260000D03*
X0240100Y0260000D03*
X0265100Y0260000D03*
X0290100Y0260000D03*
X0312600Y0253750D03*
X0240100Y0105000D03*
X0215100Y0105000D03*
X0190100Y0105000D03*
X0165100Y0105000D03*
X0140100Y0105000D03*
X0115100Y0105000D03*
X0080100Y0105000D03*
X0055100Y0105000D03*
X0030100Y0105000D03*
X0030100Y0065000D03*
X0055100Y0065000D03*
X0080100Y0065000D03*
X0115100Y0065000D03*
X0140100Y0065000D03*
X0165100Y0065000D03*
X0190100Y0065000D03*
X0215100Y0065000D03*
X0240100Y0065000D03*
D15*
X0178850Y0124375D03*
X0178850Y0133750D03*
X0178850Y0143125D03*
X0193225Y0140000D03*
X0202600Y0140000D03*
X0211975Y0140000D03*
X0211975Y0160000D03*
X0202600Y0160000D03*
X0193225Y0160000D03*
X0193225Y0180000D03*
X0202600Y0180000D03*
X0211975Y0180000D03*
X0234475Y0170000D03*
X0243850Y0170000D03*
X0253225Y0170000D03*
X0253225Y0150000D03*
X0243850Y0150000D03*
X0234475Y0150000D03*
X0234475Y0130000D03*
X0243850Y0130000D03*
X0253225Y0130000D03*
X0253225Y0190000D03*
X0243850Y0190000D03*
X0234475Y0190000D03*
X0157600Y0143125D03*
X0157600Y0133750D03*
X0157600Y0124375D03*
X0136350Y0124375D03*
X0136350Y0133750D03*
X0136350Y0143125D03*
X0115100Y0143125D03*
X0115100Y0133750D03*
X0115100Y0124375D03*
X0093850Y0124375D03*
X0093850Y0133750D03*
X0093850Y0143125D03*
X0072600Y0143125D03*
X0072600Y0133750D03*
X0072600Y0124375D03*
X0052600Y0124375D03*
X0052600Y0133750D03*
X0052600Y0143125D03*
X0032600Y0143125D03*
X0032600Y0133750D03*
X0032600Y0124375D03*
X0012600Y0124375D03*
X0012600Y0133750D03*
X0012600Y0143125D03*
D16*
X0082600Y0165000D03*
X0092600Y0165000D03*
X0102600Y0165000D03*
X0117600Y0165000D03*
X0127600Y0165000D03*
X0137600Y0165000D03*
X0147600Y0165000D03*
X0157600Y0165000D03*
X0167600Y0165000D03*
X0167600Y0195000D03*
X0157600Y0195000D03*
X0147600Y0195000D03*
X0137600Y0195000D03*
X0127600Y0195000D03*
X0117600Y0195000D03*
X0102600Y0195000D03*
X0092600Y0195000D03*
X0082600Y0195000D03*
X0085100Y0215000D03*
X0085100Y0245000D03*
X0045100Y0245000D03*
X0045100Y0215000D03*
X0267600Y0190000D03*
X0267600Y0180000D03*
X0267600Y0170000D03*
X0267600Y0160000D03*
X0267600Y0150000D03*
X0267600Y0140000D03*
X0267600Y0130000D03*
X0297600Y0130000D03*
X0297600Y0140000D03*
X0297600Y0150000D03*
X0297600Y0160000D03*
X0297600Y0170000D03*
X0297600Y0180000D03*
X0297600Y0190000D03*
D17*
X0107600Y0245000D03*
X0097600Y0245000D03*
X0067600Y0245000D03*
X0057600Y0245000D03*
D18*
X0287600Y0104843D03*
X0287600Y0085157D03*
D19*
X0267600Y0103000D03*
X0267600Y0066000D03*
D20*
X0307600Y0035000D02*
X0317600Y0035000D01*
X0297600Y0130000D02*
X0307600Y0135000D01*
X0307600Y0145000D02*
X0297600Y0140000D01*
X0297600Y0150000D02*
X0307600Y0155000D01*
X0307600Y0165000D02*
X0297600Y0160000D01*
X0297600Y0170000D02*
X0307600Y0175000D01*
X0307600Y0185000D02*
X0297600Y0180000D01*
X0297600Y0190000D02*
X0307600Y0195000D01*
X0107600Y0015000D02*
X0097600Y0015000D01*
X0097600Y0245000D02*
X0085100Y0245000D01*
D21*
X0187600Y0190000D02*
X0187600Y0180000D01*
X0193225Y0180000D01*
X0187600Y0180000D02*
X0187600Y0170000D01*
X0234475Y0170000D01*
X0234475Y0150000D02*
X0187600Y0150000D01*
X0187600Y0160000D01*
X0193225Y0160000D01*
X0187600Y0160000D02*
X0187600Y0170000D01*
X0187600Y0150000D02*
X0187600Y0140000D01*
X0193225Y0140000D01*
X0187600Y0140000D02*
X0187600Y0130000D01*
X0234475Y0130000D01*
X0187600Y0130000D02*
X0187600Y0115000D01*
X0282600Y0115000D01*
X0234475Y0190000D02*
X0187600Y0190000D01*
X0178850Y0124375D02*
X0178850Y0115000D01*
X0187600Y0115000D01*
X0178850Y0115000D02*
X0157600Y0115000D01*
X0157600Y0124375D01*
X0157600Y0115000D02*
X0136350Y0115000D01*
X0136350Y0124375D01*
X0136350Y0115000D02*
X0115100Y0115000D01*
X0115100Y0124375D01*
X0115100Y0115000D02*
X0092600Y0115000D01*
X0092600Y0121468D01*
X0093772Y0124296D02*
X0093850Y0124375D01*
X0093772Y0124296D02*
X0093684Y0124206D01*
X0093600Y0124113D01*
X0093518Y0124018D01*
X0093439Y0123920D01*
X0093364Y0123819D01*
X0093292Y0123716D01*
X0093223Y0123611D01*
X0093157Y0123504D01*
X0093095Y0123395D01*
X0093036Y0123284D01*
X0092981Y0123171D01*
X0092929Y0123057D01*
X0092881Y0122940D01*
X0092836Y0122823D01*
X0092796Y0122704D01*
X0092759Y0122584D01*
X0092726Y0122463D01*
X0092696Y0122341D01*
X0092671Y0122218D01*
X0092649Y0122094D01*
X0092632Y0121969D01*
X0092618Y0121844D01*
X0092608Y0121719D01*
X0092602Y0121594D01*
X0092600Y0121468D01*
X0092600Y0115000D02*
X0072600Y0115000D01*
X0072600Y0124375D01*
X0072600Y0115000D02*
X0052600Y0115000D01*
X0052600Y0124375D01*
X0052600Y0115000D02*
X0032600Y0115000D01*
X0032600Y0124375D01*
X0032600Y0115000D02*
X0012600Y0115000D01*
X0012600Y0124375D01*
X0282600Y0035000D02*
X0307600Y0035000D01*
D22*
X0008200Y0024530D02*
X0008200Y0010600D01*
X0081676Y0010600D01*
X0081411Y0010865D01*
X0080300Y0013548D01*
X0080300Y0016452D01*
X0081411Y0019135D01*
X0083465Y0021189D01*
X0086148Y0022300D01*
X0089052Y0022300D01*
X0091735Y0021189D01*
X0093307Y0019617D01*
X0093496Y0019805D01*
X0094298Y0020388D01*
X0095182Y0020838D01*
X0096125Y0021145D01*
X0097104Y0021300D01*
X0097600Y0021300D01*
X0097600Y0015000D01*
X0097600Y0015000D01*
X0107600Y0015000D01*
X0107600Y0015000D01*
X0107600Y0021300D01*
X0108096Y0021300D01*
X0109075Y0021145D01*
X0110018Y0020838D01*
X0110902Y0020388D01*
X0111704Y0019805D01*
X0112405Y0019104D01*
X0112988Y0018302D01*
X0113438Y0017418D01*
X0113745Y0016475D01*
X0113900Y0015496D01*
X0113900Y0015000D01*
X0107600Y0015000D01*
X0107600Y0015000D01*
X0107600Y0021300D01*
X0107104Y0021300D01*
X0106125Y0021145D01*
X0105182Y0020838D01*
X0104298Y0020388D01*
X0103496Y0019805D01*
X0102795Y0019104D01*
X0102600Y0018836D01*
X0102405Y0019104D01*
X0101704Y0019805D01*
X0100902Y0020388D01*
X0100018Y0020838D01*
X0099075Y0021145D01*
X0098096Y0021300D01*
X0097600Y0021300D01*
X0097600Y0015000D01*
X0097600Y0015000D01*
X0101300Y0015000D01*
X0107600Y0015000D01*
X0113900Y0015000D01*
X0113900Y0014504D01*
X0113745Y0013525D01*
X0113438Y0012582D01*
X0112988Y0011698D01*
X0112405Y0010896D01*
X0112110Y0010600D01*
X0306460Y0010600D01*
X0305701Y0013433D01*
X0305701Y0016567D01*
X0306512Y0019593D01*
X0308078Y0022306D01*
X0310294Y0024522D01*
X0313007Y0026088D01*
X0316033Y0026899D01*
X0319167Y0026899D01*
X0322193Y0026088D01*
X0324906Y0024522D01*
X0325701Y0023727D01*
X0325701Y0309361D01*
X0008200Y0309361D01*
X0008200Y0148766D01*
X0009659Y0150225D01*
X0015541Y0150225D01*
X0019700Y0146066D01*
X0019700Y0140184D01*
X0017953Y0138438D01*
X0019700Y0136691D01*
X0019700Y0130809D01*
X0017246Y0128355D01*
X0018700Y0126901D01*
X0018700Y0124375D01*
X0012600Y0124375D01*
X0012600Y0124375D01*
X0018700Y0124375D01*
X0018700Y0121848D01*
X0015127Y0118275D01*
X0012600Y0118275D01*
X0012600Y0124375D01*
X0012600Y0124375D01*
X0012600Y0118275D01*
X0010073Y0118275D01*
X0008200Y0120148D01*
X0008200Y0037990D01*
X0008393Y0038324D01*
X0010535Y0040467D01*
X0013159Y0041981D01*
X0016085Y0042765D01*
X0019115Y0042765D01*
X0022041Y0041981D01*
X0024665Y0040467D01*
X0026807Y0038324D01*
X0028321Y0035701D01*
X0029105Y0032775D01*
X0029105Y0029745D01*
X0028321Y0026819D01*
X0026807Y0024195D01*
X0024665Y0022053D01*
X0022041Y0020538D01*
X0019115Y0019754D01*
X0016085Y0019754D01*
X0013159Y0020538D01*
X0010535Y0022053D01*
X0008393Y0024195D01*
X0008200Y0024530D01*
X0008200Y0024191D02*
X0008398Y0024191D01*
X0008200Y0020993D02*
X0012372Y0020993D01*
X0008200Y0017794D02*
X0080856Y0017794D01*
X0080300Y0014596D02*
X0008200Y0014596D01*
X0008200Y0011397D02*
X0081191Y0011397D01*
X0083269Y0020993D02*
X0072828Y0020993D01*
X0072041Y0020538D02*
X0074665Y0022053D01*
X0076807Y0024195D01*
X0078321Y0026819D01*
X0079105Y0029745D01*
X0079105Y0032775D01*
X0078321Y0035701D01*
X0076807Y0038324D01*
X0074665Y0040467D01*
X0072041Y0041981D01*
X0069115Y0042765D01*
X0066085Y0042765D01*
X0063159Y0041981D01*
X0060535Y0040467D01*
X0058393Y0038324D01*
X0056879Y0035701D01*
X0056094Y0032775D01*
X0056094Y0029745D01*
X0056879Y0026819D01*
X0058393Y0024195D01*
X0060535Y0022053D01*
X0063159Y0020538D01*
X0066085Y0019754D01*
X0069115Y0019754D01*
X0072041Y0020538D01*
X0076802Y0024191D02*
X0118398Y0024191D01*
X0118393Y0024195D02*
X0120535Y0022053D01*
X0123159Y0020538D01*
X0126085Y0019754D01*
X0129115Y0019754D01*
X0132041Y0020538D01*
X0134665Y0022053D01*
X0136807Y0024195D01*
X0138321Y0026819D01*
X0139105Y0029745D01*
X0139105Y0032775D01*
X0138321Y0035701D01*
X0136807Y0038324D01*
X0134665Y0040467D01*
X0132041Y0041981D01*
X0129115Y0042765D01*
X0126085Y0042765D01*
X0123159Y0041981D01*
X0120535Y0040467D01*
X0118393Y0038324D01*
X0116879Y0035701D01*
X0116094Y0032775D01*
X0116094Y0029745D01*
X0116879Y0026819D01*
X0118393Y0024195D01*
X0116726Y0027390D02*
X0078474Y0027390D01*
X0079105Y0030588D02*
X0116094Y0030588D01*
X0116366Y0033787D02*
X0078834Y0033787D01*
X0077580Y0036985D02*
X0117620Y0036985D01*
X0120253Y0040184D02*
X0074947Y0040184D01*
X0084230Y0050617D02*
X0085553Y0050069D01*
X0099647Y0050069D01*
X0100970Y0050617D01*
X0101983Y0051630D01*
X0102531Y0052953D01*
X0102531Y0067047D01*
X0102343Y0067500D01*
X0102531Y0067953D01*
X0102531Y0082047D01*
X0101983Y0083370D01*
X0100970Y0084383D01*
X0100500Y0084577D01*
X0100500Y0086650D01*
X0120388Y0086650D01*
X0119000Y0085262D01*
X0119000Y0078138D01*
X0124038Y0073100D01*
X0131162Y0073100D01*
X0136200Y0078138D01*
X0136200Y0085262D01*
X0134812Y0086650D01*
X0145388Y0086650D01*
X0144000Y0085262D01*
X0144000Y0078138D01*
X0149038Y0073100D01*
X0156162Y0073100D01*
X0161200Y0078138D01*
X0161200Y0085262D01*
X0159812Y0086650D01*
X0170388Y0086650D01*
X0169000Y0085262D01*
X0169000Y0078138D01*
X0174038Y0073100D01*
X0181162Y0073100D01*
X0186200Y0078138D01*
X0186200Y0085262D01*
X0184812Y0086650D01*
X0195388Y0086650D01*
X0194000Y0085262D01*
X0194000Y0078138D01*
X0199038Y0073100D01*
X0206162Y0073100D01*
X0211200Y0078138D01*
X0211200Y0085262D01*
X0209812Y0086650D01*
X0220388Y0086650D01*
X0219000Y0085262D01*
X0219000Y0078138D01*
X0224038Y0073100D01*
X0231162Y0073100D01*
X0236200Y0078138D01*
X0236200Y0085262D01*
X0234812Y0086650D01*
X0241512Y0086650D01*
X0244122Y0087731D01*
X0246119Y0089728D01*
X0247200Y0092338D01*
X0247200Y0095162D01*
X0246119Y0097772D01*
X0244728Y0099163D01*
X0246373Y0100808D01*
X0247500Y0103528D01*
X0247500Y0106472D01*
X0246373Y0109192D01*
X0244292Y0111273D01*
X0241572Y0112400D01*
X0238628Y0112400D01*
X0235908Y0111273D01*
X0233827Y0109192D01*
X0232700Y0106472D01*
X0232700Y0103528D01*
X0233809Y0100850D01*
X0222200Y0100850D01*
X0222200Y0102804D01*
X0222500Y0103528D01*
X0222500Y0106472D01*
X0221373Y0109192D01*
X0219292Y0111273D01*
X0216572Y0112400D01*
X0213628Y0112400D01*
X0210908Y0111273D01*
X0208827Y0109192D01*
X0207700Y0106472D01*
X0207700Y0103528D01*
X0208000Y0102804D01*
X0208000Y0100850D01*
X0197200Y0100850D01*
X0197200Y0102804D01*
X0197500Y0103528D01*
X0197500Y0106472D01*
X0196373Y0109192D01*
X0194292Y0111273D01*
X0191572Y0112400D01*
X0188628Y0112400D01*
X0185908Y0111273D01*
X0183827Y0109192D01*
X0182700Y0106472D01*
X0182700Y0103528D01*
X0183000Y0102804D01*
X0183000Y0100850D01*
X0172200Y0100850D01*
X0172200Y0102804D01*
X0172500Y0103528D01*
X0172500Y0106472D01*
X0171373Y0109192D01*
X0169292Y0111273D01*
X0166572Y0112400D01*
X0163628Y0112400D01*
X0160908Y0111273D01*
X0158827Y0109192D01*
X0157700Y0106472D01*
X0157700Y0103528D01*
X0158000Y0102804D01*
X0158000Y0100850D01*
X0147200Y0100850D01*
X0147200Y0102804D01*
X0147500Y0103528D01*
X0147500Y0106472D01*
X0146373Y0109192D01*
X0144292Y0111273D01*
X0141572Y0112400D01*
X0138628Y0112400D01*
X0135908Y0111273D01*
X0133827Y0109192D01*
X0132700Y0106472D01*
X0132700Y0103528D01*
X0133000Y0102804D01*
X0133000Y0100850D01*
X0122200Y0100850D01*
X0122200Y0102804D01*
X0122500Y0103528D01*
X0122500Y0106472D01*
X0121373Y0109192D01*
X0119292Y0111273D01*
X0116572Y0112400D01*
X0113628Y0112400D01*
X0110908Y0111273D01*
X0108827Y0109192D01*
X0107700Y0106472D01*
X0107700Y0103528D01*
X0108000Y0102804D01*
X0108000Y0100850D01*
X0087200Y0100850D01*
X0087200Y0102804D01*
X0087500Y0103528D01*
X0087500Y0106472D01*
X0086373Y0109192D01*
X0084292Y0111273D01*
X0081572Y0112400D01*
X0078628Y0112400D01*
X0075908Y0111273D01*
X0073827Y0109192D01*
X0072700Y0106472D01*
X0072700Y0103528D01*
X0073000Y0102804D01*
X0073000Y0100850D01*
X0062200Y0100850D01*
X0062200Y0102804D01*
X0062500Y0103528D01*
X0062500Y0106472D01*
X0061373Y0109192D01*
X0059292Y0111273D01*
X0056572Y0112400D01*
X0053628Y0112400D01*
X0050908Y0111273D01*
X0048827Y0109192D01*
X0047700Y0106472D01*
X0047700Y0103528D01*
X0048000Y0102804D01*
X0048000Y0100850D01*
X0037200Y0100850D01*
X0037200Y0102804D01*
X0037500Y0103528D01*
X0037500Y0106472D01*
X0036373Y0109192D01*
X0034292Y0111273D01*
X0031572Y0112400D01*
X0028628Y0112400D01*
X0025908Y0111273D01*
X0023827Y0109192D01*
X0022700Y0106472D01*
X0022700Y0103528D01*
X0023000Y0102804D01*
X0023000Y0092338D01*
X0024081Y0089728D01*
X0026078Y0087731D01*
X0028688Y0086650D01*
X0035388Y0086650D01*
X0034000Y0085262D01*
X0034000Y0078138D01*
X0039038Y0073100D01*
X0046162Y0073100D01*
X0051200Y0078138D01*
X0051200Y0085262D01*
X0049812Y0086650D01*
X0060388Y0086650D01*
X0059000Y0085262D01*
X0059000Y0078138D01*
X0064038Y0073100D01*
X0071162Y0073100D01*
X0076200Y0078138D01*
X0076200Y0085262D01*
X0074812Y0086650D01*
X0084700Y0086650D01*
X0084700Y0084577D01*
X0084230Y0084383D01*
X0083217Y0083370D01*
X0082669Y0082047D01*
X0082669Y0071945D01*
X0081572Y0072400D01*
X0078628Y0072400D01*
X0075908Y0071273D01*
X0073827Y0069192D01*
X0073543Y0068506D01*
X0073316Y0068600D01*
X0061884Y0068600D01*
X0061657Y0068506D01*
X0061373Y0069192D01*
X0059292Y0071273D01*
X0056572Y0072400D01*
X0053628Y0072400D01*
X0050908Y0071273D01*
X0048827Y0069192D01*
X0048543Y0068506D01*
X0048316Y0068600D01*
X0036884Y0068600D01*
X0036657Y0068506D01*
X0036373Y0069192D01*
X0034292Y0071273D01*
X0031572Y0072400D01*
X0028628Y0072400D01*
X0025908Y0071273D01*
X0023827Y0069192D01*
X0023543Y0068506D01*
X0023316Y0068600D01*
X0011884Y0068600D01*
X0010561Y0068052D01*
X0009548Y0067039D01*
X0009000Y0065716D01*
X0009000Y0054284D01*
X0009548Y0052961D01*
X0010561Y0051948D01*
X0011884Y0051400D01*
X0023316Y0051400D01*
X0024639Y0051948D01*
X0025652Y0052961D01*
X0026200Y0054284D01*
X0026200Y0058606D01*
X0028628Y0057600D01*
X0031572Y0057600D01*
X0034000Y0058606D01*
X0034000Y0054284D01*
X0034548Y0052961D01*
X0035561Y0051948D01*
X0036884Y0051400D01*
X0048316Y0051400D01*
X0049639Y0051948D01*
X0050652Y0052961D01*
X0051200Y0054284D01*
X0051200Y0058606D01*
X0053628Y0057600D01*
X0056572Y0057600D01*
X0059000Y0058606D01*
X0059000Y0054284D01*
X0059548Y0052961D01*
X0060561Y0051948D01*
X0061884Y0051400D01*
X0073316Y0051400D01*
X0074639Y0051948D01*
X0075652Y0052961D01*
X0076200Y0054284D01*
X0076200Y0058606D01*
X0078628Y0057600D01*
X0081572Y0057600D01*
X0082669Y0058055D01*
X0082669Y0052953D01*
X0083217Y0051630D01*
X0084230Y0050617D01*
X0082669Y0052978D02*
X0075659Y0052978D01*
X0076200Y0056176D02*
X0082669Y0056176D01*
X0073735Y0068970D02*
X0061465Y0068970D01*
X0057130Y0072169D02*
X0078070Y0072169D01*
X0082130Y0072169D02*
X0082669Y0072169D01*
X0082669Y0075367D02*
X0073429Y0075367D01*
X0076200Y0078566D02*
X0082669Y0078566D01*
X0082669Y0081764D02*
X0076200Y0081764D01*
X0076200Y0084963D02*
X0084700Y0084963D01*
X0100500Y0084963D02*
X0119000Y0084963D01*
X0119000Y0081764D02*
X0102531Y0081764D01*
X0102531Y0078566D02*
X0119000Y0078566D01*
X0121771Y0075367D02*
X0102531Y0075367D01*
X0102531Y0072169D02*
X0113070Y0072169D01*
X0113628Y0072400D02*
X0110908Y0071273D01*
X0108827Y0069192D01*
X0107700Y0066472D01*
X0107700Y0063528D01*
X0108827Y0060808D01*
X0110908Y0058727D01*
X0113628Y0057600D01*
X0116572Y0057600D01*
X0119000Y0058606D01*
X0119000Y0054284D01*
X0119548Y0052961D01*
X0120561Y0051948D01*
X0121884Y0051400D01*
X0133316Y0051400D01*
X0134639Y0051948D01*
X0135652Y0052961D01*
X0136200Y0054284D01*
X0136200Y0058606D01*
X0138628Y0057600D01*
X0141572Y0057600D01*
X0144000Y0058606D01*
X0144000Y0054284D01*
X0144548Y0052961D01*
X0145561Y0051948D01*
X0146884Y0051400D01*
X0158316Y0051400D01*
X0159639Y0051948D01*
X0160652Y0052961D01*
X0161200Y0054284D01*
X0161200Y0058606D01*
X0163628Y0057600D01*
X0166572Y0057600D01*
X0169000Y0058606D01*
X0169000Y0054284D01*
X0169548Y0052961D01*
X0170561Y0051948D01*
X0171884Y0051400D01*
X0183316Y0051400D01*
X0184639Y0051948D01*
X0185652Y0052961D01*
X0186200Y0054284D01*
X0186200Y0058606D01*
X0188628Y0057600D01*
X0191572Y0057600D01*
X0194000Y0058606D01*
X0194000Y0054284D01*
X0194548Y0052961D01*
X0195561Y0051948D01*
X0196884Y0051400D01*
X0208316Y0051400D01*
X0209639Y0051948D01*
X0210652Y0052961D01*
X0211200Y0054284D01*
X0211200Y0058606D01*
X0213628Y0057600D01*
X0216572Y0057600D01*
X0219000Y0058606D01*
X0219000Y0054284D01*
X0219548Y0052961D01*
X0220561Y0051948D01*
X0221884Y0051400D01*
X0233316Y0051400D01*
X0234639Y0051948D01*
X0235652Y0052961D01*
X0236200Y0054284D01*
X0236200Y0058606D01*
X0238628Y0057600D01*
X0241572Y0057600D01*
X0244000Y0058606D01*
X0244000Y0054284D01*
X0244548Y0052961D01*
X0245561Y0051948D01*
X0246884Y0051400D01*
X0258316Y0051400D01*
X0259639Y0051948D01*
X0260652Y0052961D01*
X0261200Y0054284D01*
X0261200Y0062245D01*
X0261369Y0061837D01*
X0263437Y0059769D01*
X0266138Y0058650D01*
X0269062Y0058650D01*
X0271763Y0059769D01*
X0273831Y0061837D01*
X0274950Y0064538D01*
X0274950Y0067462D01*
X0273831Y0070163D01*
X0271763Y0072231D01*
X0269062Y0073350D01*
X0266138Y0073350D01*
X0263437Y0072231D01*
X0261369Y0070163D01*
X0260250Y0067462D01*
X0260250Y0067441D01*
X0259639Y0068052D01*
X0258316Y0068600D01*
X0246884Y0068600D01*
X0246657Y0068506D01*
X0246373Y0069192D01*
X0244292Y0071273D01*
X0241572Y0072400D01*
X0238628Y0072400D01*
X0235908Y0071273D01*
X0233827Y0069192D01*
X0233543Y0068506D01*
X0233316Y0068600D01*
X0221884Y0068600D01*
X0221657Y0068506D01*
X0221373Y0069192D01*
X0219292Y0071273D01*
X0216572Y0072400D01*
X0213628Y0072400D01*
X0210908Y0071273D01*
X0208827Y0069192D01*
X0208543Y0068506D01*
X0208316Y0068600D01*
X0196884Y0068600D01*
X0196657Y0068506D01*
X0196373Y0069192D01*
X0194292Y0071273D01*
X0191572Y0072400D01*
X0188628Y0072400D01*
X0185908Y0071273D01*
X0183827Y0069192D01*
X0183543Y0068506D01*
X0183316Y0068600D01*
X0171884Y0068600D01*
X0171657Y0068506D01*
X0171373Y0069192D01*
X0169292Y0071273D01*
X0166572Y0072400D01*
X0163628Y0072400D01*
X0160908Y0071273D01*
X0158827Y0069192D01*
X0158543Y0068506D01*
X0158316Y0068600D01*
X0146884Y0068600D01*
X0146657Y0068506D01*
X0146373Y0069192D01*
X0144292Y0071273D01*
X0141572Y0072400D01*
X0138628Y0072400D01*
X0135908Y0071273D01*
X0133827Y0069192D01*
X0133543Y0068506D01*
X0133316Y0068600D01*
X0121884Y0068600D01*
X0121657Y0068506D01*
X0121373Y0069192D01*
X0119292Y0071273D01*
X0116572Y0072400D01*
X0113628Y0072400D01*
X0117130Y0072169D02*
X0138070Y0072169D01*
X0142130Y0072169D02*
X0163070Y0072169D01*
X0167130Y0072169D02*
X0188070Y0072169D01*
X0192130Y0072169D02*
X0213070Y0072169D01*
X0217130Y0072169D02*
X0238070Y0072169D01*
X0242130Y0072169D02*
X0263374Y0072169D01*
X0260875Y0068970D02*
X0246465Y0068970D01*
X0249038Y0073100D02*
X0256162Y0073100D01*
X0261200Y0078138D01*
X0261200Y0085262D01*
X0256162Y0090300D01*
X0249038Y0090300D01*
X0244000Y0085262D01*
X0244000Y0078138D01*
X0249038Y0073100D01*
X0246771Y0075367D02*
X0233429Y0075367D01*
X0236200Y0078566D02*
X0244000Y0078566D01*
X0244000Y0081764D02*
X0236200Y0081764D01*
X0236200Y0084963D02*
X0244000Y0084963D01*
X0244552Y0088161D02*
X0246899Y0088161D01*
X0246795Y0091360D02*
X0284674Y0091360D01*
X0283720Y0090965D02*
X0281793Y0089038D01*
X0280750Y0086520D01*
X0280750Y0083795D01*
X0281793Y0081277D01*
X0283720Y0079350D01*
X0286237Y0078307D01*
X0288963Y0078307D01*
X0291480Y0079350D01*
X0293407Y0081277D01*
X0294450Y0083795D01*
X0294450Y0086520D01*
X0293407Y0089038D01*
X0291480Y0090965D01*
X0288963Y0092007D01*
X0286237Y0092007D01*
X0283720Y0090965D01*
X0281430Y0088161D02*
X0258301Y0088161D01*
X0261200Y0084963D02*
X0280750Y0084963D01*
X0281591Y0081764D02*
X0261200Y0081764D01*
X0261200Y0078566D02*
X0285614Y0078566D01*
X0289586Y0078566D02*
X0325701Y0078566D01*
X0325701Y0081764D02*
X0293609Y0081764D01*
X0294450Y0084963D02*
X0325701Y0084963D01*
X0325701Y0088161D02*
X0293770Y0088161D01*
X0290526Y0091360D02*
X0325701Y0091360D01*
X0325701Y0094558D02*
X0247200Y0094558D01*
X0246125Y0097757D02*
X0264013Y0097757D01*
X0264272Y0097569D02*
X0265162Y0097115D01*
X0266113Y0096806D01*
X0267100Y0096650D01*
X0267600Y0096650D01*
X0268100Y0096650D01*
X0269087Y0096806D01*
X0270038Y0097115D01*
X0270928Y0097569D01*
X0271737Y0098156D01*
X0272444Y0098863D01*
X0273031Y0099672D01*
X0273485Y0100562D01*
X0273794Y0101513D01*
X0273950Y0102500D01*
X0273950Y0103000D01*
X0273950Y0103500D01*
X0273794Y0104487D01*
X0273485Y0105438D01*
X0273031Y0106328D01*
X0272444Y0107137D01*
X0271737Y0107844D01*
X0270928Y0108431D01*
X0270038Y0108885D01*
X0269087Y0109194D01*
X0268100Y0109350D01*
X0267600Y0109350D01*
X0267600Y0103000D01*
X0267600Y0103000D01*
X0273950Y0103000D01*
X0267600Y0103000D01*
X0267600Y0103000D01*
X0267600Y0103000D01*
X0261250Y0103000D01*
X0261250Y0103500D01*
X0261406Y0104487D01*
X0261715Y0105438D01*
X0262169Y0106328D01*
X0262756Y0107137D01*
X0263463Y0107844D01*
X0264272Y0108431D01*
X0265162Y0108885D01*
X0266113Y0109194D01*
X0267100Y0109350D01*
X0267600Y0109350D01*
X0267600Y0103000D01*
X0267600Y0096650D01*
X0267600Y0103000D01*
X0267600Y0103000D01*
X0261250Y0103000D01*
X0261250Y0102500D01*
X0261406Y0101513D01*
X0261715Y0100562D01*
X0262169Y0099672D01*
X0262756Y0098863D01*
X0263463Y0098156D01*
X0264272Y0097569D01*
X0267600Y0097757D02*
X0267600Y0097757D01*
X0267600Y0100955D02*
X0267600Y0100955D01*
X0267600Y0104154D02*
X0267600Y0104154D01*
X0267600Y0107352D02*
X0267600Y0107352D01*
X0262972Y0107352D02*
X0247135Y0107352D01*
X0247500Y0104154D02*
X0261354Y0104154D01*
X0261588Y0100955D02*
X0246434Y0100955D01*
X0245014Y0110551D02*
X0284170Y0110551D01*
X0284125Y0110659D02*
X0284479Y0109806D01*
X0283789Y0109305D01*
X0283138Y0108654D01*
X0282597Y0107909D01*
X0282179Y0107088D01*
X0281894Y0106212D01*
X0281750Y0105303D01*
X0281750Y0104843D01*
X0287600Y0104843D01*
X0287600Y0104842D01*
X0287600Y0098993D01*
X0288060Y0098993D01*
X0288970Y0099137D01*
X0289846Y0099421D01*
X0290666Y0099839D01*
X0291411Y0100380D01*
X0292062Y0101031D01*
X0292603Y0101776D01*
X0293021Y0102597D01*
X0293306Y0103473D01*
X0293450Y0104382D01*
X0293450Y0104842D01*
X0287600Y0104842D01*
X0287600Y0104842D01*
X0287600Y0098993D01*
X0287140Y0098993D01*
X0286230Y0099137D01*
X0285354Y0099421D01*
X0284534Y0099839D01*
X0283789Y0100380D01*
X0283138Y0101031D01*
X0282597Y0101776D01*
X0282179Y0102597D01*
X0281894Y0103473D01*
X0281750Y0104382D01*
X0281750Y0104842D01*
X0287600Y0104842D01*
X0287600Y0104843D01*
X0293450Y0104843D01*
X0293450Y0105303D01*
X0293306Y0106212D01*
X0293021Y0107088D01*
X0292671Y0107775D01*
X0293191Y0107775D01*
X0294514Y0108323D01*
X0295527Y0109336D01*
X0296075Y0110659D01*
X0296075Y0116841D01*
X0295527Y0118164D01*
X0295300Y0118391D01*
X0295300Y0121854D01*
X0294864Y0122907D01*
X0296088Y0122400D01*
X0299112Y0122400D01*
X0301905Y0123557D01*
X0304043Y0125695D01*
X0304704Y0127291D01*
X0305522Y0127700D01*
X0310624Y0127700D01*
X0314900Y0131976D01*
X0314900Y0138024D01*
X0312924Y0140000D01*
X0314900Y0141976D01*
X0314900Y0148024D01*
X0312924Y0150000D01*
X0314900Y0151976D01*
X0314900Y0158024D01*
X0312924Y0160000D01*
X0314900Y0161976D01*
X0314900Y0168024D01*
X0312924Y0170000D01*
X0314900Y0171976D01*
X0314900Y0178024D01*
X0312924Y0180000D01*
X0314900Y0181976D01*
X0314900Y0188024D01*
X0312924Y0190000D01*
X0314900Y0191976D01*
X0314900Y0198024D01*
X0312924Y0200000D01*
X0313789Y0200865D01*
X0314900Y0203548D01*
X0314900Y0206452D01*
X0314815Y0206658D01*
X0316792Y0207477D01*
X0318873Y0209558D01*
X0320000Y0212278D01*
X0320000Y0215222D01*
X0318873Y0217942D01*
X0316792Y0220023D01*
X0314072Y0221150D01*
X0311128Y0221150D01*
X0308408Y0220023D01*
X0306327Y0217942D01*
X0305200Y0215222D01*
X0305200Y0212278D01*
X0305331Y0211962D01*
X0303465Y0211189D01*
X0303022Y0210746D01*
X0302122Y0212306D01*
X0299906Y0214522D01*
X0297193Y0216088D01*
X0296560Y0216258D01*
X0297500Y0218528D01*
X0297500Y0221472D01*
X0297200Y0222196D01*
X0297200Y0230439D01*
X0297336Y0231024D01*
X0297200Y0231838D01*
X0297200Y0232662D01*
X0296970Y0233217D01*
X0296871Y0233810D01*
X0296435Y0234510D01*
X0296119Y0235272D01*
X0295694Y0235697D01*
X0295376Y0236207D01*
X0294705Y0236686D01*
X0294122Y0237269D01*
X0293567Y0237499D01*
X0293078Y0237848D01*
X0292274Y0238034D01*
X0291512Y0238350D01*
X0290911Y0238350D01*
X0290326Y0238486D01*
X0289512Y0238350D01*
X0288688Y0238350D01*
X0288132Y0238120D01*
X0286812Y0237900D01*
X0284362Y0237900D01*
X0286200Y0239738D01*
X0286200Y0246862D01*
X0281162Y0251900D01*
X0274038Y0251900D01*
X0269000Y0246862D01*
X0269000Y0239738D01*
X0270838Y0237900D01*
X0259362Y0237900D01*
X0261200Y0239738D01*
X0261200Y0246862D01*
X0256162Y0251900D01*
X0249038Y0251900D01*
X0244000Y0246862D01*
X0244000Y0239738D01*
X0245838Y0237900D01*
X0234362Y0237900D01*
X0236200Y0239738D01*
X0236200Y0246862D01*
X0231162Y0251900D01*
X0224038Y0251900D01*
X0221002Y0248864D01*
X0220165Y0250884D01*
X0218484Y0252565D01*
X0217486Y0252979D01*
X0219292Y0253727D01*
X0221373Y0255808D01*
X0221657Y0256494D01*
X0221884Y0256400D01*
X0233316Y0256400D01*
X0233543Y0256494D01*
X0233827Y0255808D01*
X0235908Y0253727D01*
X0238628Y0252600D01*
X0241572Y0252600D01*
X0244292Y0253727D01*
X0246373Y0255808D01*
X0246657Y0256494D01*
X0246884Y0256400D01*
X0258316Y0256400D01*
X0258543Y0256494D01*
X0258827Y0255808D01*
X0260908Y0253727D01*
X0263628Y0252600D01*
X0266572Y0252600D01*
X0269292Y0253727D01*
X0271373Y0255808D01*
X0271657Y0256494D01*
X0271884Y0256400D01*
X0283316Y0256400D01*
X0283543Y0256494D01*
X0283827Y0255808D01*
X0285908Y0253727D01*
X0288628Y0252600D01*
X0291572Y0252600D01*
X0294292Y0253727D01*
X0296373Y0255808D01*
X0296657Y0256494D01*
X0296884Y0256400D01*
X0305688Y0256400D01*
X0305200Y0255222D01*
X0305200Y0252278D01*
X0305357Y0251900D01*
X0299038Y0251900D01*
X0294000Y0246862D01*
X0294000Y0239738D01*
X0299038Y0234700D01*
X0306162Y0234700D01*
X0311200Y0239738D01*
X0311200Y0246350D01*
X0314072Y0246350D01*
X0316792Y0247477D01*
X0318873Y0249558D01*
X0320000Y0252278D01*
X0320000Y0255222D01*
X0318873Y0257942D01*
X0316792Y0260023D01*
X0314072Y0261150D01*
X0311200Y0261150D01*
X0311200Y0270716D01*
X0310652Y0272039D01*
X0309639Y0273052D01*
X0308316Y0273600D01*
X0296884Y0273600D01*
X0295561Y0273052D01*
X0294548Y0272039D01*
X0294000Y0270716D01*
X0294000Y0266394D01*
X0291572Y0267400D01*
X0288628Y0267400D01*
X0286200Y0266394D01*
X0286200Y0270716D01*
X0285652Y0272039D01*
X0284639Y0273052D01*
X0283316Y0273600D01*
X0271884Y0273600D01*
X0270561Y0273052D01*
X0269548Y0272039D01*
X0269000Y0270716D01*
X0269000Y0266394D01*
X0266572Y0267400D01*
X0263628Y0267400D01*
X0261200Y0266394D01*
X0261200Y0270716D01*
X0260652Y0272039D01*
X0259639Y0273052D01*
X0258316Y0273600D01*
X0246884Y0273600D01*
X0245561Y0273052D01*
X0244548Y0272039D01*
X0244000Y0270716D01*
X0244000Y0266394D01*
X0241572Y0267400D01*
X0238628Y0267400D01*
X0236200Y0266394D01*
X0236200Y0270716D01*
X0235652Y0272039D01*
X0234639Y0273052D01*
X0233316Y0273600D01*
X0221884Y0273600D01*
X0220561Y0273052D01*
X0219548Y0272039D01*
X0219000Y0270716D01*
X0219000Y0266394D01*
X0216572Y0267400D01*
X0213628Y0267400D01*
X0211200Y0266394D01*
X0211200Y0270716D01*
X0210652Y0272039D01*
X0209639Y0273052D01*
X0208316Y0273600D01*
X0196884Y0273600D01*
X0195561Y0273052D01*
X0194548Y0272039D01*
X0194000Y0270716D01*
X0194000Y0266394D01*
X0191572Y0267400D01*
X0188628Y0267400D01*
X0186200Y0266394D01*
X0186200Y0270716D01*
X0185652Y0272039D01*
X0184639Y0273052D01*
X0183316Y0273600D01*
X0171884Y0273600D01*
X0170561Y0273052D01*
X0169548Y0272039D01*
X0169000Y0270716D01*
X0169000Y0266394D01*
X0166572Y0267400D01*
X0163628Y0267400D01*
X0161200Y0266394D01*
X0161200Y0270716D01*
X0160652Y0272039D01*
X0159639Y0273052D01*
X0158316Y0273600D01*
X0146884Y0273600D01*
X0145561Y0273052D01*
X0144548Y0272039D01*
X0144000Y0270716D01*
X0144000Y0259284D01*
X0144548Y0257961D01*
X0145561Y0256948D01*
X0146884Y0256400D01*
X0158316Y0256400D01*
X0158543Y0256494D01*
X0158827Y0255808D01*
X0160908Y0253727D01*
X0163628Y0252600D01*
X0163896Y0252600D01*
X0168404Y0248092D01*
X0169695Y0247557D01*
X0169000Y0246862D01*
X0169000Y0239738D01*
X0170838Y0237900D01*
X0159362Y0237900D01*
X0161200Y0239738D01*
X0161200Y0246862D01*
X0156162Y0251900D01*
X0149038Y0251900D01*
X0144000Y0246862D01*
X0144000Y0239738D01*
X0145838Y0237900D01*
X0137509Y0237900D01*
X0137531Y0237953D01*
X0137531Y0252047D01*
X0136983Y0253370D01*
X0135970Y0254383D01*
X0134647Y0254931D01*
X0120553Y0254931D01*
X0119230Y0254383D01*
X0118217Y0253370D01*
X0117669Y0252047D01*
X0117669Y0237953D01*
X0117857Y0237500D01*
X0117669Y0237047D01*
X0117669Y0222953D01*
X0118217Y0221630D01*
X0119230Y0220617D01*
X0120553Y0220069D01*
X0134647Y0220069D01*
X0135970Y0220617D01*
X0136983Y0221630D01*
X0137177Y0222100D01*
X0157960Y0222100D01*
X0157700Y0221472D01*
X0157700Y0218528D01*
X0158827Y0215808D01*
X0160908Y0213727D01*
X0163628Y0212600D01*
X0166572Y0212600D01*
X0169292Y0213727D01*
X0171373Y0215808D01*
X0172500Y0218528D01*
X0172500Y0221472D01*
X0172240Y0222100D01*
X0182960Y0222100D01*
X0182700Y0221472D01*
X0182700Y0218528D01*
X0183827Y0215808D01*
X0185908Y0213727D01*
X0188628Y0212600D01*
X0191572Y0212600D01*
X0194292Y0213727D01*
X0196373Y0215808D01*
X0197500Y0218528D01*
X0197500Y0221472D01*
X0197240Y0222100D01*
X0207960Y0222100D01*
X0207700Y0221472D01*
X0207700Y0218528D01*
X0208827Y0215808D01*
X0210908Y0213727D01*
X0213628Y0212600D01*
X0216572Y0212600D01*
X0219292Y0213727D01*
X0221373Y0215808D01*
X0222500Y0218528D01*
X0222500Y0221472D01*
X0222240Y0222100D01*
X0232960Y0222100D01*
X0232700Y0221472D01*
X0232700Y0218528D01*
X0233827Y0215808D01*
X0234543Y0215092D01*
X0184549Y0205660D01*
X0183788Y0205975D01*
X0181412Y0205975D01*
X0179216Y0205065D01*
X0177535Y0203384D01*
X0176625Y0201188D01*
X0176625Y0198812D01*
X0177535Y0196616D01*
X0179216Y0194935D01*
X0181412Y0194025D01*
X0183788Y0194025D01*
X0185984Y0194935D01*
X0186492Y0195443D01*
X0246901Y0206840D01*
X0247662Y0206525D01*
X0250038Y0206525D01*
X0252234Y0207435D01*
X0253915Y0209116D01*
X0254825Y0211312D01*
X0254825Y0213688D01*
X0253915Y0215884D01*
X0252234Y0217565D01*
X0250038Y0218475D01*
X0247662Y0218475D01*
X0247440Y0218383D01*
X0247500Y0218528D01*
X0247500Y0221472D01*
X0247240Y0222100D01*
X0257960Y0222100D01*
X0257700Y0221472D01*
X0257700Y0218528D01*
X0258827Y0215808D01*
X0260908Y0213727D01*
X0263628Y0212600D01*
X0266572Y0212600D01*
X0267342Y0212919D01*
X0266625Y0211188D01*
X0266625Y0208812D01*
X0267535Y0206616D01*
X0269216Y0204935D01*
X0270594Y0204364D01*
X0283650Y0189224D01*
X0283650Y0126886D01*
X0283554Y0126499D01*
X0283650Y0125861D01*
X0283650Y0125216D01*
X0283803Y0124847D01*
X0284314Y0121447D01*
X0284314Y0120801D01*
X0284467Y0120433D01*
X0284526Y0120039D01*
X0284859Y0119486D01*
X0284900Y0119387D01*
X0284900Y0118391D01*
X0284673Y0118164D01*
X0284125Y0116841D01*
X0284125Y0110659D01*
X0284125Y0113749D02*
X0008200Y0113749D01*
X0008200Y0110551D02*
X0025186Y0110551D01*
X0023065Y0107352D02*
X0008200Y0107352D01*
X0008200Y0104154D02*
X0022700Y0104154D01*
X0023000Y0100955D02*
X0008200Y0100955D01*
X0008200Y0097757D02*
X0023000Y0097757D01*
X0023000Y0094558D02*
X0008200Y0094558D01*
X0008200Y0091360D02*
X0023405Y0091360D01*
X0021162Y0090300D02*
X0014038Y0090300D01*
X0009000Y0085262D01*
X0009000Y0078138D01*
X0014038Y0073100D01*
X0021162Y0073100D01*
X0026200Y0078138D01*
X0026200Y0085262D01*
X0021162Y0090300D01*
X0023301Y0088161D02*
X0025648Y0088161D01*
X0026200Y0084963D02*
X0034000Y0084963D01*
X0034000Y0081764D02*
X0026200Y0081764D01*
X0026200Y0078566D02*
X0034000Y0078566D01*
X0036771Y0075367D02*
X0023429Y0075367D01*
X0028070Y0072169D02*
X0008200Y0072169D01*
X0008200Y0075367D02*
X0011771Y0075367D01*
X0009000Y0078566D02*
X0008200Y0078566D01*
X0008200Y0081764D02*
X0009000Y0081764D01*
X0009000Y0084963D02*
X0008200Y0084963D01*
X0008200Y0088161D02*
X0011899Y0088161D01*
X0008200Y0068970D02*
X0023735Y0068970D01*
X0032130Y0072169D02*
X0053070Y0072169D01*
X0048735Y0068970D02*
X0036465Y0068970D01*
X0034000Y0056176D02*
X0026200Y0056176D01*
X0025659Y0052978D02*
X0034541Y0052978D01*
X0038159Y0041981D02*
X0035535Y0040467D01*
X0033393Y0038324D01*
X0031879Y0035701D01*
X0031094Y0032775D01*
X0031094Y0029745D01*
X0031879Y0026819D01*
X0033393Y0024195D01*
X0035535Y0022053D01*
X0038159Y0020538D01*
X0041085Y0019754D01*
X0044115Y0019754D01*
X0047041Y0020538D01*
X0049665Y0022053D01*
X0051807Y0024195D01*
X0053321Y0026819D01*
X0054105Y0029745D01*
X0054105Y0032775D01*
X0053321Y0035701D01*
X0051807Y0038324D01*
X0049665Y0040467D01*
X0047041Y0041981D01*
X0044115Y0042765D01*
X0041085Y0042765D01*
X0038159Y0041981D01*
X0035253Y0040184D02*
X0024947Y0040184D01*
X0027580Y0036985D02*
X0032620Y0036985D01*
X0031366Y0033787D02*
X0028834Y0033787D01*
X0029105Y0030588D02*
X0031094Y0030588D01*
X0031726Y0027390D02*
X0028474Y0027390D01*
X0026802Y0024191D02*
X0033398Y0024191D01*
X0037372Y0020993D02*
X0022828Y0020993D01*
X0010253Y0040184D02*
X0008200Y0040184D01*
X0008200Y0043382D02*
X0325701Y0043382D01*
X0325701Y0040184D02*
X0321184Y0040184D01*
X0320902Y0040388D02*
X0320018Y0040838D01*
X0319075Y0041145D01*
X0318096Y0041300D01*
X0317600Y0041300D01*
X0317600Y0035000D01*
X0317600Y0035000D01*
X0323900Y0035000D01*
X0323900Y0035496D01*
X0323745Y0036475D01*
X0323438Y0037418D01*
X0322988Y0038302D01*
X0322405Y0039104D01*
X0321704Y0039805D01*
X0320902Y0040388D01*
X0317600Y0040184D02*
X0317600Y0040184D01*
X0317600Y0041300D02*
X0317104Y0041300D01*
X0316125Y0041145D01*
X0315182Y0040838D01*
X0314298Y0040388D01*
X0313496Y0039805D01*
X0312795Y0039104D01*
X0312600Y0038836D01*
X0312405Y0039104D01*
X0311704Y0039805D01*
X0310902Y0040388D01*
X0310018Y0040838D01*
X0309075Y0041145D01*
X0308096Y0041300D01*
X0307600Y0041300D01*
X0307600Y0035000D01*
X0307600Y0035000D01*
X0317600Y0035000D01*
X0317600Y0035000D01*
X0317600Y0041300D01*
X0314016Y0040184D02*
X0311184Y0040184D01*
X0307600Y0040184D02*
X0307600Y0040184D01*
X0307600Y0041300D02*
X0307104Y0041300D01*
X0306125Y0041145D01*
X0305182Y0040838D01*
X0304298Y0040388D01*
X0303496Y0039805D01*
X0302795Y0039104D01*
X0302212Y0038302D01*
X0301762Y0037418D01*
X0301455Y0036475D01*
X0301300Y0035496D01*
X0301300Y0035000D01*
X0307600Y0035000D01*
X0307600Y0035000D01*
X0307600Y0035000D01*
X0307600Y0041300D01*
X0304016Y0040184D02*
X0259947Y0040184D01*
X0259665Y0040467D02*
X0257041Y0041981D01*
X0254115Y0042765D01*
X0251085Y0042765D01*
X0248159Y0041981D01*
X0245535Y0040467D01*
X0243393Y0038324D01*
X0241879Y0035701D01*
X0241094Y0032775D01*
X0241094Y0029745D01*
X0241879Y0026819D01*
X0243393Y0024195D01*
X0245535Y0022053D01*
X0248159Y0020538D01*
X0251085Y0019754D01*
X0254115Y0019754D01*
X0257041Y0020538D01*
X0259665Y0022053D01*
X0261807Y0024195D01*
X0263321Y0026819D01*
X0264105Y0029745D01*
X0264105Y0032775D01*
X0263321Y0035701D01*
X0261807Y0038324D01*
X0259665Y0040467D01*
X0262580Y0036985D02*
X0301621Y0036985D01*
X0301300Y0035000D02*
X0301300Y0034504D01*
X0301455Y0033525D01*
X0301762Y0032582D01*
X0302212Y0031698D01*
X0302795Y0030896D01*
X0303496Y0030195D01*
X0304298Y0029612D01*
X0305182Y0029162D01*
X0306125Y0028855D01*
X0307104Y0028700D01*
X0307600Y0028700D01*
X0308096Y0028700D01*
X0309075Y0028855D01*
X0310018Y0029162D01*
X0310902Y0029612D01*
X0311704Y0030195D01*
X0312405Y0030896D01*
X0312600Y0031164D01*
X0312795Y0030896D01*
X0313496Y0030195D01*
X0314298Y0029612D01*
X0315182Y0029162D01*
X0316125Y0028855D01*
X0317104Y0028700D01*
X0317600Y0028700D01*
X0318096Y0028700D01*
X0319075Y0028855D01*
X0320018Y0029162D01*
X0320902Y0029612D01*
X0321704Y0030195D01*
X0322405Y0030896D01*
X0322988Y0031698D01*
X0323438Y0032582D01*
X0323745Y0033525D01*
X0323900Y0034504D01*
X0323900Y0035000D01*
X0317600Y0035000D01*
X0317600Y0028700D01*
X0317600Y0035000D01*
X0317600Y0035000D01*
X0317600Y0035000D01*
X0313900Y0035000D01*
X0307600Y0035000D01*
X0307600Y0028700D01*
X0307600Y0035000D01*
X0307600Y0035000D01*
X0301300Y0035000D01*
X0301414Y0033787D02*
X0263834Y0033787D01*
X0264105Y0030588D02*
X0303102Y0030588D01*
X0307600Y0030588D02*
X0307600Y0030588D01*
X0307600Y0033787D02*
X0307600Y0033787D01*
X0307600Y0036985D02*
X0307600Y0036985D01*
X0312098Y0030588D02*
X0313102Y0030588D01*
X0317600Y0030588D02*
X0317600Y0030588D01*
X0317600Y0033787D02*
X0317600Y0033787D01*
X0317600Y0036985D02*
X0317600Y0036985D01*
X0323579Y0036985D02*
X0325701Y0036985D01*
X0325701Y0033787D02*
X0323786Y0033787D01*
X0322098Y0030588D02*
X0325701Y0030588D01*
X0325701Y0027390D02*
X0263474Y0027390D01*
X0261802Y0024191D02*
X0309963Y0024191D01*
X0307320Y0020993D02*
X0257828Y0020993D01*
X0247372Y0020993D02*
X0232828Y0020993D01*
X0232041Y0020538D02*
X0234665Y0022053D01*
X0236807Y0024195D01*
X0238321Y0026819D01*
X0239105Y0029745D01*
X0239105Y0032775D01*
X0238321Y0035701D01*
X0236807Y0038324D01*
X0234665Y0040467D01*
X0232041Y0041981D01*
X0229115Y0042765D01*
X0226085Y0042765D01*
X0223159Y0041981D01*
X0220535Y0040467D01*
X0218393Y0038324D01*
X0216879Y0035701D01*
X0216094Y0032775D01*
X0216094Y0029745D01*
X0216879Y0026819D01*
X0218393Y0024195D01*
X0220535Y0022053D01*
X0223159Y0020538D01*
X0226085Y0019754D01*
X0229115Y0019754D01*
X0232041Y0020538D01*
X0236802Y0024191D02*
X0243398Y0024191D01*
X0241726Y0027390D02*
X0238474Y0027390D01*
X0239105Y0030588D02*
X0241094Y0030588D01*
X0241366Y0033787D02*
X0238834Y0033787D01*
X0237580Y0036985D02*
X0242620Y0036985D01*
X0245253Y0040184D02*
X0234947Y0040184D01*
X0235659Y0052978D02*
X0244541Y0052978D01*
X0244000Y0056176D02*
X0236200Y0056176D01*
X0233735Y0068970D02*
X0221465Y0068970D01*
X0221771Y0075367D02*
X0208429Y0075367D01*
X0211200Y0078566D02*
X0219000Y0078566D01*
X0219000Y0081764D02*
X0211200Y0081764D01*
X0211200Y0084963D02*
X0219000Y0084963D01*
X0222200Y0100955D02*
X0233766Y0100955D01*
X0232700Y0104154D02*
X0222500Y0104154D01*
X0222135Y0107352D02*
X0233065Y0107352D01*
X0235186Y0110551D02*
X0220014Y0110551D01*
X0210186Y0110551D02*
X0195014Y0110551D01*
X0197135Y0107352D02*
X0208065Y0107352D01*
X0207700Y0104154D02*
X0197500Y0104154D01*
X0197200Y0100955D02*
X0208000Y0100955D01*
X0194000Y0084963D02*
X0186200Y0084963D01*
X0186200Y0081764D02*
X0194000Y0081764D01*
X0194000Y0078566D02*
X0186200Y0078566D01*
X0183429Y0075367D02*
X0196771Y0075367D01*
X0196465Y0068970D02*
X0208735Y0068970D01*
X0211200Y0056176D02*
X0219000Y0056176D01*
X0219541Y0052978D02*
X0210659Y0052978D01*
X0207041Y0041981D02*
X0204115Y0042765D01*
X0201085Y0042765D01*
X0198159Y0041981D01*
X0195535Y0040467D01*
X0193393Y0038324D01*
X0191879Y0035701D01*
X0191094Y0032775D01*
X0191094Y0029745D01*
X0191879Y0026819D01*
X0193393Y0024195D01*
X0195535Y0022053D01*
X0198159Y0020538D01*
X0201085Y0019754D01*
X0204115Y0019754D01*
X0207041Y0020538D01*
X0209665Y0022053D01*
X0211807Y0024195D01*
X0213321Y0026819D01*
X0214105Y0029745D01*
X0214105Y0032775D01*
X0213321Y0035701D01*
X0211807Y0038324D01*
X0209665Y0040467D01*
X0207041Y0041981D01*
X0209947Y0040184D02*
X0220253Y0040184D01*
X0217620Y0036985D02*
X0212580Y0036985D01*
X0213834Y0033787D02*
X0216366Y0033787D01*
X0216094Y0030588D02*
X0214105Y0030588D01*
X0213474Y0027390D02*
X0216726Y0027390D01*
X0218398Y0024191D02*
X0211802Y0024191D01*
X0207828Y0020993D02*
X0222372Y0020993D01*
X0197372Y0020993D02*
X0182828Y0020993D01*
X0182041Y0020538D02*
X0184665Y0022053D01*
X0186807Y0024195D01*
X0188321Y0026819D01*
X0189105Y0029745D01*
X0189105Y0032775D01*
X0188321Y0035701D01*
X0186807Y0038324D01*
X0184665Y0040467D01*
X0182041Y0041981D01*
X0179115Y0042765D01*
X0176085Y0042765D01*
X0173159Y0041981D01*
X0170535Y0040467D01*
X0168393Y0038324D01*
X0166879Y0035701D01*
X0166094Y0032775D01*
X0166094Y0029745D01*
X0166879Y0026819D01*
X0168393Y0024195D01*
X0170535Y0022053D01*
X0173159Y0020538D01*
X0176085Y0019754D01*
X0179115Y0019754D01*
X0182041Y0020538D01*
X0186802Y0024191D02*
X0193398Y0024191D01*
X0191726Y0027390D02*
X0188474Y0027390D01*
X0189105Y0030588D02*
X0191094Y0030588D01*
X0191366Y0033787D02*
X0188834Y0033787D01*
X0187580Y0036985D02*
X0192620Y0036985D01*
X0195253Y0040184D02*
X0184947Y0040184D01*
X0185659Y0052978D02*
X0194541Y0052978D01*
X0194000Y0056176D02*
X0186200Y0056176D01*
X0183735Y0068970D02*
X0171465Y0068970D01*
X0171771Y0075367D02*
X0158429Y0075367D01*
X0161200Y0078566D02*
X0169000Y0078566D01*
X0169000Y0081764D02*
X0161200Y0081764D01*
X0161200Y0084963D02*
X0169000Y0084963D01*
X0172200Y0100955D02*
X0183000Y0100955D01*
X0182700Y0104154D02*
X0172500Y0104154D01*
X0172135Y0107352D02*
X0183065Y0107352D01*
X0185186Y0110551D02*
X0170014Y0110551D01*
X0176323Y0118275D02*
X0178850Y0118275D01*
X0181377Y0118275D01*
X0184950Y0121848D01*
X0184950Y0124375D01*
X0184950Y0126901D01*
X0183496Y0128355D01*
X0185950Y0130809D01*
X0185950Y0136691D01*
X0184203Y0138438D01*
X0185950Y0140184D01*
X0185950Y0146066D01*
X0181791Y0150225D01*
X0175909Y0150225D01*
X0171750Y0146066D01*
X0171750Y0140184D01*
X0173497Y0138438D01*
X0171750Y0136691D01*
X0171750Y0130809D01*
X0174204Y0128355D01*
X0172750Y0126901D01*
X0172750Y0124375D01*
X0178850Y0124375D01*
X0184950Y0124375D01*
X0178850Y0124375D01*
X0178850Y0124375D01*
X0178850Y0124375D01*
X0172750Y0124375D01*
X0172750Y0121848D01*
X0176323Y0118275D01*
X0178850Y0118275D02*
X0178850Y0124375D01*
X0178850Y0118275D01*
X0178850Y0120146D02*
X0178850Y0120146D01*
X0178850Y0123345D02*
X0178850Y0123345D01*
X0178850Y0124375D02*
X0178850Y0124375D01*
X0174452Y0120146D02*
X0161998Y0120146D01*
X0163700Y0121848D02*
X0163700Y0124375D01*
X0163700Y0126901D01*
X0162246Y0128355D01*
X0164700Y0130809D01*
X0164700Y0136691D01*
X0162953Y0138438D01*
X0164700Y0140184D01*
X0164700Y0146066D01*
X0160541Y0150225D01*
X0154659Y0150225D01*
X0150500Y0146066D01*
X0150500Y0140184D01*
X0152247Y0138438D01*
X0150500Y0136691D01*
X0150500Y0130809D01*
X0152954Y0128355D01*
X0151500Y0126901D01*
X0151500Y0124375D01*
X0157600Y0124375D01*
X0163700Y0124375D01*
X0157600Y0124375D01*
X0157600Y0124375D01*
X0157600Y0124375D01*
X0151500Y0124375D01*
X0151500Y0121848D01*
X0155073Y0118275D01*
X0157600Y0118275D01*
X0160127Y0118275D01*
X0163700Y0121848D01*
X0163700Y0123345D02*
X0172750Y0123345D01*
X0172750Y0126543D02*
X0163700Y0126543D01*
X0163633Y0129742D02*
X0172817Y0129742D01*
X0171750Y0132940D02*
X0164700Y0132940D01*
X0164700Y0136139D02*
X0171750Y0136139D01*
X0172597Y0139337D02*
X0163853Y0139337D01*
X0164700Y0142536D02*
X0171750Y0142536D01*
X0171750Y0145734D02*
X0164700Y0145734D01*
X0161833Y0148933D02*
X0174617Y0148933D01*
X0183083Y0148933D02*
X0228375Y0148933D01*
X0228375Y0150000D02*
X0228375Y0147473D01*
X0230648Y0145200D01*
X0216816Y0145200D01*
X0214916Y0147100D01*
X0209034Y0147100D01*
X0207288Y0145353D01*
X0205541Y0147100D01*
X0199659Y0147100D01*
X0197205Y0144646D01*
X0195751Y0146100D01*
X0193225Y0146100D01*
X0193225Y0140000D01*
X0193225Y0140000D01*
X0193225Y0133900D01*
X0195751Y0133900D01*
X0197205Y0135354D01*
X0199659Y0132900D01*
X0205541Y0132900D01*
X0207288Y0134647D01*
X0209034Y0132900D01*
X0214916Y0132900D01*
X0216816Y0134800D01*
X0230648Y0134800D01*
X0228375Y0132527D01*
X0228375Y0130000D01*
X0228375Y0127473D01*
X0231948Y0123900D01*
X0234475Y0123900D01*
X0237001Y0123900D01*
X0238455Y0125354D01*
X0240909Y0122900D01*
X0246791Y0122900D01*
X0248538Y0124647D01*
X0250284Y0122900D01*
X0256166Y0122900D01*
X0258066Y0124800D01*
X0262052Y0124800D01*
X0263295Y0123557D01*
X0266088Y0122400D01*
X0269112Y0122400D01*
X0271905Y0123557D01*
X0274043Y0125695D01*
X0275200Y0128488D01*
X0275200Y0131512D01*
X0274043Y0134305D01*
X0273348Y0135000D01*
X0274043Y0135695D01*
X0275200Y0138488D01*
X0275200Y0141512D01*
X0274043Y0144305D01*
X0273348Y0145000D01*
X0274043Y0145695D01*
X0275200Y0148488D01*
X0275200Y0151512D01*
X0274043Y0154305D01*
X0273348Y0155000D01*
X0274043Y0155695D01*
X0275200Y0158488D01*
X0275200Y0161512D01*
X0274043Y0164305D01*
X0273348Y0165000D01*
X0274043Y0165695D01*
X0275200Y0168488D01*
X0275200Y0171512D01*
X0274043Y0174305D01*
X0273348Y0175000D01*
X0274043Y0175695D01*
X0275200Y0178488D01*
X0275200Y0181512D01*
X0274043Y0184305D01*
X0273348Y0185000D01*
X0274043Y0185695D01*
X0275200Y0188488D01*
X0275200Y0191512D01*
X0274043Y0194305D01*
X0271905Y0196443D01*
X0269112Y0197600D01*
X0266088Y0197600D01*
X0263295Y0196443D01*
X0262052Y0195200D01*
X0258066Y0195200D01*
X0256166Y0197100D01*
X0250284Y0197100D01*
X0248538Y0195353D01*
X0246791Y0197100D01*
X0240909Y0197100D01*
X0238455Y0194646D01*
X0237001Y0196100D01*
X0234475Y0196100D01*
X0234475Y0190000D01*
X0234475Y0190000D01*
X0234475Y0196100D01*
X0231948Y0196100D01*
X0228375Y0192527D01*
X0228375Y0190000D01*
X0228375Y0187473D01*
X0230648Y0185200D01*
X0216816Y0185200D01*
X0214916Y0187100D01*
X0209034Y0187100D01*
X0207288Y0185353D01*
X0205541Y0187100D01*
X0199659Y0187100D01*
X0197205Y0184646D01*
X0195751Y0186100D01*
X0193225Y0186100D01*
X0193225Y0180000D01*
X0193225Y0180000D01*
X0193225Y0173900D01*
X0195751Y0173900D01*
X0197205Y0175354D01*
X0199659Y0172900D01*
X0205541Y0172900D01*
X0207288Y0174647D01*
X0209034Y0172900D01*
X0214916Y0172900D01*
X0216816Y0174800D01*
X0230648Y0174800D01*
X0228375Y0172527D01*
X0228375Y0170000D01*
X0228375Y0167473D01*
X0230648Y0165200D01*
X0216816Y0165200D01*
X0214916Y0167100D01*
X0209034Y0167100D01*
X0207288Y0165353D01*
X0205541Y0167100D01*
X0199659Y0167100D01*
X0197205Y0164646D01*
X0195751Y0166100D01*
X0193225Y0166100D01*
X0193225Y0160000D01*
X0193225Y0160000D01*
X0193225Y0153900D01*
X0195751Y0153900D01*
X0197205Y0155354D01*
X0199659Y0152900D01*
X0205541Y0152900D01*
X0207288Y0154647D01*
X0209034Y0152900D01*
X0214916Y0152900D01*
X0216816Y0154800D01*
X0230648Y0154800D01*
X0228375Y0152527D01*
X0228375Y0150000D01*
X0234475Y0150000D01*
X0234475Y0150000D01*
X0228375Y0150000D01*
X0228375Y0152132D02*
X0092085Y0152132D01*
X0091717Y0151763D02*
X0097008Y0157054D01*
X0097800Y0158966D01*
X0097800Y0159052D01*
X0098295Y0158557D01*
X0101088Y0157400D01*
X0104112Y0157400D01*
X0106905Y0158557D01*
X0109043Y0160695D01*
X0110100Y0163247D01*
X0111157Y0160695D01*
X0113295Y0158557D01*
X0116088Y0157400D01*
X0119112Y0157400D01*
X0121905Y0158557D01*
X0122600Y0159252D01*
X0123295Y0158557D01*
X0126088Y0157400D01*
X0129112Y0157400D01*
X0131905Y0158557D01*
X0132600Y0159252D01*
X0133295Y0158557D01*
X0136088Y0157400D01*
X0139112Y0157400D01*
X0141905Y0158557D01*
X0142600Y0159252D01*
X0143295Y0158557D01*
X0146088Y0157400D01*
X0149112Y0157400D01*
X0151905Y0158557D01*
X0152600Y0159252D01*
X0153295Y0158557D01*
X0156088Y0157400D01*
X0159112Y0157400D01*
X0161905Y0158557D01*
X0162600Y0159252D01*
X0163295Y0158557D01*
X0166088Y0157400D01*
X0169112Y0157400D01*
X0171905Y0158557D01*
X0174043Y0160695D01*
X0175200Y0163488D01*
X0175200Y0166512D01*
X0174043Y0169305D01*
X0171905Y0171443D01*
X0169112Y0172600D01*
X0166088Y0172600D01*
X0163295Y0171443D01*
X0162600Y0170748D01*
X0161905Y0171443D01*
X0159112Y0172600D01*
X0156088Y0172600D01*
X0153295Y0171443D01*
X0152600Y0170748D01*
X0151905Y0171443D01*
X0149112Y0172600D01*
X0146088Y0172600D01*
X0143295Y0171443D01*
X0142600Y0170748D01*
X0141905Y0171443D01*
X0139112Y0172600D01*
X0136088Y0172600D01*
X0133295Y0171443D01*
X0132600Y0170748D01*
X0131905Y0171443D01*
X0129112Y0172600D01*
X0126088Y0172600D01*
X0123295Y0171443D01*
X0122600Y0170748D01*
X0121905Y0171443D01*
X0119112Y0172600D01*
X0116088Y0172600D01*
X0113295Y0171443D01*
X0111157Y0169305D01*
X0110100Y0166753D01*
X0109043Y0169305D01*
X0106905Y0171443D01*
X0104112Y0172600D01*
X0101088Y0172600D01*
X0098295Y0171443D01*
X0097600Y0170748D01*
X0096905Y0171443D01*
X0094112Y0172600D01*
X0091088Y0172600D01*
X0088295Y0171443D01*
X0087600Y0170748D01*
X0086905Y0171443D01*
X0084112Y0172600D01*
X0081088Y0172600D01*
X0078295Y0171443D01*
X0076157Y0169305D01*
X0075000Y0166512D01*
X0075000Y0163488D01*
X0076157Y0160695D01*
X0076652Y0160200D01*
X0046566Y0160200D01*
X0044654Y0159408D01*
X0035471Y0150225D01*
X0029659Y0150225D01*
X0025500Y0146066D01*
X0025500Y0140184D01*
X0027247Y0138438D01*
X0025500Y0136691D01*
X0025500Y0130809D01*
X0027954Y0128355D01*
X0026500Y0126901D01*
X0026500Y0124375D01*
X0032600Y0124375D01*
X0038700Y0124375D01*
X0038700Y0126901D01*
X0037246Y0128355D01*
X0039700Y0130809D01*
X0039700Y0136691D01*
X0037953Y0138438D01*
X0038532Y0139016D01*
X0039280Y0139326D01*
X0039842Y0139888D01*
X0039842Y0139888D01*
X0040544Y0140590D01*
X0040574Y0140620D01*
X0041305Y0141351D01*
X0045500Y0145546D01*
X0045500Y0140184D01*
X0047247Y0138438D01*
X0045500Y0136691D01*
X0045500Y0130809D01*
X0047954Y0128355D01*
X0046500Y0126901D01*
X0046500Y0124375D01*
X0052600Y0124375D01*
X0058700Y0124375D01*
X0058700Y0126901D01*
X0057246Y0128355D01*
X0059700Y0130809D01*
X0059700Y0136691D01*
X0057953Y0138438D01*
X0059700Y0140184D01*
X0059700Y0146066D01*
X0055966Y0149800D01*
X0069234Y0149800D01*
X0065500Y0146066D01*
X0065500Y0140184D01*
X0067247Y0138438D01*
X0065500Y0136691D01*
X0065500Y0130809D01*
X0067954Y0128355D01*
X0066500Y0126901D01*
X0066500Y0124375D01*
X0072600Y0124375D01*
X0078700Y0124375D01*
X0078700Y0126901D01*
X0077246Y0128355D01*
X0079700Y0130809D01*
X0079700Y0136691D01*
X0077953Y0138438D01*
X0079700Y0140184D01*
X0079700Y0146066D01*
X0075966Y0149800D01*
X0087773Y0149800D01*
X0091154Y0151201D01*
X0091717Y0151763D01*
X0091717Y0151763D01*
X0090909Y0150225D02*
X0086750Y0146066D01*
X0086750Y0140184D01*
X0088497Y0138438D01*
X0086750Y0136691D01*
X0086750Y0130809D01*
X0089204Y0128355D01*
X0087750Y0126901D01*
X0087750Y0124375D01*
X0093850Y0124375D01*
X0099950Y0124375D01*
X0099950Y0126901D01*
X0098496Y0128355D01*
X0100950Y0130809D01*
X0100950Y0136691D01*
X0099203Y0138438D01*
X0100950Y0140184D01*
X0100950Y0146066D01*
X0096791Y0150225D01*
X0090909Y0150225D01*
X0089617Y0148933D02*
X0076833Y0148933D01*
X0079700Y0145734D02*
X0086750Y0145734D01*
X0086750Y0142536D02*
X0079700Y0142536D01*
X0078853Y0139337D02*
X0087597Y0139337D01*
X0086750Y0136139D02*
X0079700Y0136139D01*
X0079700Y0132940D02*
X0086750Y0132940D01*
X0087817Y0129742D02*
X0078633Y0129742D01*
X0078700Y0126543D02*
X0087750Y0126543D01*
X0087750Y0124375D02*
X0087750Y0121848D01*
X0091323Y0118275D01*
X0093850Y0118275D01*
X0096377Y0118275D01*
X0099950Y0121848D01*
X0099950Y0124375D01*
X0093850Y0124375D01*
X0093850Y0124375D01*
X0093850Y0124375D01*
X0087750Y0124375D01*
X0087750Y0123345D02*
X0078700Y0123345D01*
X0078700Y0124375D02*
X0072600Y0124375D01*
X0072600Y0124375D01*
X0072600Y0124375D01*
X0066500Y0124375D01*
X0066500Y0121848D01*
X0070073Y0118275D01*
X0072600Y0118275D01*
X0075127Y0118275D01*
X0078700Y0121848D01*
X0078700Y0124375D01*
X0076998Y0120146D02*
X0089452Y0120146D01*
X0093850Y0120146D02*
X0093850Y0120146D01*
X0093850Y0118275D02*
X0093850Y0124375D01*
X0093850Y0124375D01*
X0093850Y0118275D01*
X0098248Y0120146D02*
X0110702Y0120146D01*
X0109000Y0121848D02*
X0109000Y0124375D01*
X0115100Y0124375D01*
X0121200Y0124375D01*
X0121200Y0126901D01*
X0119746Y0128355D01*
X0122200Y0130809D01*
X0122200Y0136691D01*
X0120453Y0138438D01*
X0122200Y0140184D01*
X0122200Y0146066D01*
X0118041Y0150225D01*
X0112159Y0150225D01*
X0108000Y0146066D01*
X0108000Y0140184D01*
X0109747Y0138438D01*
X0108000Y0136691D01*
X0108000Y0130809D01*
X0110454Y0128355D01*
X0109000Y0126901D01*
X0109000Y0124375D01*
X0115100Y0124375D01*
X0115100Y0124375D01*
X0115100Y0124375D01*
X0121200Y0124375D01*
X0121200Y0121848D01*
X0117627Y0118275D01*
X0115100Y0118275D01*
X0115100Y0124375D01*
X0115100Y0124375D01*
X0115100Y0118275D01*
X0112573Y0118275D01*
X0109000Y0121848D01*
X0109000Y0123345D02*
X0099950Y0123345D01*
X0099950Y0126543D02*
X0109000Y0126543D01*
X0109067Y0129742D02*
X0099883Y0129742D01*
X0100950Y0132940D02*
X0108000Y0132940D01*
X0108000Y0136139D02*
X0100950Y0136139D01*
X0100103Y0139337D02*
X0108847Y0139337D01*
X0108000Y0142536D02*
X0100950Y0142536D01*
X0100950Y0145734D02*
X0108000Y0145734D01*
X0110867Y0148933D02*
X0098083Y0148933D01*
X0095284Y0155330D02*
X0189268Y0155330D01*
X0190698Y0153900D02*
X0187125Y0157473D01*
X0187125Y0160000D01*
X0193225Y0160000D01*
X0193225Y0160000D01*
X0193225Y0153900D01*
X0190698Y0153900D01*
X0193225Y0155330D02*
X0193225Y0155330D01*
X0193225Y0158529D02*
X0193225Y0158529D01*
X0193225Y0160000D02*
X0193225Y0160000D01*
X0193225Y0166100D01*
X0190698Y0166100D01*
X0187125Y0162527D01*
X0187125Y0160000D01*
X0193225Y0160000D01*
X0193225Y0161727D02*
X0193225Y0161727D01*
X0193225Y0164926D02*
X0193225Y0164926D01*
X0196926Y0164926D02*
X0197485Y0164926D01*
X0189524Y0164926D02*
X0175200Y0164926D01*
X0174532Y0168124D02*
X0228375Y0168124D01*
X0228375Y0170000D02*
X0234475Y0170000D01*
X0234475Y0170000D01*
X0228375Y0170000D01*
X0228375Y0171323D02*
X0172025Y0171323D01*
X0163175Y0171323D02*
X0162025Y0171323D01*
X0153175Y0171323D02*
X0152025Y0171323D01*
X0143175Y0171323D02*
X0142025Y0171323D01*
X0133175Y0171323D02*
X0132025Y0171323D01*
X0123175Y0171323D02*
X0122025Y0171323D01*
X0113175Y0171323D02*
X0107025Y0171323D01*
X0109532Y0168124D02*
X0110668Y0168124D01*
X0110730Y0161727D02*
X0109470Y0161727D01*
X0106836Y0158529D02*
X0113364Y0158529D01*
X0121836Y0158529D02*
X0123364Y0158529D01*
X0131836Y0158529D02*
X0133364Y0158529D01*
X0133409Y0150225D02*
X0129250Y0146066D01*
X0129250Y0140184D01*
X0130997Y0138438D01*
X0129250Y0136691D01*
X0129250Y0130809D01*
X0131704Y0128355D01*
X0130250Y0126901D01*
X0130250Y0124375D01*
X0136350Y0124375D01*
X0142450Y0124375D01*
X0142450Y0126901D01*
X0140996Y0128355D01*
X0143450Y0130809D01*
X0143450Y0136691D01*
X0141703Y0138438D01*
X0143450Y0140184D01*
X0143450Y0146066D01*
X0139291Y0150225D01*
X0133409Y0150225D01*
X0132117Y0148933D02*
X0119333Y0148933D01*
X0122200Y0145734D02*
X0129250Y0145734D01*
X0129250Y0142536D02*
X0122200Y0142536D01*
X0121353Y0139337D02*
X0130097Y0139337D01*
X0129250Y0136139D02*
X0122200Y0136139D01*
X0122200Y0132940D02*
X0129250Y0132940D01*
X0130317Y0129742D02*
X0121133Y0129742D01*
X0121200Y0126543D02*
X0130250Y0126543D01*
X0130250Y0124375D02*
X0130250Y0121848D01*
X0133823Y0118275D01*
X0136350Y0118275D01*
X0138877Y0118275D01*
X0142450Y0121848D01*
X0142450Y0124375D01*
X0136350Y0124375D01*
X0136350Y0124375D01*
X0136350Y0124375D01*
X0130250Y0124375D01*
X0130250Y0123345D02*
X0121200Y0123345D01*
X0119498Y0120146D02*
X0131952Y0120146D01*
X0136350Y0120146D02*
X0136350Y0120146D01*
X0136350Y0118275D02*
X0136350Y0124375D01*
X0136350Y0124375D01*
X0136350Y0118275D01*
X0140748Y0120146D02*
X0153202Y0120146D01*
X0151500Y0123345D02*
X0142450Y0123345D01*
X0142450Y0126543D02*
X0151500Y0126543D01*
X0151567Y0129742D02*
X0142383Y0129742D01*
X0143450Y0132940D02*
X0150500Y0132940D01*
X0150500Y0136139D02*
X0143450Y0136139D01*
X0142603Y0139337D02*
X0151347Y0139337D01*
X0150500Y0142536D02*
X0143450Y0142536D01*
X0143450Y0145734D02*
X0150500Y0145734D01*
X0153367Y0148933D02*
X0140583Y0148933D01*
X0141836Y0158529D02*
X0143364Y0158529D01*
X0151836Y0158529D02*
X0153364Y0158529D01*
X0161836Y0158529D02*
X0163364Y0158529D01*
X0171836Y0158529D02*
X0187125Y0158529D01*
X0187125Y0161727D02*
X0174470Y0161727D01*
X0190077Y0174521D02*
X0008200Y0174521D01*
X0008200Y0171323D02*
X0078175Y0171323D01*
X0075668Y0168124D02*
X0008200Y0168124D01*
X0008200Y0164926D02*
X0075000Y0164926D01*
X0075730Y0161727D02*
X0008200Y0161727D01*
X0008200Y0158529D02*
X0043775Y0158529D01*
X0040576Y0155330D02*
X0008200Y0155330D01*
X0008200Y0152132D02*
X0037378Y0152132D01*
X0036896Y0144297D02*
X0036806Y0144209D01*
X0036713Y0144125D01*
X0036618Y0144043D01*
X0036520Y0143964D01*
X0036419Y0143889D01*
X0036316Y0143817D01*
X0036211Y0143748D01*
X0036104Y0143682D01*
X0035995Y0143620D01*
X0035884Y0143561D01*
X0035771Y0143506D01*
X0035657Y0143454D01*
X0035540Y0143406D01*
X0035423Y0143361D01*
X0035304Y0143321D01*
X0035184Y0143284D01*
X0035063Y0143251D01*
X0034941Y0143221D01*
X0034818Y0143196D01*
X0034694Y0143174D01*
X0034569Y0143157D01*
X0034444Y0143143D01*
X0034319Y0143133D01*
X0034194Y0143127D01*
X0034068Y0143125D01*
X0032600Y0143125D01*
X0036897Y0144297D02*
X0047600Y0155000D01*
X0085943Y0155000D01*
X0088772Y0156172D02*
X0092600Y0160000D01*
X0092600Y0165000D01*
X0088175Y0171323D02*
X0087025Y0171323D01*
X0097025Y0171323D02*
X0098175Y0171323D01*
X0098364Y0158529D02*
X0097619Y0158529D01*
X0087773Y0149800D02*
X0087773Y0149800D01*
X0085943Y0155000D02*
X0086069Y0155002D01*
X0086194Y0155008D01*
X0086319Y0155018D01*
X0086444Y0155032D01*
X0086569Y0155049D01*
X0086693Y0155071D01*
X0086816Y0155096D01*
X0086938Y0155126D01*
X0087059Y0155159D01*
X0087179Y0155196D01*
X0087298Y0155236D01*
X0087415Y0155281D01*
X0087532Y0155329D01*
X0087646Y0155381D01*
X0087759Y0155436D01*
X0087870Y0155495D01*
X0087979Y0155557D01*
X0088086Y0155623D01*
X0088191Y0155692D01*
X0088294Y0155764D01*
X0088395Y0155839D01*
X0088493Y0155918D01*
X0088588Y0156000D01*
X0088681Y0156084D01*
X0088771Y0156172D01*
X0068367Y0148933D02*
X0056833Y0148933D01*
X0059700Y0145734D02*
X0065500Y0145734D01*
X0065500Y0142536D02*
X0059700Y0142536D01*
X0058853Y0139337D02*
X0066347Y0139337D01*
X0065500Y0136139D02*
X0059700Y0136139D01*
X0059700Y0132940D02*
X0065500Y0132940D01*
X0066567Y0129742D02*
X0058633Y0129742D01*
X0058700Y0126543D02*
X0066500Y0126543D01*
X0066500Y0123345D02*
X0058700Y0123345D01*
X0058700Y0124375D02*
X0052600Y0124375D01*
X0052600Y0124375D01*
X0052600Y0124375D01*
X0046500Y0124375D01*
X0046500Y0121848D01*
X0050073Y0118275D01*
X0052600Y0118275D01*
X0055127Y0118275D01*
X0058700Y0121848D01*
X0058700Y0124375D01*
X0056998Y0120146D02*
X0068202Y0120146D01*
X0072600Y0120146D02*
X0072600Y0120146D01*
X0072600Y0118275D02*
X0072600Y0124375D01*
X0072600Y0124375D01*
X0072600Y0118275D01*
X0072600Y0123345D02*
X0072600Y0123345D01*
X0075186Y0110551D02*
X0060014Y0110551D01*
X0062135Y0107352D02*
X0073065Y0107352D01*
X0072700Y0104154D02*
X0062500Y0104154D01*
X0062200Y0100955D02*
X0073000Y0100955D01*
X0085014Y0110551D02*
X0110186Y0110551D01*
X0108065Y0107352D02*
X0087135Y0107352D01*
X0087500Y0104154D02*
X0107700Y0104154D01*
X0108000Y0100955D02*
X0087200Y0100955D01*
X0093850Y0123345D02*
X0093850Y0123345D01*
X0115100Y0123345D02*
X0115100Y0123345D01*
X0115100Y0120146D02*
X0115100Y0120146D01*
X0120014Y0110551D02*
X0135186Y0110551D01*
X0133065Y0107352D02*
X0122135Y0107352D01*
X0122500Y0104154D02*
X0132700Y0104154D01*
X0133000Y0100955D02*
X0122200Y0100955D01*
X0136200Y0084963D02*
X0144000Y0084963D01*
X0144000Y0081764D02*
X0136200Y0081764D01*
X0136200Y0078566D02*
X0144000Y0078566D01*
X0146771Y0075367D02*
X0133429Y0075367D01*
X0133735Y0068970D02*
X0121465Y0068970D01*
X0108735Y0068970D02*
X0102531Y0068970D01*
X0102531Y0065772D02*
X0107700Y0065772D01*
X0108095Y0062573D02*
X0102531Y0062573D01*
X0102531Y0059375D02*
X0110260Y0059375D01*
X0102531Y0056176D02*
X0119000Y0056176D01*
X0119541Y0052978D02*
X0102531Y0052978D01*
X0099544Y0020993D02*
X0105656Y0020993D01*
X0107600Y0020993D02*
X0107600Y0020993D01*
X0109544Y0020993D02*
X0122372Y0020993D01*
X0113247Y0017794D02*
X0306030Y0017794D01*
X0305701Y0014596D02*
X0113900Y0014596D01*
X0112770Y0011397D02*
X0306246Y0011397D01*
X0325237Y0024191D02*
X0325701Y0024191D01*
X0325701Y0046581D02*
X0008200Y0046581D01*
X0008200Y0049779D02*
X0325701Y0049779D01*
X0325701Y0052978D02*
X0260659Y0052978D01*
X0261200Y0056176D02*
X0325701Y0056176D01*
X0325701Y0059375D02*
X0270812Y0059375D01*
X0274136Y0062573D02*
X0325701Y0062573D01*
X0325701Y0065772D02*
X0274950Y0065772D01*
X0274325Y0068970D02*
X0325701Y0068970D01*
X0325701Y0072169D02*
X0271826Y0072169D01*
X0258429Y0075367D02*
X0325701Y0075367D01*
X0325701Y0097757D02*
X0271187Y0097757D01*
X0273612Y0100955D02*
X0283214Y0100955D01*
X0281786Y0104154D02*
X0273846Y0104154D01*
X0272228Y0107352D02*
X0282313Y0107352D01*
X0287600Y0104154D02*
X0287600Y0104154D01*
X0287600Y0100955D02*
X0287600Y0100955D01*
X0291986Y0100955D02*
X0325701Y0100955D01*
X0325701Y0104154D02*
X0293414Y0104154D01*
X0292887Y0107352D02*
X0325701Y0107352D01*
X0325701Y0110551D02*
X0296030Y0110551D01*
X0296075Y0113749D02*
X0325701Y0113749D01*
X0325701Y0116948D02*
X0296030Y0116948D01*
X0295300Y0120146D02*
X0325701Y0120146D01*
X0325701Y0123345D02*
X0301393Y0123345D01*
X0304394Y0126543D02*
X0325701Y0126543D01*
X0325701Y0129742D02*
X0312666Y0129742D01*
X0314900Y0132940D02*
X0325701Y0132940D01*
X0325701Y0136139D02*
X0314900Y0136139D01*
X0313586Y0139337D02*
X0325701Y0139337D01*
X0325701Y0142536D02*
X0314900Y0142536D01*
X0314900Y0145734D02*
X0325701Y0145734D01*
X0325701Y0148933D02*
X0313991Y0148933D01*
X0314900Y0152132D02*
X0325701Y0152132D01*
X0325701Y0155330D02*
X0314900Y0155330D01*
X0314395Y0158529D02*
X0325701Y0158529D01*
X0325701Y0161727D02*
X0314651Y0161727D01*
X0314900Y0164926D02*
X0325701Y0164926D01*
X0325701Y0168124D02*
X0314800Y0168124D01*
X0314246Y0171323D02*
X0325701Y0171323D01*
X0325701Y0174521D02*
X0314900Y0174521D01*
X0314900Y0177720D02*
X0325701Y0177720D01*
X0325701Y0180918D02*
X0313842Y0180918D01*
X0314900Y0184117D02*
X0325701Y0184117D01*
X0325701Y0187315D02*
X0314900Y0187315D01*
X0313437Y0190514D02*
X0325701Y0190514D01*
X0325701Y0193712D02*
X0314900Y0193712D01*
X0314900Y0196911D02*
X0325701Y0196911D01*
X0325701Y0200109D02*
X0313033Y0200109D01*
X0314800Y0203308D02*
X0325701Y0203308D01*
X0325701Y0206506D02*
X0314878Y0206506D01*
X0318934Y0209705D02*
X0325701Y0209705D01*
X0325701Y0212903D02*
X0320000Y0212903D01*
X0319636Y0216102D02*
X0325701Y0216102D01*
X0325701Y0219300D02*
X0317515Y0219300D01*
X0325701Y0222499D02*
X0297200Y0222499D01*
X0297200Y0225697D02*
X0325701Y0225697D01*
X0325701Y0228896D02*
X0297200Y0228896D01*
X0297200Y0232094D02*
X0325701Y0232094D01*
X0325701Y0235293D02*
X0306755Y0235293D01*
X0309954Y0238491D02*
X0325701Y0238491D01*
X0325701Y0241690D02*
X0311200Y0241690D01*
X0311200Y0244888D02*
X0325701Y0244888D01*
X0325701Y0248087D02*
X0317402Y0248087D01*
X0319589Y0251285D02*
X0325701Y0251285D01*
X0325701Y0254484D02*
X0320000Y0254484D01*
X0318981Y0257682D02*
X0325701Y0257682D01*
X0325701Y0260881D02*
X0314722Y0260881D01*
X0311200Y0264079D02*
X0325701Y0264079D01*
X0325701Y0267278D02*
X0311200Y0267278D01*
X0311200Y0270476D02*
X0325701Y0270476D01*
X0325701Y0273675D02*
X0008200Y0273675D01*
X0008200Y0276873D02*
X0325701Y0276873D01*
X0325701Y0280072D02*
X0008200Y0280072D01*
X0008200Y0283270D02*
X0017723Y0283270D01*
X0018159Y0283019D02*
X0021085Y0282235D01*
X0024115Y0282235D01*
X0027041Y0283019D01*
X0029665Y0284533D01*
X0031807Y0286676D01*
X0033321Y0289299D01*
X0034105Y0292225D01*
X0034105Y0295255D01*
X0033321Y0298181D01*
X0031807Y0300805D01*
X0029665Y0302947D01*
X0027041Y0304462D01*
X0024115Y0305246D01*
X0021085Y0305246D01*
X0018159Y0304462D01*
X0015535Y0302947D01*
X0013393Y0300805D01*
X0011879Y0298181D01*
X0011094Y0295255D01*
X0011094Y0292225D01*
X0011879Y0289299D01*
X0013393Y0286676D01*
X0015535Y0284533D01*
X0018159Y0283019D01*
X0013600Y0286469D02*
X0008200Y0286469D01*
X0008200Y0289668D02*
X0011780Y0289668D01*
X0011094Y0292866D02*
X0008200Y0292866D01*
X0008200Y0296065D02*
X0011311Y0296065D01*
X0012503Y0299263D02*
X0008200Y0299263D01*
X0008200Y0302462D02*
X0015050Y0302462D01*
X0008200Y0305660D02*
X0325701Y0305660D01*
X0325701Y0302462D02*
X0310150Y0302462D01*
X0309665Y0302947D02*
X0307041Y0304462D01*
X0304115Y0305246D01*
X0301085Y0305246D01*
X0298159Y0304462D01*
X0295535Y0302947D01*
X0293393Y0300805D01*
X0291879Y0298181D01*
X0291094Y0295255D01*
X0291094Y0292225D01*
X0291879Y0289299D01*
X0293393Y0286676D01*
X0295535Y0284533D01*
X0298159Y0283019D01*
X0301085Y0282235D01*
X0304115Y0282235D01*
X0307041Y0283019D01*
X0309665Y0284533D01*
X0311807Y0286676D01*
X0313321Y0289299D01*
X0314105Y0292225D01*
X0314105Y0295255D01*
X0313321Y0298181D01*
X0311807Y0300805D01*
X0309665Y0302947D01*
X0312697Y0299263D02*
X0325701Y0299263D01*
X0325701Y0296065D02*
X0313889Y0296065D01*
X0314105Y0292866D02*
X0325701Y0292866D01*
X0325701Y0289668D02*
X0313420Y0289668D01*
X0311600Y0286469D02*
X0325701Y0286469D01*
X0325701Y0283270D02*
X0307477Y0283270D01*
X0297723Y0283270D02*
X0282477Y0283270D01*
X0282041Y0283019D02*
X0284665Y0284533D01*
X0286807Y0286676D01*
X0288321Y0289299D01*
X0289105Y0292225D01*
X0289105Y0295255D01*
X0288321Y0298181D01*
X0286807Y0300805D01*
X0284665Y0302947D01*
X0282041Y0304462D01*
X0279115Y0305246D01*
X0276085Y0305246D01*
X0273159Y0304462D01*
X0270535Y0302947D01*
X0268393Y0300805D01*
X0266879Y0298181D01*
X0266094Y0295255D01*
X0266094Y0292225D01*
X0266879Y0289299D01*
X0268393Y0286676D01*
X0270535Y0284533D01*
X0273159Y0283019D01*
X0276085Y0282235D01*
X0279115Y0282235D01*
X0282041Y0283019D01*
X0286600Y0286469D02*
X0293600Y0286469D01*
X0291780Y0289668D02*
X0288420Y0289668D01*
X0289105Y0292866D02*
X0291094Y0292866D01*
X0291311Y0296065D02*
X0288889Y0296065D01*
X0287697Y0299263D02*
X0292503Y0299263D01*
X0295050Y0302462D02*
X0285150Y0302462D01*
X0270050Y0302462D02*
X0260150Y0302462D01*
X0259665Y0302947D02*
X0257041Y0304462D01*
X0254115Y0305246D01*
X0251085Y0305246D01*
X0248159Y0304462D01*
X0245535Y0302947D01*
X0243393Y0300805D01*
X0241879Y0298181D01*
X0241094Y0295255D01*
X0241094Y0292225D01*
X0241879Y0289299D01*
X0243393Y0286676D01*
X0245535Y0284533D01*
X0248159Y0283019D01*
X0251085Y0282235D01*
X0254115Y0282235D01*
X0257041Y0283019D01*
X0259665Y0284533D01*
X0261807Y0286676D01*
X0263321Y0289299D01*
X0264105Y0292225D01*
X0264105Y0295255D01*
X0263321Y0298181D01*
X0261807Y0300805D01*
X0259665Y0302947D01*
X0262697Y0299263D02*
X0267503Y0299263D01*
X0266311Y0296065D02*
X0263889Y0296065D01*
X0264105Y0292866D02*
X0266094Y0292866D01*
X0266780Y0289668D02*
X0263420Y0289668D01*
X0261600Y0286469D02*
X0268600Y0286469D01*
X0272723Y0283270D02*
X0257477Y0283270D01*
X0247723Y0283270D02*
X0232477Y0283270D01*
X0232041Y0283019D02*
X0234665Y0284533D01*
X0236807Y0286676D01*
X0238321Y0289299D01*
X0239105Y0292225D01*
X0239105Y0295255D01*
X0238321Y0298181D01*
X0236807Y0300805D01*
X0234665Y0302947D01*
X0232041Y0304462D01*
X0229115Y0305246D01*
X0226085Y0305246D01*
X0223159Y0304462D01*
X0220535Y0302947D01*
X0218393Y0300805D01*
X0216879Y0298181D01*
X0216094Y0295255D01*
X0216094Y0292225D01*
X0216879Y0289299D01*
X0218393Y0286676D01*
X0220535Y0284533D01*
X0223159Y0283019D01*
X0226085Y0282235D01*
X0229115Y0282235D01*
X0232041Y0283019D01*
X0236600Y0286469D02*
X0243600Y0286469D01*
X0241780Y0289668D02*
X0238420Y0289668D01*
X0239105Y0292866D02*
X0241094Y0292866D01*
X0241311Y0296065D02*
X0238889Y0296065D01*
X0237697Y0299263D02*
X0242503Y0299263D01*
X0245050Y0302462D02*
X0235150Y0302462D01*
X0220050Y0302462D02*
X0210150Y0302462D01*
X0209665Y0302947D02*
X0207041Y0304462D01*
X0204115Y0305246D01*
X0201085Y0305246D01*
X0198159Y0304462D01*
X0195535Y0302947D01*
X0193393Y0300805D01*
X0191879Y0298181D01*
X0191094Y0295255D01*
X0191094Y0292225D01*
X0191879Y0289299D01*
X0193393Y0286676D01*
X0195535Y0284533D01*
X0198159Y0283019D01*
X0201085Y0282235D01*
X0204115Y0282235D01*
X0207041Y0283019D01*
X0209665Y0284533D01*
X0211807Y0286676D01*
X0213321Y0289299D01*
X0214105Y0292225D01*
X0214105Y0295255D01*
X0213321Y0298181D01*
X0211807Y0300805D01*
X0209665Y0302947D01*
X0212697Y0299263D02*
X0217503Y0299263D01*
X0216311Y0296065D02*
X0213889Y0296065D01*
X0214105Y0292866D02*
X0216094Y0292866D01*
X0216780Y0289668D02*
X0213420Y0289668D01*
X0211600Y0286469D02*
X0218600Y0286469D01*
X0222723Y0283270D02*
X0207477Y0283270D01*
X0197723Y0283270D02*
X0182477Y0283270D01*
X0182041Y0283019D02*
X0184665Y0284533D01*
X0186807Y0286676D01*
X0188321Y0289299D01*
X0189105Y0292225D01*
X0189105Y0295255D01*
X0188321Y0298181D01*
X0186807Y0300805D01*
X0184665Y0302947D01*
X0182041Y0304462D01*
X0179115Y0305246D01*
X0176085Y0305246D01*
X0173159Y0304462D01*
X0170535Y0302947D01*
X0168393Y0300805D01*
X0166879Y0298181D01*
X0166094Y0295255D01*
X0166094Y0292225D01*
X0166879Y0289299D01*
X0168393Y0286676D01*
X0170535Y0284533D01*
X0173159Y0283019D01*
X0176085Y0282235D01*
X0179115Y0282235D01*
X0182041Y0283019D01*
X0186600Y0286469D02*
X0193600Y0286469D01*
X0191780Y0289668D02*
X0188420Y0289668D01*
X0189105Y0292866D02*
X0191094Y0292866D01*
X0191311Y0296065D02*
X0188889Y0296065D01*
X0187697Y0299263D02*
X0192503Y0299263D01*
X0195050Y0302462D02*
X0185150Y0302462D01*
X0170050Y0302462D02*
X0160150Y0302462D01*
X0159665Y0302947D02*
X0157041Y0304462D01*
X0154115Y0305246D01*
X0151085Y0305246D01*
X0148159Y0304462D01*
X0145535Y0302947D01*
X0143393Y0300805D01*
X0141879Y0298181D01*
X0141094Y0295255D01*
X0141094Y0292225D01*
X0141879Y0289299D01*
X0143393Y0286676D01*
X0145535Y0284533D01*
X0148159Y0283019D01*
X0151085Y0282235D01*
X0154115Y0282235D01*
X0157041Y0283019D01*
X0159665Y0284533D01*
X0161807Y0286676D01*
X0163321Y0289299D01*
X0164105Y0292225D01*
X0164105Y0295255D01*
X0163321Y0298181D01*
X0161807Y0300805D01*
X0159665Y0302947D01*
X0162697Y0299263D02*
X0167503Y0299263D01*
X0166311Y0296065D02*
X0163889Y0296065D01*
X0164105Y0292866D02*
X0166094Y0292866D01*
X0166780Y0289668D02*
X0163420Y0289668D01*
X0161600Y0286469D02*
X0168600Y0286469D01*
X0172723Y0283270D02*
X0157477Y0283270D01*
X0147723Y0283270D02*
X0027477Y0283270D01*
X0031600Y0286469D02*
X0143600Y0286469D01*
X0141780Y0289668D02*
X0033420Y0289668D01*
X0034105Y0292866D02*
X0141094Y0292866D01*
X0141311Y0296065D02*
X0033889Y0296065D01*
X0032697Y0299263D02*
X0142503Y0299263D01*
X0145050Y0302462D02*
X0030150Y0302462D01*
X0008200Y0308859D02*
X0325701Y0308859D01*
X0294000Y0270476D02*
X0286200Y0270476D01*
X0286200Y0267278D02*
X0288333Y0267278D01*
X0291867Y0267278D02*
X0294000Y0267278D01*
X0295049Y0254484D02*
X0305200Y0254484D01*
X0298423Y0251285D02*
X0281777Y0251285D01*
X0284975Y0248087D02*
X0295225Y0248087D01*
X0294000Y0244888D02*
X0286200Y0244888D01*
X0286200Y0241690D02*
X0294000Y0241690D01*
X0295246Y0238491D02*
X0284954Y0238491D01*
X0296098Y0235293D02*
X0298445Y0235293D01*
X0297500Y0219300D02*
X0307685Y0219300D01*
X0305564Y0216102D02*
X0297143Y0216102D01*
X0301525Y0212903D02*
X0305200Y0212903D01*
X0288264Y0191836D02*
X0272600Y0210000D01*
X0266625Y0209705D02*
X0254159Y0209705D01*
X0254825Y0212903D02*
X0262896Y0212903D01*
X0267304Y0212903D02*
X0267335Y0212903D01*
X0267644Y0206506D02*
X0245129Y0206506D01*
X0248850Y0212500D02*
X0182600Y0200000D01*
X0176625Y0200109D02*
X0173239Y0200109D01*
X0173136Y0200212D02*
X0173789Y0200865D01*
X0174900Y0203548D01*
X0174900Y0206452D01*
X0173789Y0209135D01*
X0171735Y0211189D01*
X0169052Y0212300D01*
X0166148Y0212300D01*
X0163465Y0211189D01*
X0162600Y0210324D01*
X0161735Y0211189D01*
X0159052Y0212300D01*
X0156148Y0212300D01*
X0153465Y0211189D01*
X0152600Y0210324D01*
X0151735Y0211189D01*
X0149052Y0212300D01*
X0146148Y0212300D01*
X0143465Y0211189D01*
X0142600Y0210324D01*
X0141735Y0211189D01*
X0139052Y0212300D01*
X0136148Y0212300D01*
X0133465Y0211189D01*
X0132600Y0210324D01*
X0131735Y0211189D01*
X0129052Y0212300D01*
X0126148Y0212300D01*
X0123465Y0211189D01*
X0122600Y0210324D01*
X0121735Y0211189D01*
X0119052Y0212300D01*
X0116148Y0212300D01*
X0113465Y0211189D01*
X0111411Y0209135D01*
X0110300Y0206452D01*
X0110300Y0203548D01*
X0111411Y0200865D01*
X0112064Y0200212D01*
X0111157Y0199305D01*
X0110100Y0196753D01*
X0109043Y0199305D01*
X0107636Y0200712D01*
X0107789Y0200865D01*
X0108900Y0203548D01*
X0108900Y0206452D01*
X0107789Y0209135D01*
X0105735Y0211189D01*
X0103052Y0212300D01*
X0100148Y0212300D01*
X0097465Y0211189D01*
X0096600Y0210324D01*
X0095735Y0211189D01*
X0093052Y0212300D01*
X0091125Y0212300D01*
X0091363Y0212874D01*
X0091587Y0213710D01*
X0091700Y0214567D01*
X0091700Y0215000D01*
X0091700Y0215433D01*
X0091587Y0216290D01*
X0091363Y0217126D01*
X0091032Y0217925D01*
X0090599Y0218675D01*
X0090073Y0219361D01*
X0089461Y0219973D01*
X0088775Y0220499D01*
X0088025Y0220932D01*
X0087226Y0221263D01*
X0086390Y0221487D01*
X0085533Y0221600D01*
X0085100Y0221600D01*
X0085100Y0215000D01*
X0085100Y0215000D01*
X0091700Y0215000D01*
X0085100Y0215000D01*
X0085100Y0215000D01*
X0085100Y0215000D01*
X0078500Y0215000D01*
X0078500Y0215433D01*
X0078613Y0216290D01*
X0078837Y0217126D01*
X0079168Y0217925D01*
X0079601Y0218675D01*
X0080127Y0219361D01*
X0080739Y0219973D01*
X0081425Y0220499D01*
X0082175Y0220932D01*
X0082974Y0221263D01*
X0083810Y0221487D01*
X0084667Y0221600D01*
X0085100Y0221600D01*
X0085100Y0215000D01*
X0078500Y0215000D01*
X0078500Y0214567D01*
X0078613Y0213710D01*
X0078837Y0212874D01*
X0079168Y0212075D01*
X0079252Y0211929D01*
X0077465Y0211189D01*
X0076600Y0210324D01*
X0075735Y0211189D01*
X0073052Y0212300D01*
X0070148Y0212300D01*
X0067465Y0211189D01*
X0066600Y0210324D01*
X0065735Y0211189D01*
X0063052Y0212300D01*
X0060148Y0212300D01*
X0057465Y0211189D01*
X0056600Y0210324D01*
X0055735Y0211189D01*
X0053052Y0212300D01*
X0051125Y0212300D01*
X0051363Y0212874D01*
X0051587Y0213710D01*
X0051700Y0214567D01*
X0051700Y0215000D01*
X0051700Y0215433D01*
X0051587Y0216290D01*
X0051363Y0217126D01*
X0051032Y0217925D01*
X0050599Y0218675D01*
X0050073Y0219361D01*
X0049461Y0219973D01*
X0048775Y0220499D01*
X0048025Y0220932D01*
X0047226Y0221263D01*
X0046390Y0221487D01*
X0045533Y0221600D01*
X0045100Y0221600D01*
X0045100Y0215000D01*
X0022600Y0243300D01*
X0022600Y0243300D01*
X0022600Y0250900D01*
X0025748Y0250900D01*
X0030200Y0246448D01*
X0030200Y0243300D01*
X0022600Y0243300D01*
X0022600Y0243300D01*
X0022600Y0243300D01*
X0015000Y0243300D01*
X0015000Y0246448D01*
X0019452Y0250900D01*
X0022600Y0250900D01*
X0022600Y0243300D01*
X0030200Y0243300D01*
X0030200Y0240152D01*
X0025748Y0235700D01*
X0022600Y0235700D01*
X0022600Y0243300D01*
X0022600Y0243300D01*
X0015000Y0243300D01*
X0015000Y0240152D01*
X0019452Y0235700D01*
X0022600Y0235700D01*
X0022600Y0243300D01*
X0022600Y0244888D02*
X0022600Y0244888D01*
X0022600Y0241690D02*
X0022600Y0241690D01*
X0022600Y0238491D02*
X0022600Y0238491D01*
X0028539Y0238491D02*
X0040954Y0238491D01*
X0040795Y0238557D02*
X0043588Y0237400D01*
X0046612Y0237400D01*
X0049405Y0238557D01*
X0051543Y0240695D01*
X0051720Y0241122D01*
X0054742Y0238100D01*
X0060458Y0238100D01*
X0062600Y0240242D01*
X0064742Y0238100D01*
X0070458Y0238100D01*
X0074500Y0242142D01*
X0074500Y0247858D01*
X0070458Y0251900D01*
X0064742Y0251900D01*
X0062600Y0249758D01*
X0060458Y0251900D01*
X0054742Y0251900D01*
X0051720Y0248878D01*
X0051543Y0249305D01*
X0049405Y0251443D01*
X0046612Y0252600D01*
X0043588Y0252600D01*
X0040795Y0251443D01*
X0038657Y0249305D01*
X0037500Y0246512D01*
X0037500Y0243488D01*
X0038657Y0240695D01*
X0040795Y0238557D01*
X0038245Y0241690D02*
X0030200Y0241690D01*
X0030200Y0244888D02*
X0037500Y0244888D01*
X0038152Y0248087D02*
X0028561Y0248087D01*
X0022600Y0248087D02*
X0022600Y0248087D01*
X0016639Y0248087D02*
X0008200Y0248087D01*
X0008200Y0251285D02*
X0040637Y0251285D01*
X0049563Y0251285D02*
X0054127Y0251285D01*
X0061073Y0251285D02*
X0064127Y0251285D01*
X0071073Y0251285D02*
X0080637Y0251285D01*
X0080795Y0251443D02*
X0078657Y0249305D01*
X0077500Y0246512D01*
X0077500Y0243488D01*
X0078657Y0240695D01*
X0080795Y0238557D01*
X0083588Y0237400D01*
X0086612Y0237400D01*
X0089405Y0238557D01*
X0090248Y0239400D01*
X0093442Y0239400D01*
X0094742Y0238100D01*
X0100458Y0238100D01*
X0102600Y0240242D01*
X0104742Y0238100D01*
X0110458Y0238100D01*
X0114500Y0242142D01*
X0114500Y0247858D01*
X0110458Y0251900D01*
X0104742Y0251900D01*
X0102600Y0249758D01*
X0100458Y0251900D01*
X0094742Y0251900D01*
X0093442Y0250600D01*
X0090248Y0250600D01*
X0089405Y0251443D01*
X0086612Y0252600D01*
X0083588Y0252600D01*
X0080795Y0251443D01*
X0078152Y0248087D02*
X0074271Y0248087D01*
X0074500Y0244888D02*
X0077500Y0244888D01*
X0078245Y0241690D02*
X0074048Y0241690D01*
X0070849Y0238491D02*
X0080954Y0238491D01*
X0089246Y0238491D02*
X0094351Y0238491D01*
X0100849Y0238491D02*
X0104351Y0238491D01*
X0110849Y0238491D02*
X0117669Y0238491D01*
X0117669Y0235293D02*
X0008200Y0235293D01*
X0008200Y0238491D02*
X0016661Y0238491D01*
X0015000Y0241690D02*
X0008200Y0241690D01*
X0008200Y0244888D02*
X0015000Y0244888D01*
X0016884Y0256400D02*
X0015561Y0256948D01*
X0014548Y0257961D01*
X0014000Y0259284D01*
X0014000Y0270716D01*
X0014548Y0272039D01*
X0015561Y0273052D01*
X0016884Y0273600D01*
X0028316Y0273600D01*
X0029639Y0273052D01*
X0030652Y0272039D01*
X0031200Y0270716D01*
X0031200Y0259284D01*
X0030652Y0257961D01*
X0029639Y0256948D01*
X0028316Y0256400D01*
X0016884Y0256400D01*
X0014826Y0257682D02*
X0008200Y0257682D01*
X0008200Y0254484D02*
X0119474Y0254484D01*
X0117669Y0251285D02*
X0111073Y0251285D01*
X0114271Y0248087D02*
X0117669Y0248087D01*
X0117669Y0244888D02*
X0114500Y0244888D01*
X0114048Y0241690D02*
X0117669Y0241690D01*
X0117669Y0232094D02*
X0008200Y0232094D01*
X0008200Y0228896D02*
X0117669Y0228896D01*
X0117669Y0225697D02*
X0008200Y0225697D01*
X0008200Y0222499D02*
X0117858Y0222499D01*
X0111981Y0209705D02*
X0107219Y0209705D01*
X0108878Y0206506D02*
X0110322Y0206506D01*
X0110399Y0203308D02*
X0108800Y0203308D01*
X0108239Y0200109D02*
X0111961Y0200109D01*
X0110165Y0196911D02*
X0110035Y0196911D01*
X0110100Y0193247D02*
X0111157Y0190695D01*
X0113295Y0188557D01*
X0116088Y0187400D01*
X0119112Y0187400D01*
X0121905Y0188557D01*
X0122600Y0189252D01*
X0123295Y0188557D01*
X0126088Y0187400D01*
X0129112Y0187400D01*
X0131905Y0188557D01*
X0132600Y0189252D01*
X0133295Y0188557D01*
X0136088Y0187400D01*
X0139112Y0187400D01*
X0141905Y0188557D01*
X0142600Y0189252D01*
X0143295Y0188557D01*
X0146088Y0187400D01*
X0149112Y0187400D01*
X0151905Y0188557D01*
X0152600Y0189252D01*
X0153295Y0188557D01*
X0156088Y0187400D01*
X0159112Y0187400D01*
X0161905Y0188557D01*
X0162600Y0189252D01*
X0163295Y0188557D01*
X0166088Y0187400D01*
X0169112Y0187400D01*
X0171905Y0188557D01*
X0174043Y0190695D01*
X0175200Y0193488D01*
X0175200Y0196512D01*
X0174043Y0199305D01*
X0173136Y0200212D01*
X0174800Y0203308D02*
X0177503Y0203308D01*
X0174878Y0206506D02*
X0189037Y0206506D01*
X0187896Y0212903D02*
X0167304Y0212903D01*
X0162896Y0212903D02*
X0091371Y0212903D01*
X0091612Y0216102D02*
X0158705Y0216102D01*
X0157700Y0219300D02*
X0090119Y0219300D01*
X0085100Y0219300D02*
X0085100Y0219300D01*
X0085100Y0216102D02*
X0085100Y0216102D01*
X0080081Y0219300D02*
X0050119Y0219300D01*
X0051612Y0216102D02*
X0078588Y0216102D01*
X0078829Y0212903D02*
X0051371Y0212903D01*
X0051700Y0215000D02*
X0045100Y0215000D01*
X0041600Y0205000D01*
X0041600Y0198700D01*
X0042096Y0198700D01*
X0043075Y0198855D01*
X0044018Y0199162D01*
X0044902Y0199612D01*
X0045704Y0200195D01*
X0045893Y0200383D01*
X0047465Y0198811D01*
X0050148Y0197700D01*
X0053052Y0197700D01*
X0055735Y0198811D01*
X0056600Y0199676D01*
X0057465Y0198811D01*
X0060148Y0197700D01*
X0063052Y0197700D01*
X0065735Y0198811D01*
X0066600Y0199676D01*
X0067465Y0198811D01*
X0070148Y0197700D01*
X0073052Y0197700D01*
X0075735Y0198811D01*
X0076106Y0199183D01*
X0075000Y0196512D01*
X0075000Y0193488D01*
X0076157Y0190695D01*
X0078295Y0188557D01*
X0081088Y0187400D01*
X0084112Y0187400D01*
X0086905Y0188557D01*
X0087600Y0189252D01*
X0088295Y0188557D01*
X0091088Y0187400D01*
X0094112Y0187400D01*
X0096905Y0188557D01*
X0097600Y0189252D01*
X0098295Y0188557D01*
X0101088Y0187400D01*
X0104112Y0187400D01*
X0106905Y0188557D01*
X0109043Y0190695D01*
X0110100Y0193247D01*
X0108862Y0190514D02*
X0111338Y0190514D01*
X0076338Y0190514D02*
X0008200Y0190514D01*
X0008200Y0193712D02*
X0075000Y0193712D01*
X0075165Y0196911D02*
X0008200Y0196911D01*
X0008200Y0200109D02*
X0037613Y0200109D01*
X0037496Y0200195D02*
X0038298Y0199612D01*
X0039182Y0199162D01*
X0040125Y0198855D01*
X0041104Y0198700D01*
X0041600Y0198700D01*
X0041600Y0205000D01*
X0041600Y0205000D01*
X0041600Y0205000D01*
X0035300Y0205000D01*
X0035300Y0205496D01*
X0035455Y0206475D01*
X0035762Y0207418D01*
X0036212Y0208302D01*
X0036795Y0209104D01*
X0037496Y0209805D01*
X0038298Y0210388D01*
X0039182Y0210838D01*
X0039816Y0211045D01*
X0039601Y0211325D01*
X0039168Y0212075D01*
X0038837Y0212874D01*
X0038613Y0213710D01*
X0038500Y0214567D01*
X0038500Y0215000D01*
X0045100Y0215000D01*
X0045100Y0215000D01*
X0051700Y0215000D01*
X0045100Y0215000D02*
X0045100Y0215000D01*
X0045100Y0215000D01*
X0045100Y0221600D01*
X0044667Y0221600D01*
X0043810Y0221487D01*
X0042974Y0221263D01*
X0042175Y0220932D01*
X0041425Y0220499D01*
X0040739Y0219973D01*
X0040127Y0219361D01*
X0039601Y0218675D01*
X0039168Y0217925D01*
X0038837Y0217126D01*
X0038613Y0216290D01*
X0038500Y0215433D01*
X0038500Y0215000D01*
X0045100Y0215000D01*
X0045100Y0216102D02*
X0045100Y0216102D01*
X0045100Y0219300D02*
X0045100Y0219300D01*
X0040081Y0219300D02*
X0008200Y0219300D01*
X0008200Y0216102D02*
X0038588Y0216102D01*
X0038829Y0212903D02*
X0008200Y0212903D01*
X0008200Y0209705D02*
X0037395Y0209705D01*
X0035465Y0206506D02*
X0008200Y0206506D01*
X0008200Y0203308D02*
X0035526Y0203308D01*
X0035455Y0203525D02*
X0035762Y0202582D01*
X0036212Y0201698D01*
X0036795Y0200896D01*
X0037496Y0200195D01*
X0035455Y0203525D02*
X0035300Y0204504D01*
X0035300Y0205000D01*
X0041600Y0205000D01*
X0041600Y0203308D02*
X0041600Y0203308D01*
X0041600Y0200109D02*
X0041600Y0200109D01*
X0045587Y0200109D02*
X0046167Y0200109D01*
X0008200Y0187315D02*
X0228533Y0187315D01*
X0228375Y0190000D02*
X0234475Y0190000D01*
X0234475Y0190000D01*
X0228375Y0190000D01*
X0228375Y0190514D02*
X0173862Y0190514D01*
X0175200Y0193712D02*
X0229560Y0193712D01*
X0234475Y0193712D02*
X0234475Y0193712D01*
X0234475Y0190514D02*
X0234475Y0190514D01*
X0240720Y0196911D02*
X0194273Y0196911D01*
X0193225Y0186100D02*
X0190698Y0186100D01*
X0187125Y0182527D01*
X0187125Y0180000D01*
X0187125Y0177473D01*
X0190698Y0173900D01*
X0193225Y0173900D01*
X0193225Y0180000D01*
X0193225Y0180000D01*
X0193225Y0186100D01*
X0193225Y0184117D02*
X0193225Y0184117D01*
X0193225Y0180918D02*
X0193225Y0180918D01*
X0193225Y0180000D02*
X0193225Y0180000D01*
X0187125Y0180000D01*
X0193225Y0180000D01*
X0193225Y0177720D02*
X0193225Y0177720D01*
X0193225Y0174521D02*
X0193225Y0174521D01*
X0196373Y0174521D02*
X0198038Y0174521D01*
X0207162Y0174521D02*
X0207413Y0174521D01*
X0211975Y0180000D02*
X0267600Y0180000D01*
X0274121Y0184117D02*
X0283650Y0184117D01*
X0283650Y0187315D02*
X0274714Y0187315D01*
X0275200Y0190514D02*
X0282538Y0190514D01*
X0279780Y0193712D02*
X0274289Y0193712D01*
X0277021Y0196911D02*
X0270776Y0196911D01*
X0274263Y0200109D02*
X0211225Y0200109D01*
X0205989Y0209705D02*
X0173219Y0209705D01*
X0171495Y0216102D02*
X0183705Y0216102D01*
X0182700Y0219300D02*
X0172500Y0219300D01*
X0170246Y0238491D02*
X0159954Y0238491D01*
X0161200Y0241690D02*
X0169000Y0241690D01*
X0169000Y0244888D02*
X0161200Y0244888D01*
X0159975Y0248087D02*
X0168416Y0248087D01*
X0165211Y0251285D02*
X0156777Y0251285D01*
X0160151Y0254484D02*
X0135726Y0254484D01*
X0137531Y0251285D02*
X0148423Y0251285D01*
X0145225Y0248087D02*
X0137531Y0248087D01*
X0137531Y0244888D02*
X0144000Y0244888D01*
X0144000Y0241690D02*
X0137531Y0241690D01*
X0137531Y0238491D02*
X0145246Y0238491D01*
X0144826Y0257682D02*
X0030374Y0257682D01*
X0031200Y0260881D02*
X0144000Y0260881D01*
X0144000Y0264079D02*
X0031200Y0264079D01*
X0031200Y0267278D02*
X0144000Y0267278D01*
X0144000Y0270476D02*
X0031200Y0270476D01*
X0014000Y0270476D02*
X0008200Y0270476D01*
X0008200Y0267278D02*
X0014000Y0267278D01*
X0014000Y0264079D02*
X0008200Y0264079D01*
X0008200Y0260881D02*
X0014000Y0260881D01*
X0049246Y0238491D02*
X0054351Y0238491D01*
X0060849Y0238491D02*
X0064351Y0238491D01*
X0089563Y0251285D02*
X0094127Y0251285D01*
X0101073Y0251285D02*
X0104127Y0251285D01*
X0161200Y0267278D02*
X0163333Y0267278D01*
X0166867Y0267278D02*
X0169000Y0267278D01*
X0169000Y0270476D02*
X0161200Y0270476D01*
X0165100Y0260000D02*
X0165100Y0259578D01*
X0165686Y0258164D02*
X0171350Y0252500D01*
X0209272Y0252500D01*
X0210686Y0251914D02*
X0215100Y0247500D01*
X0219764Y0251285D02*
X0223423Y0251285D01*
X0220049Y0254484D02*
X0235151Y0254484D01*
X0231777Y0251285D02*
X0248423Y0251285D01*
X0245225Y0248087D02*
X0234975Y0248087D01*
X0236200Y0244888D02*
X0244000Y0244888D01*
X0244000Y0241690D02*
X0236200Y0241690D01*
X0234954Y0238491D02*
X0245246Y0238491D01*
X0259954Y0238491D02*
X0270246Y0238491D01*
X0269000Y0241690D02*
X0261200Y0241690D01*
X0261200Y0244888D02*
X0269000Y0244888D01*
X0270225Y0248087D02*
X0259975Y0248087D01*
X0256777Y0251285D02*
X0273423Y0251285D01*
X0270049Y0254484D02*
X0285151Y0254484D01*
X0269000Y0267278D02*
X0266867Y0267278D01*
X0263333Y0267278D02*
X0261200Y0267278D01*
X0261200Y0270476D02*
X0269000Y0270476D01*
X0260151Y0254484D02*
X0245049Y0254484D01*
X0244000Y0267278D02*
X0241867Y0267278D01*
X0238333Y0267278D02*
X0236200Y0267278D01*
X0236200Y0270476D02*
X0244000Y0270476D01*
X0219000Y0270476D02*
X0211200Y0270476D01*
X0211200Y0267278D02*
X0213333Y0267278D01*
X0216867Y0267278D02*
X0219000Y0267278D01*
X0210686Y0251914D02*
X0210623Y0251975D01*
X0210558Y0252032D01*
X0210490Y0252087D01*
X0210419Y0252138D01*
X0210347Y0252187D01*
X0210272Y0252232D01*
X0210195Y0252274D01*
X0210117Y0252313D01*
X0210037Y0252348D01*
X0209956Y0252379D01*
X0209873Y0252407D01*
X0209790Y0252432D01*
X0209705Y0252453D01*
X0209619Y0252470D01*
X0209533Y0252483D01*
X0209446Y0252492D01*
X0209359Y0252498D01*
X0209272Y0252500D01*
X0226728Y0243300D02*
X0227600Y0243300D01*
X0226728Y0243300D02*
X0226641Y0243298D01*
X0226554Y0243292D01*
X0226467Y0243283D01*
X0226381Y0243270D01*
X0226295Y0243253D01*
X0226210Y0243232D01*
X0226127Y0243207D01*
X0226044Y0243179D01*
X0225963Y0243148D01*
X0225883Y0243113D01*
X0225805Y0243074D01*
X0225728Y0243032D01*
X0225653Y0242987D01*
X0225581Y0242938D01*
X0225510Y0242887D01*
X0225442Y0242832D01*
X0225377Y0242775D01*
X0225314Y0242714D01*
X0222500Y0219300D02*
X0232700Y0219300D01*
X0233705Y0216102D02*
X0221495Y0216102D01*
X0222941Y0212903D02*
X0217304Y0212903D01*
X0212896Y0212903D02*
X0192304Y0212903D01*
X0196495Y0216102D02*
X0208705Y0216102D01*
X0207700Y0219300D02*
X0197500Y0219300D01*
X0177413Y0196911D02*
X0175035Y0196911D01*
X0188715Y0184117D02*
X0008200Y0184117D01*
X0008200Y0180918D02*
X0187125Y0180918D01*
X0187125Y0177720D02*
X0008200Y0177720D01*
X0008200Y0148933D02*
X0008367Y0148933D01*
X0016833Y0148933D02*
X0028367Y0148933D01*
X0025500Y0145734D02*
X0019700Y0145734D01*
X0019700Y0142536D02*
X0025500Y0142536D01*
X0026347Y0139337D02*
X0018853Y0139337D01*
X0019700Y0136139D02*
X0025500Y0136139D01*
X0025500Y0132940D02*
X0019700Y0132940D01*
X0018633Y0129742D02*
X0026567Y0129742D01*
X0026500Y0126543D02*
X0018700Y0126543D01*
X0018700Y0123345D02*
X0026500Y0123345D01*
X0026500Y0124375D02*
X0026500Y0121848D01*
X0030073Y0118275D01*
X0032600Y0118275D01*
X0035127Y0118275D01*
X0038700Y0121848D01*
X0038700Y0124375D01*
X0032600Y0124375D01*
X0032600Y0124375D01*
X0032600Y0124375D01*
X0026500Y0124375D01*
X0028202Y0120146D02*
X0016998Y0120146D01*
X0012600Y0120146D02*
X0012600Y0120146D01*
X0012600Y0123345D02*
X0012600Y0123345D01*
X0008202Y0120146D02*
X0008200Y0120146D01*
X0008200Y0116948D02*
X0284170Y0116948D01*
X0284510Y0120146D02*
X0183248Y0120146D01*
X0184950Y0123345D02*
X0240464Y0123345D01*
X0234475Y0123900D02*
X0234475Y0130000D01*
X0234475Y0130000D01*
X0234475Y0123900D01*
X0234475Y0126543D02*
X0234475Y0126543D01*
X0234475Y0129742D02*
X0234475Y0129742D01*
X0234475Y0130000D02*
X0228375Y0130000D01*
X0234475Y0130000D01*
X0234475Y0130000D01*
X0228375Y0129742D02*
X0184883Y0129742D01*
X0184950Y0126543D02*
X0229305Y0126543D01*
X0228789Y0132940D02*
X0214957Y0132940D01*
X0208994Y0132940D02*
X0205581Y0132940D01*
X0199619Y0132940D02*
X0185950Y0132940D01*
X0185950Y0136139D02*
X0188459Y0136139D01*
X0187125Y0137473D02*
X0187125Y0140000D01*
X0193225Y0140000D01*
X0193225Y0140000D01*
X0193225Y0146100D01*
X0190698Y0146100D01*
X0187125Y0142527D01*
X0187125Y0140000D01*
X0193225Y0140000D01*
X0193225Y0133900D01*
X0190698Y0133900D01*
X0187125Y0137473D01*
X0187125Y0139337D02*
X0185103Y0139337D01*
X0185950Y0142536D02*
X0187134Y0142536D01*
X0185950Y0145734D02*
X0190333Y0145734D01*
X0193225Y0145734D02*
X0193225Y0145734D01*
X0196117Y0145734D02*
X0198294Y0145734D01*
X0193225Y0142536D02*
X0193225Y0142536D01*
X0193225Y0140000D02*
X0193225Y0140000D01*
X0193225Y0139337D02*
X0193225Y0139337D01*
X0193225Y0136139D02*
X0193225Y0136139D01*
X0206906Y0145734D02*
X0207669Y0145734D01*
X0211975Y0140000D02*
X0267600Y0140000D01*
X0274776Y0142536D02*
X0283650Y0142536D01*
X0283650Y0145734D02*
X0274059Y0145734D01*
X0275200Y0148933D02*
X0283650Y0148933D01*
X0283650Y0152132D02*
X0274943Y0152132D01*
X0273678Y0155330D02*
X0283650Y0155330D01*
X0283650Y0158529D02*
X0275200Y0158529D01*
X0275111Y0161727D02*
X0283650Y0161727D01*
X0283650Y0164926D02*
X0273422Y0164926D01*
X0275049Y0168124D02*
X0283650Y0168124D01*
X0283650Y0171323D02*
X0275200Y0171323D01*
X0273827Y0174521D02*
X0283650Y0174521D01*
X0283650Y0177720D02*
X0274882Y0177720D01*
X0275200Y0180918D02*
X0283650Y0180918D01*
X0288850Y0190422D02*
X0288848Y0190509D01*
X0288842Y0190596D01*
X0288833Y0190683D01*
X0288820Y0190769D01*
X0288803Y0190855D01*
X0288782Y0190940D01*
X0288757Y0191023D01*
X0288729Y0191106D01*
X0288698Y0191187D01*
X0288663Y0191267D01*
X0288624Y0191345D01*
X0288582Y0191422D01*
X0288537Y0191497D01*
X0288488Y0191569D01*
X0288437Y0191640D01*
X0288382Y0191708D01*
X0288325Y0191773D01*
X0288264Y0191836D01*
X0288850Y0190422D02*
X0288850Y0126250D01*
X0289514Y0121836D01*
X0290100Y0120422D02*
X0290100Y0113750D01*
X0290100Y0120422D02*
X0290098Y0120509D01*
X0290092Y0120596D01*
X0290083Y0120683D01*
X0290070Y0120769D01*
X0290053Y0120855D01*
X0290032Y0120940D01*
X0290007Y0121023D01*
X0289979Y0121106D01*
X0289948Y0121187D01*
X0289913Y0121267D01*
X0289874Y0121345D01*
X0289832Y0121422D01*
X0289787Y0121497D01*
X0289738Y0121569D01*
X0289687Y0121640D01*
X0289632Y0121708D01*
X0289575Y0121773D01*
X0289514Y0121836D01*
X0284029Y0123345D02*
X0271393Y0123345D01*
X0274394Y0126543D02*
X0283565Y0126543D01*
X0283650Y0129742D02*
X0275200Y0129742D01*
X0274608Y0132940D02*
X0283650Y0132940D01*
X0283650Y0136139D02*
X0274227Y0136139D01*
X0275200Y0139337D02*
X0283650Y0139337D01*
X0267600Y0130000D02*
X0253225Y0130000D01*
X0249839Y0123345D02*
X0247236Y0123345D01*
X0256611Y0123345D02*
X0263807Y0123345D01*
X0267600Y0150000D02*
X0253225Y0150000D01*
X0267600Y0160000D02*
X0211975Y0160000D01*
X0216282Y0145734D02*
X0230114Y0145734D01*
X0253225Y0170000D02*
X0267600Y0170000D01*
X0267600Y0190000D02*
X0253225Y0190000D01*
X0250095Y0196911D02*
X0246980Y0196911D01*
X0256355Y0196911D02*
X0264424Y0196911D01*
X0271505Y0203308D02*
X0228177Y0203308D01*
X0247500Y0219300D02*
X0257700Y0219300D01*
X0258705Y0216102D02*
X0253698Y0216102D01*
X0230369Y0174521D02*
X0216537Y0174521D01*
X0197229Y0155330D02*
X0197182Y0155330D01*
X0157600Y0124375D02*
X0157600Y0118275D01*
X0157600Y0124375D01*
X0157600Y0124375D01*
X0157600Y0123345D02*
X0157600Y0123345D01*
X0157600Y0120146D02*
X0157600Y0120146D01*
X0160186Y0110551D02*
X0145014Y0110551D01*
X0147135Y0107352D02*
X0158065Y0107352D01*
X0157700Y0104154D02*
X0147500Y0104154D01*
X0147200Y0100955D02*
X0158000Y0100955D01*
X0136350Y0123345D02*
X0136350Y0123345D01*
X0146465Y0068970D02*
X0158735Y0068970D01*
X0161200Y0056176D02*
X0169000Y0056176D01*
X0169541Y0052978D02*
X0160659Y0052978D01*
X0157041Y0041981D02*
X0154115Y0042765D01*
X0151085Y0042765D01*
X0148159Y0041981D01*
X0145535Y0040467D01*
X0143393Y0038324D01*
X0141879Y0035701D01*
X0141094Y0032775D01*
X0141094Y0029745D01*
X0141879Y0026819D01*
X0143393Y0024195D01*
X0145535Y0022053D01*
X0148159Y0020538D01*
X0151085Y0019754D01*
X0154115Y0019754D01*
X0157041Y0020538D01*
X0159665Y0022053D01*
X0161807Y0024195D01*
X0163321Y0026819D01*
X0164105Y0029745D01*
X0164105Y0032775D01*
X0163321Y0035701D01*
X0161807Y0038324D01*
X0159665Y0040467D01*
X0157041Y0041981D01*
X0159947Y0040184D02*
X0170253Y0040184D01*
X0167620Y0036985D02*
X0162580Y0036985D01*
X0163834Y0033787D02*
X0166366Y0033787D01*
X0166094Y0030588D02*
X0164105Y0030588D01*
X0163474Y0027390D02*
X0166726Y0027390D01*
X0168398Y0024191D02*
X0161802Y0024191D01*
X0157828Y0020993D02*
X0172372Y0020993D01*
X0147372Y0020993D02*
X0132828Y0020993D01*
X0136802Y0024191D02*
X0143398Y0024191D01*
X0141726Y0027390D02*
X0138474Y0027390D01*
X0139105Y0030588D02*
X0141094Y0030588D01*
X0141366Y0033787D02*
X0138834Y0033787D01*
X0137580Y0036985D02*
X0142620Y0036985D01*
X0145253Y0040184D02*
X0134947Y0040184D01*
X0135659Y0052978D02*
X0144541Y0052978D01*
X0144000Y0056176D02*
X0136200Y0056176D01*
X0097600Y0020993D02*
X0097600Y0020993D01*
X0095656Y0020993D02*
X0091931Y0020993D01*
X0097600Y0017794D02*
X0097600Y0017794D01*
X0107600Y0017794D02*
X0107600Y0017794D01*
X0107600Y0015000D02*
X0107600Y0015000D01*
X0062372Y0020993D02*
X0047828Y0020993D01*
X0051802Y0024191D02*
X0058398Y0024191D01*
X0056726Y0027390D02*
X0053474Y0027390D01*
X0054105Y0030588D02*
X0056094Y0030588D01*
X0056366Y0033787D02*
X0053834Y0033787D01*
X0052580Y0036985D02*
X0057620Y0036985D01*
X0060253Y0040184D02*
X0049947Y0040184D01*
X0050659Y0052978D02*
X0059541Y0052978D01*
X0059000Y0056176D02*
X0051200Y0056176D01*
X0048429Y0075367D02*
X0061771Y0075367D01*
X0059000Y0078566D02*
X0051200Y0078566D01*
X0051200Y0081764D02*
X0059000Y0081764D01*
X0059000Y0084963D02*
X0051200Y0084963D01*
X0048000Y0100955D02*
X0037200Y0100955D01*
X0037500Y0104154D02*
X0047700Y0104154D01*
X0048065Y0107352D02*
X0037135Y0107352D01*
X0035014Y0110551D02*
X0050186Y0110551D01*
X0052600Y0118275D02*
X0052600Y0124375D01*
X0052600Y0118275D01*
X0052600Y0120146D02*
X0052600Y0120146D01*
X0052600Y0123345D02*
X0052600Y0123345D01*
X0052600Y0124375D02*
X0052600Y0124375D01*
X0048202Y0120146D02*
X0036998Y0120146D01*
X0038700Y0123345D02*
X0046500Y0123345D01*
X0046500Y0126543D02*
X0038700Y0126543D01*
X0038633Y0129742D02*
X0046567Y0129742D01*
X0045500Y0132940D02*
X0039700Y0132940D01*
X0039700Y0136139D02*
X0045500Y0136139D01*
X0046347Y0139337D02*
X0039291Y0139337D01*
X0039280Y0139326D02*
X0039280Y0139326D01*
X0040574Y0140620D02*
X0040574Y0140620D01*
X0041305Y0141351D02*
X0041305Y0141351D01*
X0042490Y0142536D02*
X0045500Y0142536D01*
X0032600Y0124375D02*
X0032600Y0118275D01*
X0032600Y0124375D01*
X0032600Y0124375D01*
X0032600Y0123345D02*
X0032600Y0123345D01*
X0032600Y0120146D02*
X0032600Y0120146D01*
X0009023Y0065772D02*
X0008200Y0065772D01*
X0008200Y0062573D02*
X0009000Y0062573D01*
X0009000Y0059375D02*
X0008200Y0059375D01*
X0008200Y0056176D02*
X0009000Y0056176D01*
X0009541Y0052978D02*
X0008200Y0052978D01*
X0165686Y0258164D02*
X0165625Y0258227D01*
X0165568Y0258292D01*
X0165513Y0258360D01*
X0165462Y0258431D01*
X0165413Y0258503D01*
X0165368Y0258578D01*
X0165326Y0258655D01*
X0165287Y0258733D01*
X0165252Y0258813D01*
X0165221Y0258894D01*
X0165193Y0258977D01*
X0165168Y0259060D01*
X0165147Y0259145D01*
X0165130Y0259231D01*
X0165117Y0259317D01*
X0165108Y0259404D01*
X0165102Y0259491D01*
X0165100Y0259578D01*
X0186200Y0267278D02*
X0188333Y0267278D01*
X0191867Y0267278D02*
X0194000Y0267278D01*
X0194000Y0270476D02*
X0186200Y0270476D01*
X0261200Y0059375D02*
X0264388Y0059375D01*
D23*
X0277600Y0025000D03*
X0312600Y0060000D03*
X0102600Y0220000D03*
X0077600Y0260000D03*
X0022600Y0220000D03*
D24*
X0127600Y0230000D02*
X0290100Y0230000D01*
X0290100Y0220000D01*
X0290100Y0230000D02*
X0290100Y0231250D01*
X0282600Y0230000D01*
X0265100Y0230000D02*
X0265100Y0220000D01*
X0240100Y0220000D02*
X0240100Y0230000D01*
X0215100Y0230000D02*
X0215100Y0220000D01*
X0190100Y0220000D02*
X0190100Y0230000D01*
X0165100Y0230000D02*
X0165100Y0220000D01*
X0165100Y0105000D02*
X0165100Y0093750D01*
X0190100Y0093750D01*
X0190100Y0105000D01*
X0190100Y0093750D02*
X0215100Y0093750D01*
X0215100Y0105000D01*
X0215100Y0093750D02*
X0240100Y0093750D01*
X0165100Y0093750D02*
X0140100Y0093750D01*
X0140100Y0105000D01*
X0140100Y0093750D02*
X0115100Y0093750D01*
X0115100Y0105000D01*
X0115100Y0093750D02*
X0080100Y0093750D01*
X0080100Y0105000D01*
X0080100Y0093750D02*
X0055100Y0093750D01*
X0055100Y0105000D01*
X0055100Y0093750D02*
X0030100Y0093750D01*
X0030100Y0105000D01*
D25*
X0092600Y0075000D03*
X0092600Y0060000D03*
X0127600Y0230000D03*
X0127600Y0245000D03*
D26*
X0127600Y0230000D01*
X0165100Y0230000D01*
X0190100Y0230000D01*
X0215100Y0230000D01*
X0240100Y0230000D01*
X0265100Y0230000D01*
X0282600Y0230000D01*
X0287600Y0230000D01*
X0092600Y0090000D02*
X0092600Y0075000D01*
X0092600Y0060000D01*
D27*
X0182600Y0200000D03*
X0215100Y0247500D03*
X0248850Y0212500D03*
X0272600Y0210000D03*
D28*
X0290100Y0113750D03*
M02*
